G04 Layer_Color=65535*
%FSLAX25Y25*%
%MOIN*%
G70*
G01*
G75*
%ADD24C,0.01000*%
%ADD40C,0.00984*%
%ADD41C,0.00787*%
%ADD42C,0.02362*%
%ADD43C,0.01575*%
D24*
X-9843Y-165945D02*
G03*
X-9843Y-165945I-12205J0D01*
G01*
X166732Y64152D02*
G03*
X166732Y64152I-12205J0D01*
G01*
X-120473Y101969D02*
G03*
X-120473Y101969I-12205J0D01*
G01*
X80709Y70866D02*
X85827D01*
X79921Y81890D02*
X86221D01*
X83071Y78740D02*
Y85039D01*
X12795Y9606D02*
X12835Y8071D01*
X15079D02*
X15984Y7402D01*
X13819Y7362D02*
X15079Y8071D01*
X12835D02*
X13819Y7362D01*
X11614D02*
X12835Y8071D01*
X10591Y8150D02*
X11614Y7362D01*
X9882Y7402D02*
X10591Y8150D01*
X-34148Y-164352D02*
X-9947Y-167538D01*
X149857Y75428D02*
X159198Y52877D01*
X-140107Y92286D02*
X-125247Y111651D01*
X-85433Y28543D02*
Y46260D01*
X-103150D02*
X-85433D01*
X-103150Y28543D02*
Y46260D01*
Y28543D02*
X-85433D01*
X-98228Y33465D02*
X-90354D01*
X-94291D02*
Y35433D01*
Y39370D02*
Y41339D01*
X-98228D02*
X-90354D01*
X-128661Y17047D02*
Y77047D01*
X-138661Y17047D02*
X-128661D01*
X2165Y21850D02*
Y25000D01*
X-5315Y16142D02*
X-3740D01*
X-5315Y19291D02*
X-3740D01*
X49409Y71457D02*
Y74606D01*
X42126Y64567D02*
X43701D01*
X42126Y67716D02*
X43701D01*
X17520Y92520D02*
Y94095D01*
X20669Y92520D02*
Y94095D01*
X-93209Y-53553D02*
Y-10226D01*
X-74902D01*
Y-53553D02*
Y-10226D01*
X-93209Y-53553D02*
X-74902D01*
X-47835Y-83071D02*
Y59449D01*
X-26969Y-83071D02*
Y59449D01*
X-47835D02*
X-39902D01*
X-34902D02*
X-26969D01*
X-47835Y-83071D02*
X-26969D01*
X16732Y76968D02*
X28937D01*
X16732Y78937D02*
X28937D01*
X16732Y76968D02*
Y78937D01*
X28937Y76968D02*
Y78937D01*
X174016Y-1575D02*
Y1575D01*
X121729Y123956D02*
X123956Y121729D01*
X-1575Y174016D02*
X1575D01*
X-123956Y121729D02*
X-121729Y123956D01*
X-174016Y-1575D02*
Y1575D01*
X-123956Y-121729D02*
X-121729Y-123956D01*
X-1772Y-174803D02*
X1378Y-174803D01*
X121729Y-123956D02*
X123956Y-121729D01*
X7185Y50295D02*
Y52067D01*
Y58957D02*
Y60742D01*
X1870Y60728D02*
X7185D01*
X1870Y50295D02*
X7185D01*
X67244Y66693D02*
Y86693D01*
X77244Y66693D02*
Y86693D01*
X67244Y66693D02*
X77244D01*
X67244Y86693D02*
X77244D01*
X-97638Y-32677D02*
Y-31102D01*
X-100787Y-32677D02*
Y-31102D01*
X-72441Y50984D02*
X-70866D01*
X-72441Y54134D02*
X-70866D01*
X-129842Y-71535D02*
Y-31535D01*
X-139842D02*
X-129842D01*
X-71654Y32874D02*
X-70079D01*
X-71654Y29724D02*
X-70079D01*
X-73425Y61811D02*
Y63386D01*
X-76575Y61811D02*
Y63386D01*
X163679Y67798D02*
X172773Y71565D01*
X31890Y70472D02*
X33268Y75197D01*
X125275Y125275D02*
X132235Y132235D01*
X-132235D02*
X-125275Y125275D01*
X-187008Y0D02*
X-177165D01*
X-132235Y-132235D02*
X-125275Y-125275D01*
X0Y-187008D02*
Y-177165D01*
X125275Y-125275D02*
X132235Y-132235D01*
X-61024Y66929D02*
X-13780D01*
Y-85630D02*
Y66929D01*
Y-90551D02*
Y-85630D01*
X-61024Y-90551D02*
X-13780D01*
X-61024D02*
Y66929D01*
X23622Y59055D02*
X141732D01*
X23622Y-97441D02*
Y59055D01*
Y-97441D02*
X141732D01*
X141732Y-97441D02*
Y59055D01*
X0Y177165D02*
Y187008D01*
X177165Y0D02*
X187008D01*
X163679Y67798D02*
X172773Y71565D01*
X125275Y125275D02*
X132235Y132235D01*
X67798Y163679D02*
X71565Y172773D01*
X0Y177165D02*
Y187008D01*
X-71565Y172773D02*
X-67798Y163679D01*
X-132235Y132235D02*
X-125275Y125275D01*
X-172773Y71565D02*
X-163679Y67798D01*
X-187008Y0D02*
X-177165D01*
X-172773Y-71565D02*
X-163679Y-67798D01*
X-132235Y-132235D02*
X-125275Y-125275D01*
X-71565Y-172773D02*
X-67798Y-163679D01*
X0Y-187008D02*
Y-177165D01*
X67798Y-163679D02*
X71565Y-172773D01*
X125275Y-125275D02*
X132235Y-132235D01*
X163679Y-67798D02*
X172773Y-71565D01*
D40*
X52264Y121850D02*
G03*
X52264Y121850I-492J0D01*
G01*
X-51909Y58307D02*
G03*
X-51909Y58307I-492J0D01*
G01*
X30512Y82677D02*
G03*
X30512Y82677I-492J0D01*
G01*
X-1181Y63287D02*
G03*
X-1181Y63287I-492J0D01*
G01*
D41*
X-39902Y59449D02*
G03*
X-34902Y59449I2500J0D01*
G01*
X46260Y108268D02*
Y119291D01*
Y108268D02*
X77284D01*
Y119291D01*
X46260D02*
X77284D01*
X-7480Y4724D02*
X-5906D01*
X-7480Y1575D02*
X-5906D01*
X-99606Y20472D02*
Y25195D01*
X-97245D01*
X-96458Y24408D01*
Y22834D01*
X-97245Y22047D01*
X-99606D01*
X-98032D02*
X-96458Y20472D01*
X-91735Y24408D02*
X-92522Y25195D01*
X-94096D01*
X-94883Y24408D01*
Y23621D01*
X-94096Y22834D01*
X-92522D01*
X-91735Y22047D01*
Y21260D01*
X-92522Y20472D01*
X-94096D01*
X-94883Y21260D01*
X-90161Y25195D02*
X-87012D01*
X-88586D01*
Y20472D01*
X51575Y72047D02*
Y76770D01*
X53936D01*
X54723Y75983D01*
Y74409D01*
X53936Y73621D01*
X51575D01*
X56298Y76770D02*
Y72047D01*
X57872Y73621D01*
X59446Y72047D01*
Y76770D01*
X61021Y72047D02*
Y76770D01*
X63382D01*
X64169Y75983D01*
Y74409D01*
X63382Y73621D01*
X61021D01*
X62595D02*
X64169Y72047D01*
X-3938Y32282D02*
X-4725Y33069D01*
X-6300D01*
X-7087Y32282D01*
Y31495D01*
X-6300Y30708D01*
X-4725D01*
X-3938Y29921D01*
Y29134D01*
X-4725Y28346D01*
X-6300D01*
X-7087Y29134D01*
X-2364Y33069D02*
X785D01*
X-789D01*
Y28346D01*
X80314Y126376D02*
X78740D01*
X77953Y125589D01*
Y122441D01*
X78740Y121653D01*
X80314D01*
X81101Y122441D01*
Y125589D01*
X80314Y126376D01*
X82676Y121653D02*
Y126376D01*
X85824Y121653D01*
Y126376D01*
X-12183Y9090D02*
Y12238D01*
X-10608D01*
X-10084Y11714D01*
Y10664D01*
X-10608Y10139D01*
X-12183D01*
X-11133D02*
X-10084Y9090D01*
X-6935D02*
X-9034D01*
X-6935Y11189D01*
Y11714D01*
X-7460Y12238D01*
X-8509D01*
X-9034Y11714D01*
X-5886Y12238D02*
X-3786D01*
Y11714D01*
X-5886Y9614D01*
Y9090D01*
X8661Y-5118D02*
Y-1970D01*
X10236D01*
X10761Y-2494D01*
Y-3544D01*
X10236Y-4069D01*
X8661D01*
X9711D02*
X10761Y-5118D01*
X13909D02*
X11810D01*
X13909Y-3019D01*
Y-2494D01*
X13384Y-1970D01*
X12335D01*
X11810Y-2494D01*
X17058Y-1970D02*
X16008Y-2494D01*
X14959Y-3544D01*
Y-4593D01*
X15483Y-5118D01*
X16533D01*
X17058Y-4593D01*
Y-4069D01*
X16533Y-3544D01*
X14959D01*
X-44094Y-158268D02*
Y-155119D01*
X-43045Y-156169D01*
X-41995Y-155119D01*
Y-158268D01*
X-40946Y-155119D02*
Y-158268D01*
Y-157218D01*
X-38847Y-155119D01*
X-40421Y-156693D01*
X-38847Y-158268D01*
X-37797Y-155644D02*
X-37273Y-155119D01*
X-36223D01*
X-35698Y-155644D01*
Y-156169D01*
X-36223Y-156693D01*
X-36748D01*
X-36223D01*
X-35698Y-157218D01*
Y-157743D01*
X-36223Y-158268D01*
X-37273D01*
X-37797Y-157743D01*
X-141142Y81890D02*
Y85038D01*
X-140092Y83989D01*
X-139043Y85038D01*
Y81890D01*
X-137993Y85038D02*
Y81890D01*
Y82939D01*
X-135894Y85038D01*
X-137468Y83464D01*
X-135894Y81890D01*
X-132746D02*
X-134845D01*
X-132746Y83989D01*
Y84514D01*
X-133270Y85038D01*
X-134320D01*
X-134845Y84514D01*
X146260Y79528D02*
Y82676D01*
X147309Y81627D01*
X148359Y82676D01*
Y79528D01*
X149408Y82676D02*
Y79528D01*
Y80577D01*
X151507Y82676D01*
X149933Y81102D01*
X151507Y79528D01*
X152557D02*
X153606D01*
X153082D01*
Y82676D01*
X152557Y82151D01*
X-87992Y-4725D02*
Y-5250D01*
X-86943Y-6300D01*
X-85893Y-5250D01*
Y-4725D01*
X-86943Y-6300D02*
Y-7874D01*
X-84843D02*
X-83794D01*
X-84319D01*
Y-4725D01*
X-84843Y-5250D01*
X-105962Y52163D02*
X-106486Y52688D01*
X-107536D01*
X-108061Y52163D01*
Y51638D01*
X-107536Y51114D01*
X-106486D01*
X-105962Y50589D01*
Y50064D01*
X-106486Y49539D01*
X-107536D01*
X-108061Y50064D01*
X-104912Y49539D02*
X-103863D01*
X-104387D01*
Y52688D01*
X-104912Y52163D01*
X-76361Y37239D02*
Y40388D01*
X-74786D01*
X-74262Y39863D01*
Y38814D01*
X-74786Y38289D01*
X-76361D01*
X-75311D02*
X-74262Y37239D01*
X-71113D02*
X-73212D01*
X-71113Y39338D01*
Y39863D01*
X-71638Y40388D01*
X-72687D01*
X-73212Y39863D01*
X-67964Y40388D02*
X-70064D01*
Y38814D01*
X-69014Y39338D01*
X-68489D01*
X-67964Y38814D01*
Y37764D01*
X-68489Y37239D01*
X-69539D01*
X-70064Y37764D01*
X12008Y101575D02*
Y104723D01*
X13582D01*
X14107Y104199D01*
Y103149D01*
X13582Y102624D01*
X12008D01*
X13057D02*
X14107Y101575D01*
X17255D02*
X15157D01*
X17255Y103674D01*
Y104199D01*
X16731Y104723D01*
X15681D01*
X15157Y104199D01*
X18305D02*
X18830Y104723D01*
X19879D01*
X20404Y104199D01*
Y103674D01*
X19879Y103149D01*
X19355D01*
X19879D01*
X20404Y102624D01*
Y102100D01*
X19879Y101575D01*
X18830D01*
X18305Y102100D01*
X-77361Y71639D02*
Y74788D01*
X-75786D01*
X-75262Y74263D01*
Y73214D01*
X-75786Y72689D01*
X-77361D01*
X-76311D02*
X-75262Y71639D01*
X-72113D02*
X-74212D01*
X-72113Y73738D01*
Y74263D01*
X-72638Y74788D01*
X-73687D01*
X-74212Y74263D01*
X-71064Y71639D02*
X-70014D01*
X-70539D01*
Y74788D01*
X-71064Y74263D01*
X2756Y16142D02*
Y19290D01*
X4330D01*
X4855Y18766D01*
Y17716D01*
X4330Y17191D01*
X2756D01*
X3805D02*
X4855Y16142D01*
X5904D02*
X6954D01*
X6429D01*
Y19290D01*
X5904Y18766D01*
X-139561Y-28261D02*
Y-25112D01*
X-137986D01*
X-137462Y-25637D01*
Y-26686D01*
X-137986Y-27211D01*
X-139561D01*
X-134313Y-28261D02*
X-136412D01*
X-134313Y-26162D01*
Y-25637D01*
X-134838Y-25112D01*
X-135887D01*
X-136412Y-25637D01*
X44291Y80905D02*
Y77756D01*
X45866D01*
X46390Y78281D01*
Y80380D01*
X45866Y80905D01*
X44291D01*
X49539D02*
X47440D01*
Y79330D01*
X48489Y79855D01*
X49014D01*
X49539Y79330D01*
Y78281D01*
X49014Y77756D01*
X47965D01*
X47440Y78281D01*
X5315Y25589D02*
Y22441D01*
X6889D01*
X7414Y22966D01*
Y25065D01*
X6889Y25589D01*
X5315D01*
X8463Y22441D02*
X9513D01*
X8988D01*
Y25589D01*
X8463Y25065D01*
X50394Y63583D02*
Y66731D01*
X51968D01*
X52493Y66207D01*
Y65157D01*
X51968Y64632D01*
X50394D01*
X51443D02*
X52493Y63583D01*
X53542D02*
X54592D01*
X54067D01*
Y66731D01*
X53542Y66207D01*
X58265Y63583D02*
X56166D01*
X58265Y65682D01*
Y66207D01*
X57740Y66731D01*
X56691D01*
X56166Y66207D01*
X-123819Y72638D02*
Y75786D01*
X-122245D01*
X-121720Y75262D01*
Y74212D01*
X-122245Y73687D01*
X-123819D01*
X-120670Y75262D02*
X-120145Y75786D01*
X-119096D01*
X-118571Y75262D01*
Y74737D01*
X-119096Y74212D01*
X-119621D01*
X-119096D01*
X-118571Y73687D01*
Y73163D01*
X-119096Y72638D01*
X-120145D01*
X-120670Y73163D01*
X-42520Y49015D02*
Y46391D01*
X-41995Y45866D01*
X-40945D01*
X-40421Y46391D01*
Y49015D01*
X-37272Y45866D02*
X-39371D01*
X-37272Y47965D01*
Y48490D01*
X-37797Y49015D01*
X-38846D01*
X-39371Y48490D01*
X-103019Y-15486D02*
X-103544Y-14962D01*
X-104593D01*
X-105118Y-15486D01*
Y-17585D01*
X-104593Y-18110D01*
X-103544D01*
X-103019Y-17585D01*
X-100395Y-18110D02*
Y-14962D01*
X-101970Y-16536D01*
X-99871D01*
X-103019Y-45998D02*
X-103544Y-45474D01*
X-104593D01*
X-105118Y-45998D01*
Y-48097D01*
X-104593Y-48622D01*
X-103544D01*
X-103019Y-48097D01*
X-99871Y-45474D02*
X-101970D01*
Y-47048D01*
X-100920Y-46523D01*
X-100395D01*
X-99871Y-47048D01*
Y-48097D01*
X-100395Y-48622D01*
X-101445D01*
X-101970Y-48097D01*
X10827Y83070D02*
Y80446D01*
X11351Y79921D01*
X12401D01*
X12926Y80446D01*
Y83070D01*
X13975Y79921D02*
X15025D01*
X14500D01*
Y83070D01*
X13975Y82545D01*
X34973Y80773D02*
X34448Y81298D01*
X33399D01*
X32874Y80773D01*
Y78674D01*
X33399Y78150D01*
X34448D01*
X34973Y78674D01*
X36023Y78150D02*
X37072D01*
X36547D01*
Y81298D01*
X36023Y80773D01*
X40745Y78150D02*
X38646D01*
X40745Y80249D01*
Y80773D01*
X40221Y81298D01*
X39171D01*
X38646Y80773D01*
X27099Y96718D02*
X26574Y97243D01*
X25525D01*
X25000Y96718D01*
Y94619D01*
X25525Y94095D01*
X26574D01*
X27099Y94619D01*
X28149Y94095D02*
X29198D01*
X28673D01*
Y97243D01*
X28149Y96718D01*
X30772D02*
X31297Y97243D01*
X32347D01*
X32871Y96718D01*
Y96193D01*
X32347Y95669D01*
X31822D01*
X32347D01*
X32871Y95144D01*
Y94619D01*
X32347Y94095D01*
X31297D01*
X30772Y94619D01*
X-93767Y64238D02*
X-94292Y64763D01*
X-95341D01*
X-95866Y64238D01*
Y62139D01*
X-95341Y61614D01*
X-94292D01*
X-93767Y62139D01*
X-92718Y61614D02*
X-91668D01*
X-92193D01*
Y64763D01*
X-92718Y64238D01*
X-87995Y64763D02*
X-90094D01*
Y63188D01*
X-89044Y63713D01*
X-88519D01*
X-87995Y63188D01*
Y62139D01*
X-88519Y61614D01*
X-89569D01*
X-90094Y62139D01*
X7020Y74080D02*
X6496Y74605D01*
X5446D01*
X4921Y74080D01*
Y71982D01*
X5446Y71457D01*
X6496D01*
X7020Y71982D01*
X8070Y71457D02*
X9119D01*
X8595D01*
Y74605D01*
X8070Y74080D01*
X12793Y74605D02*
X11743Y74080D01*
X10694Y73031D01*
Y71982D01*
X11218Y71457D01*
X12268D01*
X12793Y71982D01*
Y72506D01*
X12268Y73031D01*
X10694D01*
X-8531Y73884D02*
X-9056Y74408D01*
X-10105D01*
X-10630Y73884D01*
Y71785D01*
X-10105Y71260D01*
X-9056D01*
X-8531Y71785D01*
X-7481Y71260D02*
X-6432D01*
X-6957D01*
Y74408D01*
X-7481Y73884D01*
X-4857Y74408D02*
X-2758D01*
Y73884D01*
X-4857Y71785D01*
Y71260D01*
X-7744Y39435D02*
X-8268Y39960D01*
X-9318D01*
X-9843Y39435D01*
Y37336D01*
X-9318Y36811D01*
X-8268D01*
X-7744Y37336D01*
X-6694Y36811D02*
X-5644D01*
X-6169D01*
Y39960D01*
X-6694Y39435D01*
X-4070Y37336D02*
X-3545Y36811D01*
X-2496D01*
X-1971Y37336D01*
Y39435D01*
X-2496Y39960D01*
X-3545D01*
X-4070Y39435D01*
Y38910D01*
X-3545Y38385D01*
X-1971D01*
X10630Y56692D02*
Y54068D01*
X11155Y53543D01*
X12204D01*
X12729Y54068D01*
Y56692D01*
X13779Y56167D02*
X14303Y56692D01*
X15353D01*
X15878Y56167D01*
Y55642D01*
X15353Y55118D01*
X14828D01*
X15353D01*
X15878Y54593D01*
Y54068D01*
X15353Y53543D01*
X14303D01*
X13779Y54068D01*
X67539Y89939D02*
Y93088D01*
X69114D01*
X69638Y92563D01*
Y91514D01*
X69114Y90989D01*
X67539D01*
X70688Y89939D02*
X71737D01*
X71213D01*
Y93088D01*
X70688Y92563D01*
X-110827Y-33268D02*
Y-30119D01*
X-109253D01*
X-108728Y-30644D01*
Y-31693D01*
X-109253Y-32218D01*
X-110827D01*
X-109777D02*
X-108728Y-33268D01*
X-105579Y-30119D02*
X-106629Y-30644D01*
X-107678Y-31693D01*
Y-32743D01*
X-107153Y-33268D01*
X-106104D01*
X-105579Y-32743D01*
Y-32218D01*
X-106104Y-31693D01*
X-107678D01*
X-90748Y50787D02*
Y53936D01*
X-89174D01*
X-88649Y53411D01*
Y52362D01*
X-89174Y51837D01*
X-90748D01*
X-89698D02*
X-88649Y50787D01*
X-85500D02*
X-87599D01*
X-85500Y52886D01*
Y53411D01*
X-86025Y53936D01*
X-87075D01*
X-87599Y53411D01*
X-82352Y50787D02*
X-84451D01*
X-82352Y52886D01*
Y53411D01*
X-82877Y53936D01*
X-83926D01*
X-84451Y53411D01*
X100787Y-107678D02*
X103936D01*
X107872Y-110039D02*
Y-105316D01*
X105510Y-107678D01*
X108659D01*
X113382Y-105316D02*
X110233D01*
Y-107678D01*
X111807Y-106891D01*
X112595D01*
X113382Y-107678D01*
Y-109252D01*
X112595Y-110039D01*
X111020D01*
X110233Y-109252D01*
X115743Y-104529D02*
Y-106104D01*
X114956Y-106891D01*
X-8071Y-154725D02*
X-4922D01*
X-3348Y-156299D02*
X-2561Y-157087D01*
X-987D01*
X-199Y-156299D01*
Y-153151D01*
X-987Y-152364D01*
X-2561D01*
X-3348Y-153151D01*
Y-153938D01*
X-2561Y-154725D01*
X-199D01*
X1375Y-153151D02*
X2162Y-152364D01*
X3736D01*
X4524Y-153151D01*
Y-156299D01*
X3736Y-157087D01*
X2162D01*
X1375Y-156299D01*
Y-153151D01*
X6885Y-151577D02*
Y-153151D01*
X6098Y-153938D01*
X-112205Y-110237D02*
X-109056D01*
X-107482Y-112598D02*
X-105907D01*
X-106695D01*
Y-107876D01*
X-107482Y-108663D01*
X-103546D02*
X-102759Y-107876D01*
X-101185D01*
X-100398Y-108663D01*
Y-109450D01*
X-101185Y-110237D01*
X-101972D01*
X-101185D01*
X-100398Y-111024D01*
Y-111811D01*
X-101185Y-112598D01*
X-102759D01*
X-103546Y-111811D01*
X-95675Y-107876D02*
X-98823D01*
Y-110237D01*
X-97249Y-109450D01*
X-96462D01*
X-95675Y-110237D01*
Y-111811D01*
X-96462Y-112598D01*
X-98036D01*
X-98823Y-111811D01*
X-93313Y-107088D02*
Y-108663D01*
X-94100Y-109450D01*
X-157874Y-1772D02*
X-156300D01*
X-157087D01*
Y2951D01*
X-157874Y2164D01*
X-153938D02*
X-153151Y2951D01*
X-151577D01*
X-150790Y2164D01*
Y1377D01*
X-151577Y590D01*
X-150790Y-197D01*
Y-984D01*
X-151577Y-1772D01*
X-153151D01*
X-153938Y-984D01*
Y-197D01*
X-153151Y590D01*
X-153938Y1377D01*
Y2164D01*
X-153151Y590D02*
X-151577D01*
X-149215Y2164D02*
X-148428Y2951D01*
X-146854D01*
X-146067Y2164D01*
Y-984D01*
X-146854Y-1772D01*
X-148428D01*
X-149215Y-984D01*
Y2164D01*
X-143705Y3738D02*
Y2164D01*
X-144492Y1377D01*
X-110827Y107480D02*
X-109253D01*
X-110040D01*
Y112203D01*
X-110827Y111416D01*
X-106891D02*
X-106104Y112203D01*
X-104530D01*
X-103742Y111416D01*
Y110629D01*
X-104530Y109842D01*
X-105317D01*
X-104530D01*
X-103742Y109055D01*
Y108267D01*
X-104530Y107480D01*
X-106104D01*
X-106891Y108267D01*
X-99020Y112203D02*
X-102168D01*
Y109842D01*
X-100594Y110629D01*
X-99807D01*
X-99020Y109842D01*
Y108267D01*
X-99807Y107480D01*
X-101381D01*
X-102168Y108267D01*
X-96658Y112990D02*
Y111416D01*
X-97445Y110629D01*
X-3347Y154134D02*
X-2559Y153347D01*
X-985D01*
X-198Y154134D01*
Y157282D01*
X-985Y158069D01*
X-2559D01*
X-3347Y157282D01*
Y156495D01*
X-2559Y155708D01*
X-198D01*
X1376Y157282D02*
X2164Y158069D01*
X3738D01*
X4525Y157282D01*
Y154134D01*
X3738Y153347D01*
X2164D01*
X1376Y154134D01*
Y157282D01*
X6887Y158856D02*
Y157282D01*
X6099Y156495D01*
X109054Y104724D02*
Y109447D01*
X106693Y107086D01*
X109842D01*
X114564Y109447D02*
X111416D01*
Y107086D01*
X112990Y107873D01*
X113777D01*
X114564Y107086D01*
Y105512D01*
X113777Y104724D01*
X112203D01*
X111416Y105512D01*
X116926Y110234D02*
Y108660D01*
X116139Y107873D01*
X153347Y1377D02*
X154134Y2164D01*
X155708D01*
X156495Y1377D01*
Y-1772D01*
X155708Y-2559D01*
X154134D01*
X153347Y-1772D01*
Y1377D01*
X158856Y2951D02*
Y1377D01*
X158069Y589D01*
X-25984Y-132679D02*
Y-137402D01*
X-23623D01*
X-22836Y-136614D01*
Y-135827D01*
X-23623Y-135040D01*
X-25984D01*
X-23623D01*
X-22836Y-134253D01*
Y-133466D01*
X-23623Y-132679D01*
X-25984D01*
X-21261D02*
Y-133466D01*
X-19687Y-135040D01*
X-18113Y-133466D01*
Y-132679D01*
X-19687Y-135040D02*
Y-137402D01*
X-16538Y-134253D02*
X-15751D01*
Y-135040D01*
X-16538D01*
Y-134253D01*
Y-136614D02*
X-15751D01*
Y-137402D01*
X-16538D01*
Y-136614D01*
X-4731Y-133466D02*
X-5518Y-132679D01*
X-7093D01*
X-7880Y-133466D01*
Y-134253D01*
X-7093Y-135040D01*
X-5518D01*
X-4731Y-135827D01*
Y-136614D01*
X-5518Y-137402D01*
X-7093D01*
X-7880Y-136614D01*
X-8Y-132679D02*
X-3157D01*
Y-137402D01*
X-8D01*
X-3157Y-135040D02*
X-1583D01*
X4715Y-132679D02*
X1566D01*
Y-137402D01*
X4715D01*
X1566Y-135040D02*
X3140D01*
X6289Y-132679D02*
Y-137402D01*
X8650D01*
X9437Y-136614D01*
Y-133466D01*
X8650Y-132679D01*
X6289D01*
X14160Y-133466D02*
X13373Y-132679D01*
X11799D01*
X11012Y-133466D01*
Y-136614D01*
X11799Y-137402D01*
X13373D01*
X14160Y-136614D01*
X15734Y-132679D02*
Y-137402D01*
X18883D01*
X20457D02*
Y-134253D01*
X22032Y-132679D01*
X23606Y-134253D01*
Y-137402D01*
Y-135040D01*
X20457D01*
X28329Y-133466D02*
X27542Y-132679D01*
X25967D01*
X25180Y-133466D01*
Y-134253D01*
X25967Y-135040D01*
X27542D01*
X28329Y-135827D01*
Y-136614D01*
X27542Y-137402D01*
X25967D01*
X25180Y-136614D01*
X33052Y-133466D02*
X32265Y-132679D01*
X30690D01*
X29903Y-133466D01*
Y-134253D01*
X30690Y-135040D01*
X32265D01*
X33052Y-135827D01*
Y-136614D01*
X32265Y-137402D01*
X30690D01*
X29903Y-136614D01*
X37775Y-137402D02*
X34626D01*
X37775Y-134253D01*
Y-133466D01*
X36988Y-132679D01*
X35413D01*
X34626Y-133466D01*
X39349D02*
X40136Y-132679D01*
X41710D01*
X42498Y-133466D01*
Y-136614D01*
X41710Y-137402D01*
X40136D01*
X39349Y-136614D01*
Y-133466D01*
X44072Y-137402D02*
X45646D01*
X44859D01*
Y-132679D01*
X44072Y-133466D01*
X51156Y-132679D02*
X48008D01*
Y-135040D01*
X49582Y-134253D01*
X50369D01*
X51156Y-135040D01*
Y-136614D01*
X50369Y-137402D01*
X48795D01*
X48008Y-136614D01*
X150591Y46981D02*
Y44882D01*
Y45931D01*
X151115Y46456D01*
X151640Y46981D01*
X152165D01*
X153739Y45931D02*
X155838D01*
X153739Y46981D02*
X155838D01*
X158462Y44882D02*
Y48030D01*
X156888Y46456D01*
X158987D01*
X162135Y44882D02*
X160036D01*
X162135Y46981D01*
Y47506D01*
X161611Y48030D01*
X160561D01*
X160036Y47506D01*
X163185Y44882D02*
Y45407D01*
X163710D01*
Y44882D01*
X163185D01*
X167908Y48030D02*
X165809D01*
Y46456D01*
X166858Y46981D01*
X167383D01*
X167908Y46456D01*
Y45407D01*
X167383Y44882D01*
X166333D01*
X165809Y45407D01*
X30315Y51573D02*
Y46850D01*
X32676D01*
X33463Y47638D01*
Y48425D01*
X32676Y49212D01*
X30315D01*
X32676D01*
X33463Y49999D01*
Y50786D01*
X32676Y51573D01*
X30315D01*
X35038Y46850D02*
Y49999D01*
X36612Y51573D01*
X38186Y49999D01*
Y46850D01*
Y49212D01*
X35038D01*
X39761Y51573D02*
X42909D01*
X41335D01*
Y46850D01*
X44484Y51573D02*
X47632D01*
X46058D01*
Y46850D01*
X52355Y51573D02*
X49207D01*
Y46850D01*
X52355D01*
X49207Y49212D02*
X50781D01*
X53929Y46850D02*
Y51573D01*
X56291D01*
X57078Y50786D01*
Y49212D01*
X56291Y48425D01*
X53929D01*
X55504D02*
X57078Y46850D01*
X58652Y51573D02*
Y50786D01*
X60227Y49212D01*
X61801Y50786D01*
Y51573D01*
X60227Y49212D02*
Y46850D01*
D42*
X-42717Y55512D02*
G03*
X-42717Y55512I-1181J0D01*
G01*
D43*
X-42784Y-119818D02*
X-44096Y-118507D01*
X-46720D01*
X-48031Y-119818D01*
Y-121130D01*
X-46720Y-122442D01*
X-44096D01*
X-42784Y-123754D01*
Y-125066D01*
X-44096Y-126378D01*
X-46720D01*
X-48031Y-125066D01*
X-36224Y-118507D02*
X-38848D01*
X-40160Y-119818D01*
Y-125066D01*
X-38848Y-126378D01*
X-36224D01*
X-34912Y-125066D01*
Y-119818D01*
X-36224Y-118507D01*
X-32289D02*
Y-125066D01*
X-30977Y-126378D01*
X-28353D01*
X-27041Y-125066D01*
Y-118507D01*
X-24417Y-126378D02*
Y-118507D01*
X-19169Y-126378D01*
Y-118507D01*
X-16546D02*
Y-126378D01*
X-12610D01*
X-11298Y-125066D01*
Y-119818D01*
X-12610Y-118507D01*
X-16546D01*
X-803D02*
Y-126378D01*
X4445D01*
X11005Y-118507D02*
X8381D01*
X7069Y-119818D01*
Y-125066D01*
X8381Y-126378D01*
X11005D01*
X12316Y-125066D01*
Y-119818D01*
X11005Y-118507D01*
X20188Y-119818D02*
X18876Y-118507D01*
X16252D01*
X14940Y-119818D01*
Y-125066D01*
X16252Y-126378D01*
X18876D01*
X20188Y-125066D01*
X22812Y-126378D02*
Y-121130D01*
X25436Y-118507D01*
X28060Y-121130D01*
Y-126378D01*
Y-122442D01*
X22812D01*
X30683Y-118507D02*
X35931D01*
X33307D01*
Y-126378D01*
X42491Y-118507D02*
X39867D01*
X38555Y-119818D01*
Y-125066D01*
X39867Y-126378D01*
X42491D01*
X43802Y-125066D01*
Y-119818D01*
X42491Y-118507D01*
X46426Y-126378D02*
Y-118507D01*
X50362D01*
X51674Y-119818D01*
Y-122442D01*
X50362Y-123754D01*
X46426D01*
X49050D02*
X51674Y-126378D01*
M02*
