G04 Layer_Physical_Order=2*
G04 Layer_Color=16711680*
%FSLAX25Y25*%
%MOIN*%
G70*
G01*
G75*
%ADD12R,0.03543X0.03937*%
%ADD15R,0.03937X0.03543*%
%ADD16R,0.03937X0.03937*%
%ADD18R,0.03937X0.03937*%
%ADD23C,0.01969*%
%ADD24C,0.01000*%
%ADD25C,0.01181*%
%ADD26P,0.08352X4X217.5*%
%ADD27C,0.05906*%
%ADD28P,0.08352X4X337.5*%
%ADD29P,0.08352X4X97.5*%
%ADD30R,0.05906X0.05906*%
%ADD31O,0.05945X0.05906*%
%ADD32R,0.05906X0.05906*%
%ADD33C,0.04724*%
%ADD34C,0.03000*%
%ADD35C,0.01969*%
G04:AMPARAMS|DCode=36|XSize=39.37mil|YSize=35.43mil|CornerRadius=0mil|HoleSize=0mil|Usage=FLASHONLY|Rotation=225.000|XOffset=0mil|YOffset=0mil|HoleType=Round|Shape=Rectangle|*
%AMROTATEDRECTD36*
4,1,4,0.00139,0.02645,0.02645,0.00139,-0.00139,-0.02645,-0.02645,-0.00139,0.00139,0.02645,0.0*
%
%ADD36ROTATEDRECTD36*%

G04:AMPARAMS|DCode=37|XSize=39.37mil|YSize=35.43mil|CornerRadius=0mil|HoleSize=0mil|Usage=FLASHONLY|Rotation=315.000|XOffset=0mil|YOffset=0mil|HoleType=Round|Shape=Rectangle|*
%AMROTATEDRECTD37*
4,1,4,-0.02645,0.00139,-0.00139,0.02645,0.02645,-0.00139,0.00139,-0.02645,-0.02645,0.00139,0.0*
%
%ADD37ROTATEDRECTD37*%

%ADD38R,0.02362X0.04528*%
%ADD39R,0.04528X0.02362*%
G36*
X8567Y185309D02*
X17117Y184716D01*
X25629Y183728D01*
X34087Y182349D01*
X42472Y180580D01*
X50766Y178426D01*
X58953Y175891D01*
X67013Y172980D01*
X74930Y169701D01*
X82688Y166059D01*
X90269Y162063D01*
X97657Y157721D01*
X104837Y153043D01*
X111793Y148038D01*
X118511Y142717D01*
X124976Y137092D01*
X131174Y131174D01*
X137092Y124976D01*
X142717Y118511D01*
X148038Y111793D01*
X153043Y104837D01*
X157721Y97657D01*
X162063Y90269D01*
X166059Y82688D01*
X169701Y74930D01*
X172980Y67013D01*
X175891Y58953D01*
X178426Y50766D01*
X180580Y42472D01*
X182349Y34087D01*
X183728Y25629D01*
X184716Y17117D01*
X185309Y8567D01*
X185507Y0D01*
X185309Y-8567D01*
X184716Y-17117D01*
X183728Y-25629D01*
X182349Y-34087D01*
X180580Y-42472D01*
X178426Y-50766D01*
X175891Y-58953D01*
X172980Y-67013D01*
X169701Y-74930D01*
X166059Y-82688D01*
X162063Y-90269D01*
X157721Y-97657D01*
X153043Y-104837D01*
X148038Y-111793D01*
X142717Y-118511D01*
X137092Y-124976D01*
X131174Y-131174D01*
X124976Y-137092D01*
X118511Y-142717D01*
X111793Y-148038D01*
X104837Y-153043D01*
X97657Y-157721D01*
X90269Y-162063D01*
X82688Y-166059D01*
X74930Y-169701D01*
X67013Y-172980D01*
X58953Y-175891D01*
X50766Y-178426D01*
X42472Y-180580D01*
X34087Y-182349D01*
X25629Y-183728D01*
X17117Y-184716D01*
X8567Y-185309D01*
X0Y-185507D01*
X-8567Y-185309D01*
X-17117Y-184716D01*
X-25629Y-183728D01*
X-34087Y-182349D01*
X-42472Y-180580D01*
X-50766Y-178426D01*
X-58953Y-175891D01*
X-67013Y-172980D01*
X-74930Y-169701D01*
X-82688Y-166059D01*
X-90269Y-162063D01*
X-97657Y-157721D01*
X-104837Y-153043D01*
X-111793Y-148038D01*
X-118511Y-142717D01*
X-124976Y-137092D01*
X-131174Y-131174D01*
X-137092Y-124976D01*
X-142717Y-118511D01*
X-148038Y-111793D01*
X-153043Y-104837D01*
X-157721Y-97657D01*
X-162063Y-90269D01*
X-166059Y-82688D01*
X-169701Y-74930D01*
X-172980Y-67013D01*
X-175891Y-58953D01*
X-178426Y-50766D01*
X-180580Y-42472D01*
X-182349Y-34087D01*
X-183728Y-25629D01*
X-184716Y-17117D01*
X-185309Y-8567D01*
X-185507Y0D01*
X-185309Y8567D01*
X-184716Y17117D01*
X-183728Y25629D01*
X-182349Y34087D01*
X-180580Y42472D01*
X-178426Y50766D01*
X-175891Y58953D01*
X-172980Y67013D01*
X-169701Y74930D01*
X-166059Y82688D01*
X-162063Y90269D01*
X-157721Y97657D01*
X-153043Y104837D01*
X-148038Y111793D01*
X-142717Y118511D01*
X-137092Y124976D01*
X-131174Y131174D01*
X-124976Y137092D01*
X-118511Y142717D01*
X-111793Y148038D01*
X-104837Y153043D01*
X-97657Y157721D01*
X-90269Y162063D01*
X-82688Y166059D01*
X-74930Y169701D01*
X-67013Y172980D01*
X-58953Y175891D01*
X-50766Y178426D01*
X-42472Y180580D01*
X-34087Y182349D01*
X-25629Y183728D01*
X-17117Y184716D01*
X-8567Y185309D01*
X0Y185507D01*
X8567Y185309D01*
D02*
G37*
%LPC*%
G36*
X-52902Y-12890D02*
X-53434Y-12960D01*
X-54395Y-13358D01*
X-55221Y-13992D01*
X-55854Y-14818D01*
X-56253Y-15779D01*
X-56323Y-16311D01*
X-52902D01*
Y-12890D01*
D02*
G37*
G36*
X-51902D02*
Y-16311D01*
X-48480D01*
X-48551Y-15779D01*
X-48949Y-14818D01*
X-49582Y-13992D01*
X-50408Y-13358D01*
X-51370Y-12960D01*
X-51902Y-12890D01*
D02*
G37*
G36*
X-48480Y-17311D02*
X-51902D01*
Y-20732D01*
X-51370Y-20662D01*
X-50408Y-20264D01*
X-49582Y-19630D01*
X-48949Y-18804D01*
X-48551Y-17843D01*
X-48480Y-17311D01*
D02*
G37*
G36*
X-22402Y-12824D02*
X-23433Y-12960D01*
X-24395Y-13358D01*
X-25221Y-13992D01*
X-25854Y-14818D01*
X-26253Y-15779D01*
X-26388Y-16811D01*
X-26253Y-17843D01*
X-25854Y-18804D01*
X-25221Y-19630D01*
X-24395Y-20264D01*
X-23433Y-20662D01*
X-22402Y-20798D01*
X-21370Y-20662D01*
X-20408Y-20264D01*
X-19582Y-19630D01*
X-18949Y-18804D01*
X-18551Y-17843D01*
X-18415Y-16811D01*
X-18551Y-15779D01*
X-18949Y-14818D01*
X-19582Y-13992D01*
X-20408Y-13358D01*
X-21370Y-12960D01*
X-22402Y-12824D01*
D02*
G37*
G36*
X-52902Y-17311D02*
X-56323D01*
X-56253Y-17843D01*
X-55854Y-18804D01*
X-55221Y-19630D01*
X-54395Y-20264D01*
X-53434Y-20662D01*
X-52902Y-20732D01*
Y-17311D01*
D02*
G37*
G36*
X-161205Y-500D02*
X-163476D01*
Y-2968D01*
X-161205D01*
Y-500D01*
D02*
G37*
G36*
X163476D02*
X161205D01*
Y-2968D01*
X163476D01*
Y-500D01*
D02*
G37*
G36*
X-164476D02*
X-166748D01*
Y-2968D01*
X-164476D01*
Y-500D01*
D02*
G37*
G36*
X-28543Y70330D02*
X-29318Y70176D01*
X-29974Y69738D01*
X-30412Y69081D01*
X-30566Y68307D01*
X-30412Y67533D01*
X-30073Y67024D01*
Y-669D01*
X-29956Y-1255D01*
X-29625Y-1751D01*
X-26738Y-4637D01*
X-26689Y-4712D01*
X-26630Y-4833D01*
X-26569Y-4994D01*
X-26512Y-5195D01*
X-26462Y-5436D01*
X-26424Y-5704D01*
X-26377Y-6396D01*
X-26374Y-6704D01*
X-26388Y-6811D01*
X-26253Y-7843D01*
X-25854Y-8804D01*
X-25221Y-9630D01*
X-24395Y-10264D01*
X-23433Y-10662D01*
X-22402Y-10798D01*
X-21370Y-10662D01*
X-20408Y-10264D01*
X-19582Y-9630D01*
X-18949Y-8804D01*
X-18551Y-7843D01*
X-18415Y-6811D01*
X-18551Y-5779D01*
X-18949Y-4818D01*
X-19582Y-3992D01*
X-20408Y-3358D01*
X-21370Y-2960D01*
X-22402Y-2824D01*
X-22508Y-2838D01*
X-22817Y-2836D01*
X-23509Y-2789D01*
X-23776Y-2750D01*
X-24018Y-2701D01*
X-24219Y-2644D01*
X-24380Y-2583D01*
X-24500Y-2523D01*
X-24576Y-2474D01*
X-27014Y-36D01*
Y67024D01*
X-26674Y67533D01*
X-26520Y68307D01*
X-26674Y69081D01*
X-27113Y69738D01*
X-27769Y70176D01*
X-28543Y70330D01*
D02*
G37*
G36*
X-167898Y2968D02*
X-173441D01*
Y-2968D01*
X-167898D01*
Y2968D01*
D02*
G37*
G36*
X-22902Y-32890D02*
X-23433Y-32960D01*
X-24395Y-33358D01*
X-25221Y-33992D01*
X-25854Y-34818D01*
X-26253Y-35779D01*
X-26323Y-36311D01*
X-22902D01*
Y-32890D01*
D02*
G37*
G36*
X-21902D02*
Y-36311D01*
X-18481D01*
X-18551Y-35779D01*
X-18949Y-34818D01*
X-19582Y-33992D01*
X-20408Y-33358D01*
X-21370Y-32960D01*
X-21902Y-32890D01*
D02*
G37*
G36*
X-134843Y-32549D02*
X-135874Y-32684D01*
X-136836Y-33083D01*
X-137662Y-33716D01*
X-138295Y-34542D01*
X-138693Y-35504D01*
X-138829Y-36535D01*
X-138693Y-37567D01*
X-138295Y-38529D01*
X-137662Y-39355D01*
X-136836Y-39988D01*
X-135874Y-40386D01*
X-134843Y-40522D01*
X-133811Y-40386D01*
X-132849Y-39988D01*
X-132023Y-39355D01*
X-131390Y-38529D01*
X-130991Y-37567D01*
X-130856Y-36535D01*
X-130991Y-35504D01*
X-131390Y-34542D01*
X-132023Y-33716D01*
X-132849Y-33083D01*
X-133811Y-32684D01*
X-134843Y-32549D01*
D02*
G37*
G36*
X-22902Y-37311D02*
X-26323D01*
X-26253Y-37843D01*
X-25854Y-38805D01*
X-25221Y-39630D01*
X-24395Y-40264D01*
X-23433Y-40662D01*
X-22902Y-40732D01*
Y-37311D01*
D02*
G37*
G36*
X-18481D02*
X-21902D01*
Y-40732D01*
X-21370Y-40662D01*
X-20408Y-40264D01*
X-19582Y-39630D01*
X-18949Y-38805D01*
X-18551Y-37843D01*
X-18481Y-37311D01*
D02*
G37*
G36*
X-3240Y-23803D02*
Y-26272D01*
X-772D01*
Y-23803D01*
X-3240D01*
D02*
G37*
G36*
X-84055Y-18892D02*
X-84933Y-19008D01*
X-85751Y-19347D01*
X-86453Y-19885D01*
X-86992Y-20588D01*
X-87331Y-21406D01*
X-87446Y-22284D01*
X-87331Y-23161D01*
X-86992Y-23979D01*
X-86453Y-24681D01*
X-85751Y-25220D01*
X-84933Y-25559D01*
X-84055Y-25675D01*
X-83177Y-25559D01*
X-82359Y-25220D01*
X-81657Y-24681D01*
X-81118Y-23979D01*
X-80779Y-23161D01*
X-80664Y-22284D01*
X-80779Y-21406D01*
X-81118Y-20588D01*
X-81657Y-19885D01*
X-82359Y-19347D01*
X-83177Y-19008D01*
X-84055Y-18892D01*
D02*
G37*
G36*
X-772Y-27272D02*
X-3240D01*
Y-29740D01*
X-772D01*
Y-27272D01*
D02*
G37*
G36*
X-52402Y-22824D02*
X-53434Y-22960D01*
X-54395Y-23358D01*
X-55221Y-23992D01*
X-55854Y-24818D01*
X-56253Y-25779D01*
X-56388Y-26811D01*
X-56253Y-27843D01*
X-55854Y-28804D01*
X-55221Y-29630D01*
X-54395Y-30264D01*
X-53434Y-30662D01*
X-52402Y-30798D01*
X-51370Y-30662D01*
X-50408Y-30264D01*
X-49582Y-29630D01*
X-48949Y-28804D01*
X-48551Y-27843D01*
X-48415Y-26811D01*
X-48551Y-25779D01*
X-48949Y-24818D01*
X-49582Y-23992D01*
X-50408Y-23358D01*
X-51370Y-22960D01*
X-52402Y-22824D01*
D02*
G37*
G36*
X-22402D02*
X-23433Y-22960D01*
X-24395Y-23358D01*
X-25221Y-23992D01*
X-25854Y-24818D01*
X-26253Y-25779D01*
X-26388Y-26811D01*
X-26253Y-27843D01*
X-25854Y-28804D01*
X-25221Y-29630D01*
X-24395Y-30264D01*
X-23433Y-30662D01*
X-22402Y-30798D01*
X-21370Y-30662D01*
X-20408Y-30264D01*
X-19582Y-29630D01*
X-19517Y-29545D01*
X-19297Y-29328D01*
X-18775Y-28872D01*
X-18558Y-28710D01*
X-18352Y-28575D01*
X-18169Y-28473D01*
X-18013Y-28402D01*
X-17886Y-28359D01*
X-17798Y-28340D01*
X-13008D01*
Y-29740D01*
X-7209D01*
X-7071Y-29740D01*
X-6709D01*
X-6571Y-29740D01*
X-4240D01*
Y-26772D01*
Y-23803D01*
X-6571D01*
X-6709Y-23803D01*
X-7071D01*
X-7209Y-23803D01*
X-13008D01*
Y-25282D01*
X-17798D01*
X-17886Y-25263D01*
X-18013Y-25220D01*
X-18170Y-25149D01*
X-18352Y-25047D01*
X-18558Y-24912D01*
X-18775Y-24750D01*
X-19297Y-24294D01*
X-19517Y-24077D01*
X-19582Y-23992D01*
X-20408Y-23358D01*
X-21370Y-22960D01*
X-22402Y-22824D01*
D02*
G37*
G36*
X-2075Y44776D02*
X-4346D01*
Y42307D01*
X-2075D01*
Y44776D01*
D02*
G37*
G36*
X1197D02*
X-1075D01*
Y42307D01*
X1197D01*
Y44776D01*
D02*
G37*
G36*
X-22402Y27176D02*
X-23433Y27040D01*
X-24395Y26642D01*
X-25221Y26008D01*
X-25854Y25182D01*
X-26253Y24221D01*
X-26388Y23189D01*
X-26253Y22157D01*
X-25854Y21196D01*
X-25221Y20370D01*
X-24395Y19736D01*
X-23433Y19338D01*
X-22402Y19202D01*
X-21370Y19338D01*
X-20408Y19736D01*
X-19582Y20370D01*
X-18949Y21196D01*
X-18551Y22157D01*
X-18415Y23189D01*
X-18551Y24221D01*
X-18949Y25182D01*
X-19582Y26008D01*
X-20408Y26642D01*
X-21370Y27040D01*
X-22402Y27176D01*
D02*
G37*
G36*
Y17176D02*
X-23433Y17040D01*
X-24395Y16642D01*
X-25221Y16008D01*
X-25854Y15182D01*
X-26253Y14221D01*
X-26388Y13189D01*
X-26253Y12157D01*
X-25854Y11196D01*
X-25221Y10370D01*
X-24395Y9736D01*
X-23433Y9338D01*
X-22402Y9202D01*
X-21370Y9338D01*
X-20408Y9736D01*
X-19582Y10370D01*
X-18949Y11196D01*
X-18551Y12157D01*
X-18415Y13189D01*
X-18551Y14221D01*
X-18949Y15182D01*
X-19582Y16008D01*
X-20408Y16642D01*
X-21370Y17040D01*
X-22402Y17176D01*
D02*
G37*
G36*
X-133661Y26034D02*
X-134693Y25898D01*
X-135655Y25500D01*
X-136481Y24866D01*
X-137114Y24041D01*
X-137512Y23079D01*
X-137648Y22047D01*
X-137512Y21015D01*
X-137114Y20054D01*
X-136481Y19228D01*
X-135655Y18595D01*
X-134693Y18196D01*
X-133661Y18060D01*
X-132630Y18196D01*
X-131668Y18595D01*
X-130842Y19228D01*
X-130209Y20054D01*
X-129810Y21015D01*
X-129675Y22047D01*
X-129810Y23079D01*
X-130209Y24041D01*
X-130842Y24866D01*
X-131668Y25500D01*
X-132630Y25898D01*
X-133661Y26034D01*
D02*
G37*
G36*
X-134161Y51547D02*
X-137582D01*
X-137512Y51015D01*
X-137114Y50054D01*
X-136481Y49228D01*
X-135655Y48594D01*
X-134693Y48196D01*
X-134161Y48126D01*
Y51547D01*
D02*
G37*
G36*
X-129740D02*
X-133161D01*
Y48126D01*
X-132630Y48196D01*
X-131668Y48594D01*
X-130842Y49228D01*
X-130209Y50054D01*
X-129810Y51015D01*
X-129740Y51547D01*
D02*
G37*
G36*
X1197Y48244D02*
X-1075D01*
Y45776D01*
X1197D01*
Y48244D01*
D02*
G37*
G36*
X-22402Y57176D02*
X-23433Y57040D01*
X-24395Y56642D01*
X-25221Y56008D01*
X-25854Y55182D01*
X-26253Y54221D01*
X-26388Y53189D01*
X-26253Y52157D01*
X-25854Y51196D01*
X-25221Y50370D01*
X-24395Y49736D01*
X-23433Y49338D01*
X-22402Y49202D01*
X-21370Y49338D01*
X-20408Y49736D01*
X-19582Y50370D01*
X-19523Y50448D01*
X-19399Y50566D01*
X-19234Y50703D01*
X-19069Y50820D01*
X-18904Y50919D01*
X-18738Y51001D01*
X-18570Y51067D01*
X-18399Y51118D01*
X-18222Y51154D01*
X-18197Y51157D01*
X-17732Y51043D01*
Y48547D01*
X-17732Y48409D01*
Y48047D01*
X-17732Y47909D01*
Y45335D01*
X-18197Y45221D01*
X-18222Y45224D01*
X-18399Y45260D01*
X-18570Y45311D01*
X-18738Y45377D01*
X-18904Y45459D01*
X-19069Y45558D01*
X-19234Y45675D01*
X-19399Y45812D01*
X-19523Y45930D01*
X-19582Y46008D01*
X-20408Y46642D01*
X-21370Y47040D01*
X-22402Y47176D01*
X-23433Y47040D01*
X-24395Y46642D01*
X-25221Y46008D01*
X-25854Y45182D01*
X-26253Y44221D01*
X-26388Y43189D01*
X-26253Y42157D01*
X-25854Y41195D01*
X-25221Y40370D01*
X-24395Y39736D01*
X-23433Y39338D01*
X-22402Y39202D01*
X-21370Y39338D01*
X-20408Y39736D01*
X-19582Y40370D01*
X-19523Y40448D01*
X-19399Y40566D01*
X-19234Y40703D01*
X-19069Y40820D01*
X-18904Y40919D01*
X-18738Y41001D01*
X-18570Y41067D01*
X-18399Y41118D01*
X-18222Y41154D01*
X-18128Y41166D01*
X-16654D01*
X-15879Y41320D01*
X-15223Y41758D01*
X-14871Y42110D01*
X-12921D01*
X-12915Y42108D01*
X-12895Y42110D01*
X-12845D01*
X-12807Y42103D01*
X-12769Y42110D01*
X-11795D01*
Y42669D01*
X-11486Y42830D01*
X-11039Y42540D01*
Y42307D01*
X-10065D01*
X-10027Y42300D01*
X-9989Y42307D01*
X-5496D01*
Y48244D01*
X-11039D01*
Y47480D01*
X-11409Y47259D01*
X-11795Y47489D01*
X-11795Y48409D01*
X-11795Y48547D01*
Y54347D01*
X-14871D01*
X-15144Y54619D01*
X-15801Y55058D01*
X-16575Y55212D01*
X-18128D01*
X-18222Y55224D01*
X-18399Y55260D01*
X-18570Y55311D01*
X-18738Y55377D01*
X-18904Y55459D01*
X-19069Y55558D01*
X-19234Y55675D01*
X-19399Y55812D01*
X-19523Y55930D01*
X-19582Y56008D01*
X-20408Y56642D01*
X-21370Y57040D01*
X-22402Y57176D01*
D02*
G37*
G36*
X-2075Y48244D02*
X-4346D01*
Y45776D01*
X-2075D01*
Y48244D01*
D02*
G37*
G36*
X-22402Y7176D02*
X-23433Y7040D01*
X-24395Y6642D01*
X-25221Y6008D01*
X-25854Y5182D01*
X-26253Y4221D01*
X-26388Y3189D01*
X-26253Y2157D01*
X-25854Y1196D01*
X-25221Y370D01*
X-24395Y-264D01*
X-23433Y-662D01*
X-22402Y-798D01*
X-21370Y-662D01*
X-20408Y-264D01*
X-19582Y370D01*
X-19525Y444D01*
X-19328Y634D01*
X-18796Y1088D01*
X-18575Y1250D01*
X-18366Y1385D01*
X-18180Y1487D01*
X-18021Y1559D01*
X-17892Y1602D01*
X-17804Y1620D01*
X-13008D01*
Y181D01*
X-7209D01*
X-7071Y181D01*
X-6709D01*
X-6571Y181D01*
X-4240D01*
Y3150D01*
Y6118D01*
X-6571D01*
X-6709Y6118D01*
X-7071D01*
X-7209Y6118D01*
X-13008D01*
Y4679D01*
X-17792D01*
X-17879Y4698D01*
X-18005Y4740D01*
X-18160Y4811D01*
X-18339Y4913D01*
X-18541Y5048D01*
X-18754Y5210D01*
X-19266Y5667D01*
X-19510Y5914D01*
X-19582Y6008D01*
X-20408Y6642D01*
X-21370Y7040D01*
X-22402Y7176D01*
D02*
G37*
G36*
X-772Y2650D02*
X-3240D01*
Y181D01*
X-772D01*
Y2650D01*
D02*
G37*
G36*
X-52402Y7176D02*
X-53434Y7040D01*
X-54395Y6642D01*
X-55221Y6008D01*
X-55854Y5182D01*
X-56253Y4221D01*
X-56388Y3189D01*
X-56253Y2157D01*
X-55854Y1196D01*
X-55221Y370D01*
X-54395Y-264D01*
X-53434Y-662D01*
X-52402Y-798D01*
X-51370Y-662D01*
X-50408Y-264D01*
X-49582Y370D01*
X-48949Y1196D01*
X-48551Y2157D01*
X-48415Y3189D01*
X-48551Y4221D01*
X-48949Y5182D01*
X-49582Y6008D01*
X-50408Y6642D01*
X-51370Y7040D01*
X-52402Y7176D01*
D02*
G37*
G36*
X166748Y-500D02*
X164476D01*
Y-2968D01*
X166748D01*
Y-500D01*
D02*
G37*
G36*
X173441Y2968D02*
X167898D01*
Y-2968D01*
X173441D01*
Y2968D01*
D02*
G37*
G36*
X166748D02*
X164476D01*
Y500D01*
X166748D01*
Y2968D01*
D02*
G37*
G36*
X-3240Y6118D02*
Y3650D01*
X-772D01*
Y6118D01*
X-3240D01*
D02*
G37*
G36*
X163476Y2968D02*
X161205D01*
Y500D01*
X163476D01*
Y2968D01*
D02*
G37*
G36*
X-164476D02*
X-166748D01*
Y500D01*
X-164476D01*
Y2968D01*
D02*
G37*
G36*
X-161205D02*
X-163476D01*
Y500D01*
X-161205D01*
Y2968D01*
D02*
G37*
G36*
X-52402Y-32824D02*
X-53434Y-32960D01*
X-54395Y-33358D01*
X-55221Y-33992D01*
X-55854Y-34818D01*
X-56253Y-35779D01*
X-56388Y-36811D01*
X-56253Y-37843D01*
X-55854Y-38805D01*
X-55221Y-39630D01*
X-54395Y-40264D01*
X-53434Y-40662D01*
X-52402Y-40798D01*
X-51370Y-40662D01*
X-50408Y-40264D01*
X-49582Y-39630D01*
X-48949Y-38805D01*
X-48551Y-37843D01*
X-48415Y-36811D01*
X-48551Y-35779D01*
X-48949Y-34818D01*
X-49582Y-33992D01*
X-50408Y-33358D01*
X-51370Y-32960D01*
X-52402Y-32824D01*
D02*
G37*
G36*
X-118196Y-113998D02*
X-119803Y-115605D01*
X-118057Y-117350D01*
X-116451Y-115744D01*
X-118196Y-113998D01*
D02*
G37*
G36*
X113234Y-113941D02*
X111488Y-115686D01*
X113094Y-117293D01*
X114840Y-115547D01*
X113234Y-113941D01*
D02*
G37*
G36*
X-113431Y-114138D02*
X-115037Y-115744D01*
X-113291Y-117489D01*
X-111685Y-115883D01*
X-113431Y-114138D01*
D02*
G37*
G36*
X-115744Y-116451D02*
X-117350Y-118057D01*
X-115605Y-119803D01*
X-113998Y-118196D01*
X-115744Y-116451D01*
D02*
G37*
G36*
X115547Y-116254D02*
X113802Y-118000D01*
X115408Y-119606D01*
X117153Y-117860D01*
X115547Y-116254D01*
D02*
G37*
G36*
X115686Y-111488D02*
X113941Y-113234D01*
X115547Y-114840D01*
X117293Y-113094D01*
X115686Y-111488D01*
D02*
G37*
G36*
X-25402Y-107858D02*
X-28165D01*
Y-109539D01*
X-25402D01*
Y-107858D01*
D02*
G37*
G36*
X-115883Y-111685D02*
X-117489Y-113291D01*
X-115744Y-115037D01*
X-114138Y-113431D01*
X-115883Y-111685D01*
D02*
G37*
G36*
X118000Y-113802D02*
X116254Y-115547D01*
X117860Y-117153D01*
X119606Y-115408D01*
X118000Y-113802D01*
D02*
G37*
G36*
X-52402Y-2824D02*
X-53434Y-2960D01*
X-54395Y-3358D01*
X-55221Y-3992D01*
X-55854Y-4818D01*
X-56253Y-5779D01*
X-56388Y-6811D01*
X-56253Y-7843D01*
X-55854Y-8804D01*
X-55221Y-9630D01*
X-54395Y-10264D01*
X-53434Y-10662D01*
X-52402Y-10798D01*
X-52295Y-10784D01*
X-51986Y-10786D01*
X-51294Y-10833D01*
X-51027Y-10872D01*
X-50786Y-10922D01*
X-50584Y-10978D01*
X-50423Y-11039D01*
X-50303Y-11099D01*
X-50228Y-11148D01*
X-30860Y-30515D01*
Y-103479D01*
X-31495Y-104113D01*
X-31654Y-104261D01*
X-31774Y-104358D01*
X-35514D01*
Y-110157D01*
X-35514Y-110295D01*
Y-110657D01*
X-35514Y-110795D01*
Y-116594D01*
X-33921D01*
Y-117110D01*
X-35055D01*
Y-123047D01*
X-34661D01*
Y-128953D01*
X-29118D01*
Y-123016D01*
X-29512D01*
Y-117110D01*
X-30862D01*
Y-116594D01*
X-29577D01*
Y-115309D01*
X-28653D01*
X-28165Y-115339D01*
X-28165Y-115809D01*
Y-119701D01*
X-26726D01*
Y-123016D01*
X-27968D01*
Y-128953D01*
X-28165Y-129315D01*
X-28165D01*
Y-135114D01*
X-28165Y-135252D01*
Y-135614D01*
X-28165Y-135752D01*
Y-141551D01*
X-28165D01*
X-27968Y-141913D01*
Y-147850D01*
X-26726D01*
Y-164782D01*
X-26743Y-164856D01*
X-26773Y-164931D01*
X-26821Y-165015D01*
X-26895Y-165110D01*
X-27003Y-165217D01*
X-27147Y-165334D01*
X-27333Y-165456D01*
X-27561Y-165582D01*
X-27725Y-165658D01*
X-27795Y-165677D01*
X-28696Y-166197D01*
X-29432Y-166933D01*
X-29953Y-167834D01*
X-30222Y-168840D01*
Y-169880D01*
X-29953Y-170886D01*
X-29432Y-171787D01*
X-28696Y-172523D01*
X-27795Y-173043D01*
X-26790Y-173313D01*
X-25749D01*
X-24744Y-173043D01*
X-23842Y-172523D01*
X-23600Y-172281D01*
X-23127Y-172514D01*
X-23288Y-173739D01*
X-19865Y-174190D01*
X-19349Y-170271D01*
X-18833Y-166352D01*
X-22256Y-165902D01*
X-22405Y-167037D01*
X-22919Y-167110D01*
X-23041Y-166835D01*
X-23460Y-165789D01*
X-23619Y-165313D01*
X-23658Y-165167D01*
X-23667Y-165118D01*
Y-147850D01*
X-22425D01*
Y-141913D01*
X-22228Y-141551D01*
X-22228D01*
Y-135752D01*
X-22228Y-135614D01*
Y-135252D01*
X-22228Y-135114D01*
Y-129315D01*
X-22228D01*
X-22425Y-128953D01*
Y-123016D01*
X-23667D01*
Y-119701D01*
X-21638D01*
X-21638Y-115339D01*
X-21150Y-115309D01*
X-19307D01*
Y-115961D01*
X-12779D01*
Y-111598D01*
X-19307D01*
Y-112250D01*
X-21150D01*
X-21638Y-112221D01*
X-21638Y-111750D01*
Y-110539D01*
X-28165D01*
X-28165Y-112221D01*
X-28653Y-112250D01*
X-29223D01*
X-29577Y-111897D01*
Y-110795D01*
X-29577Y-110657D01*
Y-110295D01*
X-29577Y-110157D01*
Y-106558D01*
X-29370Y-106314D01*
X-28249Y-105193D01*
X-27918Y-104697D01*
X-27801Y-104112D01*
Y-29882D01*
X-27918Y-29297D01*
X-28249Y-28800D01*
X-48065Y-8985D01*
X-48114Y-8910D01*
X-48173Y-8789D01*
X-48234Y-8628D01*
X-48291Y-8427D01*
X-48341Y-8186D01*
X-48379Y-7918D01*
X-48426Y-7226D01*
X-48429Y-6918D01*
X-48415Y-6811D01*
X-48551Y-5779D01*
X-48949Y-4818D01*
X-49582Y-3992D01*
X-50408Y-3358D01*
X-51370Y-2960D01*
X-52402Y-2824D01*
D02*
G37*
G36*
X-697Y-165264D02*
X-3165D01*
Y-167535D01*
X-697D01*
Y-165264D01*
D02*
G37*
G36*
X2772D02*
X303D01*
Y-167535D01*
X2772D01*
Y-165264D01*
D02*
G37*
G36*
X-17841Y-166483D02*
X-18292Y-169906D01*
X-14869Y-170357D01*
X-14418Y-166933D01*
X-17841Y-166483D01*
D02*
G37*
G36*
X-18422Y-170897D02*
X-18873Y-174321D01*
X-15450Y-174771D01*
X-14999Y-171348D01*
X-18422Y-170897D01*
D02*
G37*
G36*
X2772Y-168685D02*
X-3165D01*
Y-174228D01*
X2772D01*
Y-168685D01*
D02*
G37*
G36*
X-120616Y-116418D02*
X-124535Y-120337D01*
X-120337Y-124535D01*
X-116418Y-120616D01*
X-120616Y-116418D01*
D02*
G37*
G36*
X120419Y-116221D02*
X116221Y-120419D01*
X120141Y-124339D01*
X124339Y-120141D01*
X120419Y-116221D01*
D02*
G37*
G36*
X-36402Y-107587D02*
X-42339D01*
Y-109917D01*
X-42339Y-110055D01*
Y-110417D01*
X-42339Y-110555D01*
Y-116354D01*
X-40598D01*
Y-117110D01*
X-41748D01*
Y-123047D01*
X-40598D01*
Y-137795D01*
X-40475Y-138416D01*
X-40123Y-138942D01*
X-34941Y-144124D01*
X-34847Y-144230D01*
X-34723Y-144386D01*
X-34661Y-144475D01*
Y-144905D01*
X-34662Y-144912D01*
X-34661Y-144914D01*
Y-147850D01*
X-29118D01*
Y-141913D01*
X-32103D01*
X-32129Y-141907D01*
X-32172Y-141913D01*
X-32288D01*
X-32295Y-141913D01*
X-32297Y-141913D01*
X-32512D01*
X-32525Y-141904D01*
X-32850Y-141628D01*
X-37355Y-137124D01*
Y-123047D01*
X-36205D01*
Y-117110D01*
X-37355D01*
Y-116354D01*
X-36402D01*
Y-110555D01*
X-36402Y-110417D01*
Y-110055D01*
X-36402Y-109917D01*
Y-107587D01*
D02*
G37*
G36*
X-697Y-161992D02*
X-3165D01*
Y-164264D01*
X-697D01*
Y-161992D01*
D02*
G37*
G36*
X2772D02*
X303D01*
Y-164264D01*
X2772D01*
Y-161992D01*
D02*
G37*
G36*
X-52402Y-52824D02*
X-53434Y-52960D01*
X-54395Y-53358D01*
X-55221Y-53992D01*
X-55854Y-54818D01*
X-56253Y-55779D01*
X-56388Y-56811D01*
X-56253Y-57843D01*
X-55854Y-58804D01*
X-55221Y-59630D01*
X-54395Y-60264D01*
X-53434Y-60662D01*
X-52402Y-60798D01*
X-51370Y-60662D01*
X-50408Y-60264D01*
X-49582Y-59630D01*
X-48949Y-58804D01*
X-48551Y-57843D01*
X-48415Y-56811D01*
X-48551Y-55779D01*
X-48949Y-54818D01*
X-49582Y-53992D01*
X-50408Y-53358D01*
X-51370Y-52960D01*
X-52402Y-52824D01*
D02*
G37*
G36*
X-22402D02*
X-23433Y-52960D01*
X-24395Y-53358D01*
X-25221Y-53992D01*
X-25854Y-54818D01*
X-26253Y-55779D01*
X-26388Y-56811D01*
X-26253Y-57843D01*
X-25854Y-58804D01*
X-25221Y-59630D01*
X-24395Y-60264D01*
X-23433Y-60662D01*
X-22402Y-60798D01*
X-21370Y-60662D01*
X-20408Y-60264D01*
X-19582Y-59630D01*
X-18949Y-58804D01*
X-18551Y-57843D01*
X-18415Y-56811D01*
X-18551Y-55779D01*
X-18949Y-54818D01*
X-19582Y-53992D01*
X-20408Y-53358D01*
X-21370Y-52960D01*
X-22402Y-52824D01*
D02*
G37*
G36*
X-130890Y-62583D02*
X-134343D01*
Y-66035D01*
X-130890D01*
Y-62583D01*
D02*
G37*
G36*
X-36705Y-63961D02*
Y-66429D01*
X-34236D01*
Y-63961D01*
X-36705D01*
D02*
G37*
G36*
X-135343Y-62583D02*
X-138795D01*
Y-66035D01*
X-135343D01*
Y-62583D01*
D02*
G37*
G36*
X-134843Y-42549D02*
X-135874Y-42684D01*
X-136836Y-43083D01*
X-137662Y-43716D01*
X-138295Y-44542D01*
X-138693Y-45504D01*
X-138829Y-46535D01*
X-138693Y-47567D01*
X-138295Y-48529D01*
X-137662Y-49355D01*
X-136836Y-49988D01*
X-135874Y-50386D01*
X-134843Y-50522D01*
X-133811Y-50386D01*
X-132849Y-49988D01*
X-132023Y-49355D01*
X-131390Y-48529D01*
X-130991Y-47567D01*
X-130856Y-46535D01*
X-130991Y-45504D01*
X-131390Y-44542D01*
X-132023Y-43716D01*
X-132849Y-43083D01*
X-133811Y-42684D01*
X-134843Y-42549D01*
D02*
G37*
G36*
X-84055Y-38105D02*
X-84933Y-38220D01*
X-85751Y-38559D01*
X-86453Y-39098D01*
X-86992Y-39801D01*
X-87331Y-40618D01*
X-87446Y-41496D01*
X-87331Y-42374D01*
X-86992Y-43192D01*
X-86453Y-43894D01*
X-85751Y-44433D01*
X-84933Y-44772D01*
X-84055Y-44887D01*
X-83177Y-44772D01*
X-82359Y-44433D01*
X-81657Y-43894D01*
X-81118Y-43192D01*
X-80779Y-42374D01*
X-80664Y-41496D01*
X-80779Y-40618D01*
X-81118Y-39801D01*
X-81657Y-39098D01*
X-82359Y-38559D01*
X-83177Y-38220D01*
X-84055Y-38105D01*
D02*
G37*
G36*
X-22402Y-42824D02*
X-23433Y-42960D01*
X-24395Y-43358D01*
X-25221Y-43992D01*
X-25854Y-44818D01*
X-26253Y-45779D01*
X-26388Y-46811D01*
X-26253Y-47843D01*
X-25854Y-48805D01*
X-25221Y-49630D01*
X-24395Y-50264D01*
X-23433Y-50662D01*
X-22402Y-50798D01*
X-21370Y-50662D01*
X-20408Y-50264D01*
X-19582Y-49630D01*
X-18949Y-48805D01*
X-18551Y-47843D01*
X-18415Y-46811D01*
X-18551Y-45779D01*
X-18949Y-44818D01*
X-19582Y-43992D01*
X-20408Y-43358D01*
X-21370Y-42960D01*
X-22402Y-42824D01*
D02*
G37*
G36*
X-134843Y-52549D02*
X-135874Y-52684D01*
X-136836Y-53083D01*
X-137662Y-53716D01*
X-138295Y-54542D01*
X-138693Y-55503D01*
X-138829Y-56535D01*
X-138693Y-57567D01*
X-138295Y-58529D01*
X-137662Y-59355D01*
X-136836Y-59988D01*
X-135874Y-60386D01*
X-134843Y-60522D01*
X-133811Y-60386D01*
X-132849Y-59988D01*
X-132023Y-59355D01*
X-131390Y-58529D01*
X-130991Y-57567D01*
X-130856Y-56535D01*
X-130991Y-55503D01*
X-131390Y-54542D01*
X-132023Y-53716D01*
X-132849Y-53083D01*
X-133811Y-52684D01*
X-134843Y-52549D01*
D02*
G37*
G36*
X-52402Y-42824D02*
X-53434Y-42960D01*
X-54395Y-43358D01*
X-55221Y-43992D01*
X-55854Y-44818D01*
X-56253Y-45779D01*
X-56388Y-46811D01*
X-56253Y-47843D01*
X-55854Y-48805D01*
X-55221Y-49630D01*
X-54395Y-50264D01*
X-53434Y-50662D01*
X-52402Y-50798D01*
X-51370Y-50662D01*
X-50408Y-50264D01*
X-49582Y-49630D01*
X-48949Y-48805D01*
X-48551Y-47843D01*
X-48415Y-46811D01*
X-48551Y-45779D01*
X-48949Y-44818D01*
X-49582Y-43992D01*
X-50408Y-43358D01*
X-51370Y-42960D01*
X-52402Y-42824D01*
D02*
G37*
G36*
Y-72824D02*
X-53434Y-72960D01*
X-54395Y-73358D01*
X-55221Y-73992D01*
X-55854Y-74818D01*
X-56253Y-75779D01*
X-56388Y-76811D01*
X-56253Y-77843D01*
X-55854Y-78804D01*
X-55221Y-79630D01*
X-54395Y-80264D01*
X-53434Y-80662D01*
X-52402Y-80798D01*
X-51370Y-80662D01*
X-50408Y-80264D01*
X-49582Y-79630D01*
X-48949Y-78804D01*
X-48551Y-77843D01*
X-48415Y-76811D01*
X-48551Y-75779D01*
X-48949Y-74818D01*
X-49582Y-73992D01*
X-50408Y-73358D01*
X-51370Y-72960D01*
X-52402Y-72824D01*
D02*
G37*
G36*
X-22402D02*
X-23433Y-72960D01*
X-24395Y-73358D01*
X-25221Y-73992D01*
X-25854Y-74818D01*
X-26253Y-75779D01*
X-26388Y-76811D01*
X-26253Y-77843D01*
X-25854Y-78804D01*
X-25221Y-79630D01*
X-24395Y-80264D01*
X-23433Y-80662D01*
X-22402Y-80798D01*
X-21370Y-80662D01*
X-20408Y-80264D01*
X-19582Y-79630D01*
X-18949Y-78804D01*
X-18551Y-77843D01*
X-18415Y-76811D01*
X-18551Y-75779D01*
X-18949Y-74818D01*
X-19582Y-73992D01*
X-20408Y-73358D01*
X-21370Y-72960D01*
X-22402Y-72824D01*
D02*
G37*
G36*
X-36402Y-104118D02*
X-38870D01*
Y-106587D01*
X-36402D01*
Y-104118D01*
D02*
G37*
G36*
X-21638Y-107858D02*
X-24402D01*
Y-109539D01*
X-21638D01*
Y-107858D01*
D02*
G37*
G36*
X-39870Y-104118D02*
X-42339D01*
Y-106587D01*
X-39870D01*
Y-104118D01*
D02*
G37*
G36*
X-52402Y-62824D02*
X-53434Y-62960D01*
X-54395Y-63358D01*
X-55221Y-63992D01*
X-55854Y-64818D01*
X-56253Y-65779D01*
X-56388Y-66811D01*
X-56253Y-67843D01*
X-55854Y-68804D01*
X-55221Y-69630D01*
X-54395Y-70264D01*
X-53434Y-70662D01*
X-52402Y-70798D01*
X-51370Y-70662D01*
X-50408Y-70264D01*
X-49582Y-69630D01*
X-49517Y-69545D01*
X-49297Y-69328D01*
X-48775Y-68872D01*
X-48558Y-68710D01*
X-48352Y-68575D01*
X-48169Y-68473D01*
X-48013Y-68402D01*
X-47886Y-68359D01*
X-47798Y-68340D01*
X-46472D01*
Y-69898D01*
X-40673D01*
X-40535Y-69898D01*
X-40173D01*
X-40035Y-69898D01*
X-37705D01*
Y-66929D01*
Y-63961D01*
X-40035D01*
X-40173Y-63961D01*
X-40535D01*
X-40673Y-63961D01*
X-46472D01*
Y-65282D01*
X-47798D01*
X-47886Y-65263D01*
X-48013Y-65220D01*
X-48170Y-65149D01*
X-48352Y-65047D01*
X-48558Y-64912D01*
X-48775Y-64750D01*
X-49297Y-64294D01*
X-49517Y-64077D01*
X-49582Y-63992D01*
X-50408Y-63358D01*
X-51370Y-62960D01*
X-52402Y-62824D01*
D02*
G37*
G36*
X-34236Y-67429D02*
X-36705D01*
Y-69898D01*
X-34236D01*
Y-67429D01*
D02*
G37*
G36*
X-130890Y-67035D02*
X-134343D01*
Y-70488D01*
X-130890D01*
Y-67035D01*
D02*
G37*
G36*
X-22402Y-62824D02*
X-23433Y-62960D01*
X-24395Y-63358D01*
X-25221Y-63992D01*
X-25854Y-64818D01*
X-26253Y-65779D01*
X-26388Y-66811D01*
X-26253Y-67843D01*
X-25854Y-68804D01*
X-25221Y-69630D01*
X-24395Y-70264D01*
X-23433Y-70662D01*
X-22402Y-70798D01*
X-21370Y-70662D01*
X-20408Y-70264D01*
X-19582Y-69630D01*
X-18949Y-68804D01*
X-18551Y-67843D01*
X-18415Y-66811D01*
X-18551Y-65779D01*
X-18949Y-64818D01*
X-19582Y-63992D01*
X-20408Y-63358D01*
X-21370Y-62960D01*
X-22402Y-62824D01*
D02*
G37*
G36*
X-135343Y-67035D02*
X-138795D01*
Y-70488D01*
X-135343D01*
Y-67035D01*
D02*
G37*
G36*
X-134161Y55968D02*
X-134693Y55898D01*
X-135655Y55500D01*
X-136481Y54866D01*
X-137114Y54041D01*
X-137512Y53079D01*
X-137582Y52547D01*
X-134161D01*
Y55968D01*
D02*
G37*
G36*
X51272Y117732D02*
X47819D01*
Y114279D01*
X51272D01*
Y117732D01*
D02*
G37*
G36*
X72744Y75614D02*
Y72193D01*
X76165D01*
X76095Y72725D01*
X75697Y73686D01*
X75063Y74512D01*
X74238Y75146D01*
X73276Y75544D01*
X72744Y75614D01*
D02*
G37*
G36*
X-118254Y117547D02*
X-120000Y115802D01*
X-118393Y114195D01*
X-116648Y115941D01*
X-118254Y117547D01*
D02*
G37*
G36*
X61791Y117766D02*
X61752D01*
X60720Y117631D01*
X59759Y117232D01*
X58933Y116599D01*
X58299Y115773D01*
X57901Y114811D01*
X57765Y113779D01*
X57901Y112748D01*
X58299Y111786D01*
X58933Y110960D01*
X59759Y110327D01*
X60720Y109929D01*
X61752Y109793D01*
X61791D01*
X62823Y109929D01*
X63785Y110327D01*
X64610Y110960D01*
X65244Y111786D01*
X65642Y112748D01*
X65778Y113779D01*
X65642Y114811D01*
X65244Y115773D01*
X64610Y116599D01*
X63785Y117232D01*
X62823Y117631D01*
X61791Y117766D01*
D02*
G37*
G36*
X-69185Y112221D02*
Y109752D01*
X-66716D01*
Y112221D01*
X-69185D01*
D02*
G37*
G36*
X71744Y75614D02*
X71212Y75544D01*
X70251Y75146D01*
X69425Y74512D01*
X68791Y73686D01*
X68393Y72725D01*
X68323Y72193D01*
X71744D01*
Y75614D01*
D02*
G37*
G36*
X-113488Y117686D02*
X-115234Y115941D01*
X-113627Y114334D01*
X-111882Y116080D01*
X-113488Y117686D01*
D02*
G37*
G36*
X-66716Y108752D02*
X-69185D01*
Y106283D01*
X-66716D01*
Y108752D01*
D02*
G37*
G36*
X55724Y117732D02*
X52272D01*
Y114279D01*
X55724D01*
Y117732D01*
D02*
G37*
G36*
X158873Y74279D02*
X155683Y72958D01*
X157004Y69768D01*
X160194Y71089D01*
X158873Y74279D01*
D02*
G37*
G36*
X-71547Y98244D02*
Y95480D01*
X-69866D01*
Y98244D01*
X-71547D01*
D02*
G37*
G36*
X113291Y117489D02*
X111685Y115883D01*
X113431Y114138D01*
X115037Y115744D01*
X113291Y117489D01*
D02*
G37*
G36*
X-72654Y112221D02*
X-73016D01*
X-73154Y112221D01*
X-78953D01*
Y111433D01*
X-79694D01*
X-79731Y111441D01*
X-79770Y111433D01*
X-79826D01*
X-79845Y111435D01*
X-79851Y111433D01*
X-83535D01*
X-83540Y111435D01*
X-83560Y111433D01*
X-83615D01*
X-83655Y111441D01*
X-83692Y111433D01*
X-84661D01*
Y110874D01*
X-99016D01*
X-99636Y110750D01*
X-100162Y110399D01*
X-105345Y105216D01*
X-105450Y105123D01*
X-105606Y104999D01*
X-105696Y104937D01*
X-106125D01*
X-106132Y104938D01*
X-106134Y104937D01*
X-109071D01*
Y99394D01*
X-103134D01*
Y102378D01*
X-103127Y102404D01*
X-103134Y102447D01*
Y102564D01*
X-103133Y102571D01*
X-103134Y102573D01*
Y102788D01*
X-103125Y102801D01*
X-102849Y103126D01*
X-98344Y107630D01*
X-84661D01*
Y105890D01*
X-78724D01*
Y105930D01*
X-78371Y106283D01*
X-73154D01*
X-73016Y106283D01*
X-72654D01*
X-72516Y106283D01*
X-70185D01*
Y109252D01*
Y112221D01*
X-72516D01*
X-72654Y112221D01*
D02*
G37*
G36*
X71772Y117766D02*
X70740Y117631D01*
X69778Y117232D01*
X68953Y116599D01*
X68319Y115773D01*
X67921Y114811D01*
X67785Y113779D01*
X67921Y112748D01*
X68319Y111786D01*
X68953Y110960D01*
X69778Y110327D01*
X70740Y109929D01*
X71772Y109793D01*
X72803Y109929D01*
X73765Y110327D01*
X74591Y110960D01*
X75224Y111786D01*
X75623Y112748D01*
X75758Y113779D01*
X75623Y114811D01*
X75224Y115773D01*
X74591Y116599D01*
X73765Y117232D01*
X72803Y117631D01*
X71772Y117766D01*
D02*
G37*
G36*
X51272Y113279D02*
X47819D01*
Y109827D01*
X51272D01*
Y113279D01*
D02*
G37*
G36*
X55724D02*
X52272D01*
Y109827D01*
X55724D01*
Y113279D01*
D02*
G37*
G36*
X93398Y87417D02*
X91716D01*
Y84654D01*
X93398D01*
Y87417D01*
D02*
G37*
G36*
X-69866Y94480D02*
X-71547D01*
Y91716D01*
X-69866D01*
Y94480D01*
D02*
G37*
G36*
X118057Y117350D02*
X116451Y115744D01*
X118196Y113998D01*
X119803Y115605D01*
X118057Y117350D01*
D02*
G37*
G36*
X76197Y85646D02*
X68291D01*
Y77740D01*
X76197D01*
Y85646D01*
D02*
G37*
G36*
X-115941Y115234D02*
X-117686Y113488D01*
X-116080Y111882D01*
X-114334Y113627D01*
X-115941Y115234D01*
D02*
G37*
G36*
X115744Y115037D02*
X114138Y113431D01*
X115883Y111685D01*
X117489Y113291D01*
X115744Y115037D01*
D02*
G37*
G36*
X93398Y83653D02*
X91716D01*
Y80890D01*
X93398D01*
Y83653D01*
D02*
G37*
G36*
X-137985Y100697D02*
X-140087Y97958D01*
X-137348Y95856D01*
X-135246Y98595D01*
X-137985Y100697D01*
D02*
G37*
G36*
X2968Y163870D02*
X500D01*
Y161598D01*
X2968D01*
Y163870D01*
D02*
G37*
G36*
X99819Y96276D02*
X95457D01*
Y89748D01*
X96108D01*
Y87905D01*
X96079Y87417D01*
X95608Y87417D01*
X94398D01*
Y84153D01*
Y80890D01*
X96079Y80890D01*
X96108Y80402D01*
Y80094D01*
X95755Y79740D01*
X95004D01*
X94866Y79740D01*
X94504D01*
X94366Y79740D01*
X88567D01*
Y76003D01*
X88360Y75759D01*
X47319Y34718D01*
X-17798D01*
X-17886Y34737D01*
X-18013Y34780D01*
X-18170Y34851D01*
X-18352Y34953D01*
X-18558Y35088D01*
X-18775Y35250D01*
X-19297Y35706D01*
X-19517Y35923D01*
X-19582Y36008D01*
X-20408Y36642D01*
X-21370Y37040D01*
X-22402Y37176D01*
X-23433Y37040D01*
X-24395Y36642D01*
X-25221Y36008D01*
X-25854Y35182D01*
X-26253Y34221D01*
X-26388Y33189D01*
X-26253Y32157D01*
X-25854Y31196D01*
X-25221Y30370D01*
X-24395Y29736D01*
X-23433Y29338D01*
X-22402Y29202D01*
X-21370Y29338D01*
X-20408Y29736D01*
X-19582Y30370D01*
X-19517Y30455D01*
X-19297Y30672D01*
X-18775Y31128D01*
X-18558Y31290D01*
X-18352Y31425D01*
X-18169Y31527D01*
X-18013Y31598D01*
X-17886Y31641D01*
X-17798Y31660D01*
X47953D01*
X48538Y31776D01*
X49034Y32107D01*
X88105Y71178D01*
X88567Y70987D01*
Y70579D01*
X91035D01*
Y73047D01*
X90748D01*
X90548Y73514D01*
X90795Y73803D01*
X94366D01*
X94504Y73803D01*
X94866D01*
X95004Y73803D01*
X100803D01*
Y75439D01*
X101362D01*
Y74394D01*
X107299D01*
Y74591D01*
X113205D01*
Y80134D01*
X107268D01*
Y79937D01*
X101362D01*
Y78498D01*
X100803D01*
Y79740D01*
X99167D01*
Y80402D01*
X99197Y80890D01*
X99667Y80890D01*
X103559D01*
Y82526D01*
X107268D01*
Y81283D01*
X113205D01*
Y82526D01*
X113961D01*
Y81087D01*
X119760D01*
X119898Y81087D01*
X120260D01*
X120398Y81087D01*
X126197D01*
Y82526D01*
X126953D01*
Y81283D01*
X130364D01*
X130379Y81282D01*
X130384Y81283D01*
X130483D01*
X130510Y81265D01*
X130752Y81061D01*
X131218Y80596D01*
X131026Y80134D01*
X126953D01*
Y77149D01*
X126946Y77123D01*
X126953Y77080D01*
Y76964D01*
X126952Y76957D01*
X126953Y76955D01*
Y76740D01*
X126944Y76727D01*
X126668Y76402D01*
X122360Y72094D01*
X107299D01*
Y73244D01*
X101362D01*
Y72094D01*
X100803D01*
Y73047D01*
X95004D01*
X94866Y73047D01*
X94504D01*
X94366Y73047D01*
X92035D01*
Y70079D01*
Y67110D01*
X94366D01*
X94504Y67110D01*
X94866D01*
X95004Y67110D01*
X100803D01*
Y68851D01*
X101362D01*
Y67701D01*
X107299D01*
Y68851D01*
X123031D01*
X123652Y68974D01*
X124178Y69326D01*
X129164Y74311D01*
X129269Y74405D01*
X129425Y74529D01*
X129515Y74591D01*
X129944D01*
X129951Y74590D01*
X129953Y74591D01*
X132890D01*
Y78270D01*
X133352Y78462D01*
X150691Y61122D01*
X151188Y60791D01*
X151773Y60674D01*
X154992D01*
X155080Y60656D01*
X155208Y60613D01*
X155364Y60542D01*
X155547Y60440D01*
X155753Y60304D01*
X155969Y60142D01*
X156492Y59686D01*
X156772Y59410D01*
X156852Y59358D01*
X157169Y59041D01*
X158071Y58520D01*
X159076Y58251D01*
X160117D01*
X161122Y58520D01*
X162023Y59041D01*
X162759Y59777D01*
X163280Y60678D01*
X163549Y61683D01*
Y62724D01*
X163280Y63729D01*
X162759Y64631D01*
X162023Y65367D01*
X161122Y65887D01*
X160791Y65976D01*
X160757Y66502D01*
X161898Y66975D01*
X160577Y70165D01*
X156925Y68652D01*
X153273Y67140D01*
X154477Y64233D01*
X154158Y63733D01*
X152406D01*
X133131Y83008D01*
X132973Y83179D01*
X132890Y83281D01*
Y83497D01*
X132897Y83539D01*
X132890Y83571D01*
Y86827D01*
X126953D01*
Y85584D01*
X126197D01*
Y87024D01*
X120398D01*
X120260Y87024D01*
X119898D01*
X119760Y87024D01*
X113961D01*
Y85584D01*
X113205D01*
Y86827D01*
X107268D01*
Y85584D01*
X103559D01*
Y87417D01*
X99197Y87417D01*
X99167Y87905D01*
Y89394D01*
X99521Y89748D01*
X99819D01*
Y96276D01*
D02*
G37*
G36*
X-133661Y66034D02*
X-134693Y65898D01*
X-135655Y65500D01*
X-136481Y64866D01*
X-137114Y64041D01*
X-137512Y63079D01*
X-137648Y62047D01*
X-137512Y61015D01*
X-137114Y60054D01*
X-136481Y59228D01*
X-135655Y58595D01*
X-134693Y58196D01*
X-133661Y58060D01*
X-132630Y58196D01*
X-131668Y58595D01*
X-130842Y59228D01*
X-130209Y60054D01*
X-129810Y61015D01*
X-129675Y62047D01*
X-129810Y63079D01*
X-130209Y64041D01*
X-130842Y64866D01*
X-131668Y65500D01*
X-132630Y65898D01*
X-133661Y66034D01*
D02*
G37*
G36*
X-120534Y124732D02*
X-124732Y120534D01*
X-120813Y116614D01*
X-116614Y120813D01*
X-120534Y124732D01*
D02*
G37*
G36*
X-115802Y120000D02*
X-117547Y118254D01*
X-115941Y116648D01*
X-114195Y118393D01*
X-115802Y120000D01*
D02*
G37*
G36*
X-500Y163870D02*
X-2968D01*
Y161598D01*
X-500D01*
Y163870D01*
D02*
G37*
G36*
X-133161Y55968D02*
Y52547D01*
X-129740D01*
X-129810Y53079D01*
X-130209Y54041D01*
X-130842Y54866D01*
X-131668Y55500D01*
X-132630Y55898D01*
X-133161Y55968D01*
D02*
G37*
G36*
X2968Y167142D02*
X500D01*
Y164870D01*
X2968D01*
Y167142D01*
D02*
G37*
G36*
Y173835D02*
X-2968D01*
Y168291D01*
X2968D01*
Y173835D01*
D02*
G37*
G36*
X-33268Y61801D02*
X-34243Y61607D01*
X-35070Y61054D01*
X-35623Y60227D01*
X-35817Y59252D01*
X-35623Y58276D01*
X-35070Y57450D01*
X-34243Y56897D01*
X-33268Y56703D01*
X-32292Y56897D01*
X-31465Y57450D01*
X-30913Y58276D01*
X-30719Y59252D01*
X-30913Y60227D01*
X-31465Y61054D01*
X-32292Y61607D01*
X-33268Y61801D01*
D02*
G37*
G36*
X-500Y167142D02*
X-2968D01*
Y164870D01*
X-500D01*
Y167142D01*
D02*
G37*
G36*
X-78740Y80960D02*
X-79514Y80806D01*
X-80171Y80368D01*
X-80609Y79711D01*
X-80763Y78937D01*
X-80609Y78163D01*
X-80171Y77506D01*
X-79514Y77068D01*
X-78740Y76914D01*
X-77966Y77068D01*
X-77457Y77408D01*
X-70756D01*
X-50952Y57604D01*
X-51144Y57142D01*
X-56354D01*
Y54718D01*
X-114170D01*
X-129459Y70008D01*
X-129609Y70169D01*
X-129705Y70289D01*
X-129709Y70294D01*
Y70482D01*
X-129701Y70521D01*
X-129709Y70559D01*
Y76000D01*
X-137614D01*
Y68094D01*
X-132173D01*
X-132135Y68087D01*
X-132097Y68094D01*
X-131910D01*
X-131661Y67884D01*
X-115885Y52108D01*
X-115388Y51776D01*
X-114803Y51660D01*
X-56354D01*
Y49236D01*
X-48449D01*
X-48449Y49236D01*
Y49236D01*
X-48449Y49236D01*
X-47986Y49146D01*
Y43764D01*
X-48486Y43731D01*
X-48551Y44221D01*
X-48949Y45182D01*
X-49582Y46008D01*
X-50408Y46642D01*
X-51370Y47040D01*
X-52402Y47176D01*
X-53434Y47040D01*
X-54395Y46642D01*
X-55221Y46008D01*
X-55286Y45923D01*
X-55506Y45706D01*
X-56028Y45250D01*
X-56245Y45088D01*
X-56451Y44953D01*
X-56634Y44851D01*
X-56790Y44780D01*
X-56918Y44737D01*
X-57005Y44718D01*
X-129383D01*
X-131658Y45516D01*
X-132124Y45710D01*
X-132127Y45711D01*
X-132130Y45712D01*
X-132226Y45731D01*
X-132630Y45898D01*
X-133661Y46034D01*
X-134693Y45898D01*
X-135655Y45500D01*
X-136481Y44866D01*
X-137114Y44041D01*
X-137512Y43079D01*
X-137648Y42047D01*
X-137512Y41015D01*
X-137114Y40054D01*
X-136481Y39228D01*
X-135655Y38594D01*
X-134693Y38196D01*
X-133661Y38060D01*
X-132630Y38196D01*
X-131668Y38594D01*
X-130842Y39228D01*
X-130209Y40054D01*
X-130034Y40476D01*
X-129982Y40550D01*
X-129854Y40846D01*
X-129736Y41071D01*
X-129621Y41253D01*
X-129511Y41395D01*
X-129411Y41498D01*
X-129322Y41568D01*
X-129244Y41614D01*
X-129171Y41643D01*
X-129099Y41660D01*
X-57005D01*
X-56918Y41641D01*
X-56790Y41598D01*
X-56634Y41527D01*
X-56451Y41425D01*
X-56245Y41290D01*
X-56028Y41128D01*
X-55506Y40672D01*
X-55286Y40455D01*
X-55221Y40370D01*
X-54395Y39736D01*
X-53434Y39338D01*
X-52402Y39202D01*
X-51370Y39338D01*
X-50408Y39736D01*
X-49582Y40370D01*
X-48949Y41195D01*
X-48551Y42157D01*
X-48486Y42647D01*
X-47986Y42614D01*
Y33764D01*
X-48486Y33731D01*
X-48551Y34221D01*
X-48949Y35182D01*
X-49582Y36008D01*
X-50408Y36642D01*
X-51370Y37040D01*
X-52402Y37176D01*
X-53434Y37040D01*
X-54395Y36642D01*
X-55221Y36008D01*
X-55854Y35182D01*
X-56029Y34760D01*
X-56081Y34686D01*
X-56209Y34390D01*
X-56327Y34165D01*
X-56442Y33983D01*
X-56552Y33842D01*
X-56652Y33738D01*
X-56741Y33668D01*
X-56819Y33622D01*
X-56892Y33593D01*
X-56964Y33577D01*
X-129058D01*
X-129145Y33595D01*
X-129273Y33638D01*
X-129429Y33709D01*
X-129612Y33811D01*
X-129818Y33946D01*
X-130034Y34108D01*
X-130557Y34564D01*
X-130777Y34781D01*
X-130842Y34866D01*
X-131668Y35500D01*
X-132630Y35898D01*
X-133661Y36034D01*
X-134693Y35898D01*
X-135655Y35500D01*
X-136481Y34866D01*
X-137114Y34041D01*
X-137512Y33079D01*
X-137648Y32047D01*
X-137512Y31015D01*
X-137114Y30054D01*
X-136481Y29228D01*
X-135655Y28594D01*
X-134693Y28196D01*
X-133661Y28060D01*
X-132630Y28196D01*
X-131668Y28594D01*
X-130842Y29228D01*
X-130777Y29314D01*
X-130557Y29530D01*
X-130035Y29986D01*
X-129818Y30148D01*
X-129612Y30283D01*
X-129429Y30386D01*
X-129273Y30456D01*
X-129145Y30499D01*
X-129058Y30518D01*
X-56680D01*
X-54405Y29720D01*
X-53939Y29526D01*
X-53936Y29526D01*
X-53933Y29524D01*
X-53837Y29505D01*
X-53434Y29338D01*
X-52402Y29202D01*
X-51370Y29338D01*
X-50408Y29736D01*
X-49582Y30370D01*
X-48949Y31196D01*
X-48551Y32157D01*
X-48486Y32647D01*
X-47986Y32614D01*
Y29767D01*
X-50228Y27526D01*
X-50303Y27477D01*
X-50423Y27417D01*
X-50584Y27356D01*
X-50786Y27299D01*
X-51027Y27250D01*
X-51294Y27211D01*
X-51986Y27164D01*
X-52295Y27162D01*
X-52402Y27176D01*
X-53434Y27040D01*
X-54395Y26642D01*
X-55221Y26008D01*
X-55854Y25182D01*
X-56253Y24221D01*
X-56388Y23189D01*
X-56253Y22157D01*
X-55854Y21196D01*
X-55221Y20370D01*
X-54395Y19736D01*
X-53434Y19338D01*
X-52402Y19202D01*
X-51370Y19338D01*
X-50408Y19736D01*
X-49582Y20370D01*
X-48949Y21196D01*
X-48551Y22157D01*
X-48415Y23189D01*
X-48429Y23296D01*
X-48426Y23604D01*
X-48379Y24296D01*
X-48341Y24564D01*
X-48291Y24805D01*
X-48234Y25006D01*
X-48173Y25167D01*
X-48114Y25288D01*
X-48065Y25363D01*
X-45375Y28052D01*
X-45044Y28549D01*
X-44927Y29134D01*
Y55121D01*
X-45044Y55706D01*
X-45375Y56202D01*
X-46565Y57391D01*
X-46867Y57845D01*
X-69041Y80018D01*
X-69538Y80350D01*
X-70123Y80466D01*
X-77457D01*
X-77966Y80806D01*
X-78740Y80960D01*
D02*
G37*
G36*
X115605Y119803D02*
X113998Y118196D01*
X115744Y116451D01*
X117350Y118057D01*
X115605Y119803D01*
D02*
G37*
G36*
X-134044Y111285D02*
X-135049Y111016D01*
X-135951Y110495D01*
X-136687Y109759D01*
X-137207Y108858D01*
X-137477Y107853D01*
X-137477Y106812D01*
X-137388Y106481D01*
X-137827Y106188D01*
X-138807Y106940D01*
X-140909Y104201D01*
X-137773Y101795D01*
X-134637Y99388D01*
X-132535Y102128D01*
X-133490Y102860D01*
X-133319Y103359D01*
X-133108Y103357D01*
X-132417Y103310D01*
X-132149Y103272D01*
X-131908Y103222D01*
X-131706Y103165D01*
X-131545Y103104D01*
X-131425Y103044D01*
X-131350Y102996D01*
X-122745Y94391D01*
X-122249Y94059D01*
X-121664Y93943D01*
X-109071D01*
Y92701D01*
X-103134D01*
Y93943D01*
X-102575D01*
Y92504D01*
X-96776D01*
X-96638Y92504D01*
X-96276D01*
X-96138Y92504D01*
X-90567D01*
Y92307D01*
X-84630D01*
Y93451D01*
X-81709D01*
Y91716D01*
X-77346Y91716D01*
X-77317Y91229D01*
Y89739D01*
X-77670Y89386D01*
X-77969D01*
Y82858D01*
X-73606D01*
Y89386D01*
X-74258D01*
Y91229D01*
X-74228Y91716D01*
X-73758Y91716D01*
X-72547D01*
Y94980D01*
Y98244D01*
X-74228Y98244D01*
X-74258Y98732D01*
Y99040D01*
X-73904Y99394D01*
X-73154D01*
X-73016Y99394D01*
X-72654D01*
X-72516Y99394D01*
X-68916D01*
X-68672Y99186D01*
X-43655Y74170D01*
Y24098D01*
X-50228Y17526D01*
X-50303Y17477D01*
X-50423Y17417D01*
X-50584Y17357D01*
X-50786Y17300D01*
X-51027Y17250D01*
X-51294Y17211D01*
X-51986Y17164D01*
X-52295Y17162D01*
X-52402Y17176D01*
X-53434Y17040D01*
X-54395Y16642D01*
X-55221Y16008D01*
X-55854Y15182D01*
X-56253Y14221D01*
X-56388Y13189D01*
X-56253Y12157D01*
X-55854Y11196D01*
X-55221Y10370D01*
X-54395Y9736D01*
X-53434Y9338D01*
X-52402Y9202D01*
X-51370Y9338D01*
X-50408Y9736D01*
X-49582Y10370D01*
X-48949Y11196D01*
X-48551Y12157D01*
X-48415Y13189D01*
X-48429Y13296D01*
X-48426Y13604D01*
X-48379Y14296D01*
X-48341Y14564D01*
X-48291Y14805D01*
X-48234Y15006D01*
X-48173Y15167D01*
X-48114Y15288D01*
X-48065Y15363D01*
X-41045Y22383D01*
X-40713Y22879D01*
X-40597Y23465D01*
Y74803D01*
X-40713Y75388D01*
X-41045Y75885D01*
X-66472Y101312D01*
X-66620Y101471D01*
X-66716Y101591D01*
Y105331D01*
X-72516D01*
X-72654Y105331D01*
X-73016D01*
X-73154Y105331D01*
X-78953D01*
Y104740D01*
X-84661D01*
Y104543D01*
X-90567D01*
Y99000D01*
X-84630D01*
Y99197D01*
X-78724D01*
Y99394D01*
X-77317D01*
Y98732D01*
X-77346Y98244D01*
X-77817Y98244D01*
X-81709D01*
Y96510D01*
X-84630D01*
Y97850D01*
X-90339D01*
Y98441D01*
X-96138D01*
X-96276Y98441D01*
X-96638D01*
X-96776Y98441D01*
X-102575D01*
Y97002D01*
X-103134D01*
Y98244D01*
X-109071D01*
Y97002D01*
X-121030D01*
X-129187Y105159D01*
X-129236Y105234D01*
X-129296Y105354D01*
X-129356Y105515D01*
X-129413Y105717D01*
X-129463Y105957D01*
X-129502Y106225D01*
X-129549Y106917D01*
X-129552Y107310D01*
X-129571Y107404D01*
Y107853D01*
X-129840Y108858D01*
X-130361Y109759D01*
X-131097Y110495D01*
X-131998Y111016D01*
X-133003Y111285D01*
X-134044Y111285D01*
D02*
G37*
G36*
X71744Y71193D02*
X68323D01*
X68393Y70661D01*
X68791Y69700D01*
X69425Y68874D01*
X70251Y68240D01*
X71212Y67842D01*
X71744Y67772D01*
Y71193D01*
D02*
G37*
G36*
X91035Y69579D02*
X88567D01*
Y67110D01*
X91035D01*
Y69579D01*
D02*
G37*
G36*
X-141518Y103408D02*
X-143620Y100668D01*
X-140880Y98566D01*
X-138778Y101306D01*
X-141518Y103408D01*
D02*
G37*
G36*
X154759Y72575D02*
X151569Y71254D01*
X152890Y68064D01*
X156080Y69385D01*
X154759Y72575D01*
D02*
G37*
G36*
X76165Y71193D02*
X72744D01*
Y67772D01*
X73276Y67842D01*
X74238Y68240D01*
X75063Y68874D01*
X75697Y69700D01*
X76095Y70661D01*
X76165Y71193D01*
D02*
G37*
G36*
X120337Y124535D02*
X116418Y120616D01*
X120616Y116418D01*
X124535Y120337D01*
X120337Y124535D01*
D02*
G37*
%LPD*%
G36*
X-130568Y106879D02*
X-130516Y106118D01*
X-130468Y105781D01*
X-130404Y105474D01*
X-130325Y105196D01*
X-130232Y104947D01*
X-130123Y104727D01*
X-129999Y104537D01*
X-129860Y104376D01*
X-130567Y103668D01*
X-130728Y103807D01*
X-130919Y103931D01*
X-131138Y104041D01*
X-131387Y104134D01*
X-131665Y104213D01*
X-131973Y104277D01*
X-132309Y104325D01*
X-133070Y104377D01*
X-133494Y104380D01*
X-130571Y107303D01*
X-130568Y106879D01*
D02*
G37*
G36*
X-29882Y-105370D02*
X-30081Y-105576D01*
X-30394Y-105945D01*
X-30509Y-106108D01*
X-30595Y-106257D01*
X-30652Y-106391D01*
X-30682Y-106511D01*
X-30683Y-106616D01*
X-30656Y-106708D01*
X-30601Y-106784D01*
X-32003Y-105382D01*
X-31926Y-105437D01*
X-31835Y-105464D01*
X-31730Y-105463D01*
X-31610Y-105434D01*
X-31476Y-105376D01*
X-31327Y-105290D01*
X-31164Y-105176D01*
X-30987Y-105033D01*
X-30589Y-104663D01*
X-29882Y-105370D01*
D02*
G37*
G36*
X-18295Y-114779D02*
X-18305Y-114684D01*
X-18335Y-114600D01*
X-18385Y-114524D01*
X-18455Y-114460D01*
X-18545Y-114404D01*
X-18655Y-114359D01*
X-18785Y-114324D01*
X-18935Y-114299D01*
X-19105Y-114285D01*
X-19295Y-114279D01*
Y-113279D01*
X-19105Y-113275D01*
X-18935Y-113259D01*
X-18785Y-113234D01*
X-18655Y-113199D01*
X-18545Y-113154D01*
X-18455Y-113100D01*
X-18385Y-113034D01*
X-18335Y-112960D01*
X-18305Y-112874D01*
X-18295Y-112779D01*
Y-114779D01*
D02*
G37*
G36*
X-76687Y108563D02*
X-76711Y108582D01*
X-76745Y108598D01*
X-76788Y108613D01*
X-76841Y108626D01*
X-76904Y108637D01*
X-77058Y108653D01*
X-77251Y108660D01*
X-77362Y108661D01*
Y109843D01*
X-77251Y109844D01*
X-76904Y109867D01*
X-76841Y109878D01*
X-76788Y109891D01*
X-76745Y109906D01*
X-76711Y109922D01*
X-76687Y109941D01*
Y108563D01*
D02*
G37*
G36*
X-103311Y104122D02*
X-103553Y103871D01*
X-103933Y103425D01*
X-104069Y103230D01*
X-104171Y103053D01*
X-104236Y102896D01*
X-104267Y102757D01*
X-104262Y102636D01*
X-104221Y102534D01*
X-104146Y102452D01*
X-106013Y103925D01*
X-105912Y103867D01*
X-105797Y103840D01*
X-105667Y103846D01*
X-105522Y103882D01*
X-105362Y103950D01*
X-105188Y104049D01*
X-104999Y104180D01*
X-104795Y104342D01*
X-104576Y104535D01*
X-104343Y104760D01*
X-103311Y104122D01*
D02*
G37*
G36*
X-77941Y101165D02*
X-77951Y101260D01*
X-77981Y101345D01*
X-78031Y101420D01*
X-78101Y101485D01*
X-78191Y101540D01*
X-78301Y101585D01*
X-78431Y101620D01*
X-78581Y101645D01*
X-78751Y101660D01*
X-78839Y101663D01*
X-78929Y101660D01*
X-79101Y101645D01*
X-79252Y101620D01*
X-79384Y101585D01*
X-79495Y101540D01*
X-79586Y101485D01*
X-79657Y101420D01*
X-79708Y101345D01*
X-79738Y101260D01*
X-79748Y101165D01*
Y103165D01*
X-79738Y103070D01*
X-79708Y102985D01*
X-79657Y102910D01*
X-79586Y102845D01*
X-79495Y102790D01*
X-79384Y102745D01*
X-79252Y102710D01*
X-79101Y102685D01*
X-78929Y102670D01*
X-78839Y102668D01*
X-78751Y102670D01*
X-78581Y102685D01*
X-78431Y102710D01*
X-78301Y102745D01*
X-78191Y102790D01*
X-78101Y102845D01*
X-78031Y102910D01*
X-77981Y102985D01*
X-77951Y103070D01*
X-77941Y103165D01*
Y101165D01*
D02*
G37*
G36*
X-83637Y108071D02*
X-83650Y108183D01*
X-83686Y108283D01*
X-83746Y108372D01*
X-83830Y108449D01*
X-83937Y108514D01*
X-84068Y108567D01*
X-84223Y108608D01*
X-84402Y108638D01*
X-84604Y108656D01*
X-84830Y108661D01*
Y109843D01*
X-84606Y109848D01*
X-84405Y109866D01*
X-84228Y109895D01*
X-84075Y109935D01*
X-83945Y109987D01*
X-83838Y110051D01*
X-83756Y110126D01*
X-83697Y110213D01*
X-83661Y110311D01*
X-83649Y110421D01*
X-83637Y108071D01*
D02*
G37*
G36*
X-24292Y-127939D02*
X-24377Y-127969D01*
X-24452Y-128020D01*
X-24517Y-128091D01*
X-24572Y-128182D01*
X-24617Y-128293D01*
X-24652Y-128425D01*
X-24677Y-128576D01*
X-24692Y-128749D01*
X-24697Y-128941D01*
X-25697D01*
X-25702Y-128749D01*
X-25717Y-128576D01*
X-25742Y-128425D01*
X-25777Y-128293D01*
X-25822Y-128182D01*
X-25877Y-128091D01*
X-25942Y-128020D01*
X-26017Y-127969D01*
X-26102Y-127939D01*
X-26197Y-127929D01*
X-24197D01*
X-24292Y-127939D01*
D02*
G37*
G36*
X-24692Y-129519D02*
X-24677Y-129691D01*
X-24652Y-129843D01*
X-24617Y-129975D01*
X-24572Y-130086D01*
X-24517Y-130177D01*
X-24452Y-130248D01*
X-24377Y-130298D01*
X-24292Y-130329D01*
X-24197Y-130339D01*
X-26197D01*
X-26102Y-130329D01*
X-26017Y-130298D01*
X-25942Y-130248D01*
X-25877Y-130177D01*
X-25822Y-130086D01*
X-25777Y-129975D01*
X-25742Y-129843D01*
X-25717Y-129691D01*
X-25702Y-129519D01*
X-25697Y-129327D01*
X-24697D01*
X-24692Y-129519D01*
D02*
G37*
G36*
Y-123220D02*
X-24677Y-123392D01*
X-24652Y-123544D01*
X-24617Y-123675D01*
X-24572Y-123787D01*
X-24517Y-123878D01*
X-24452Y-123949D01*
X-24377Y-123999D01*
X-24292Y-124030D01*
X-24197Y-124040D01*
X-26197D01*
X-26102Y-124030D01*
X-26017Y-123999D01*
X-25942Y-123949D01*
X-25877Y-123878D01*
X-25822Y-123787D01*
X-25777Y-123675D01*
X-25742Y-123544D01*
X-25717Y-123392D01*
X-25702Y-123220D01*
X-25697Y-123028D01*
X-24697D01*
X-24692Y-123220D01*
D02*
G37*
G36*
X-31486Y-122033D02*
X-31571Y-122064D01*
X-31646Y-122114D01*
X-31711Y-122185D01*
X-31766Y-122276D01*
X-31811Y-122388D01*
X-31846Y-122519D01*
X-31871Y-122671D01*
X-31886Y-122843D01*
X-31891Y-123031D01*
X-31886Y-123220D01*
X-31871Y-123392D01*
X-31846Y-123544D01*
X-31811Y-123675D01*
X-31766Y-123787D01*
X-31711Y-123878D01*
X-31646Y-123949D01*
X-31571Y-123999D01*
X-31486Y-124030D01*
X-31391Y-124040D01*
X-33391D01*
X-33296Y-124030D01*
X-33211Y-123999D01*
X-33136Y-123949D01*
X-33071Y-123878D01*
X-33016Y-123787D01*
X-32971Y-123675D01*
X-32936Y-123544D01*
X-32911Y-123392D01*
X-32896Y-123220D01*
X-32891Y-123031D01*
X-32896Y-122843D01*
X-32911Y-122671D01*
X-32936Y-122519D01*
X-32971Y-122388D01*
X-33016Y-122276D01*
X-33071Y-122185D01*
X-33136Y-122114D01*
X-33211Y-122064D01*
X-33296Y-122033D01*
X-33391Y-122023D01*
X-31391D01*
X-31486Y-122033D01*
D02*
G37*
G36*
X-24292Y-140549D02*
X-24377Y-140579D01*
X-24452Y-140629D01*
X-24517Y-140699D01*
X-24572Y-140789D01*
X-24617Y-140899D01*
X-24652Y-141029D01*
X-24677Y-141179D01*
X-24692Y-141349D01*
X-24697Y-141539D01*
X-25697D01*
X-25702Y-141349D01*
X-25717Y-141179D01*
X-25742Y-141029D01*
X-25777Y-140899D01*
X-25822Y-140789D01*
X-25877Y-140699D01*
X-25942Y-140629D01*
X-26017Y-140579D01*
X-26102Y-140549D01*
X-26197Y-140539D01*
X-24197D01*
X-24292Y-140549D01*
D02*
G37*
G36*
Y-146836D02*
X-24377Y-146867D01*
X-24452Y-146917D01*
X-24517Y-146988D01*
X-24572Y-147079D01*
X-24617Y-147191D01*
X-24652Y-147322D01*
X-24677Y-147474D01*
X-24692Y-147646D01*
X-24697Y-147838D01*
X-25697D01*
X-25702Y-147646D01*
X-25717Y-147474D01*
X-25742Y-147322D01*
X-25777Y-147191D01*
X-25822Y-147079D01*
X-25877Y-146988D01*
X-25942Y-146917D01*
X-26017Y-146867D01*
X-26102Y-146836D01*
X-26197Y-146826D01*
X-24197D01*
X-24292Y-146836D01*
D02*
G37*
G36*
X-24697Y-165089D02*
X-24686Y-165223D01*
X-24652Y-165395D01*
X-24596Y-165606D01*
X-24417Y-166141D01*
X-23980Y-167230D01*
X-23578Y-168146D01*
X-27429Y-166645D01*
X-27100Y-166492D01*
X-26805Y-166330D01*
X-26546Y-166158D01*
X-26320Y-165977D01*
X-26130Y-165786D01*
X-25974Y-165586D01*
X-25853Y-165377D01*
X-25766Y-165158D01*
X-25714Y-164929D01*
X-25697Y-164692D01*
X-24697Y-165089D01*
D02*
G37*
G36*
X-24692Y-142118D02*
X-24677Y-142290D01*
X-24652Y-142441D01*
X-24617Y-142573D01*
X-24572Y-142684D01*
X-24517Y-142775D01*
X-24452Y-142846D01*
X-24377Y-142897D01*
X-24292Y-142927D01*
X-24197Y-142937D01*
X-26197D01*
X-26102Y-142927D01*
X-26017Y-142897D01*
X-25942Y-142846D01*
X-25877Y-142775D01*
X-25822Y-142684D01*
X-25777Y-142573D01*
X-25742Y-142441D01*
X-25717Y-142290D01*
X-25702Y-142118D01*
X-25697Y-141925D01*
X-24697D01*
X-24692Y-142118D01*
D02*
G37*
G36*
X-33595Y-142333D02*
X-33149Y-142712D01*
X-32954Y-142849D01*
X-32778Y-142950D01*
X-32620Y-143016D01*
X-32481Y-143046D01*
X-32361Y-143041D01*
X-32259Y-143001D01*
X-32176Y-142925D01*
X-33649Y-144793D01*
X-33591Y-144692D01*
X-33565Y-144576D01*
X-33570Y-144446D01*
X-33606Y-144301D01*
X-33674Y-144142D01*
X-33773Y-143967D01*
X-33904Y-143778D01*
X-34066Y-143574D01*
X-34260Y-143356D01*
X-34485Y-143122D01*
X-33846Y-142090D01*
X-33595Y-142333D01*
D02*
G37*
G36*
X-38386Y-115075D02*
X-39567Y-115138D01*
X-39568Y-115027D01*
X-39592Y-114759D01*
X-39605Y-114690D01*
X-39622Y-114632D01*
X-39642Y-114584D01*
X-39665Y-114547D01*
X-39691Y-114519D01*
X-39720Y-114503D01*
X-38459Y-113954D01*
X-38386Y-115075D01*
D02*
G37*
G36*
X-37907Y-115342D02*
X-38008Y-115378D01*
X-38096Y-115438D01*
X-38173Y-115521D01*
X-38238Y-115629D01*
X-38291Y-115760D01*
X-38333Y-115915D01*
X-38362Y-116094D01*
X-38380Y-116297D01*
X-38386Y-116523D01*
X-39567D01*
X-39573Y-116297D01*
X-39591Y-116094D01*
X-39620Y-115915D01*
X-39661Y-115760D01*
X-39715Y-115629D01*
X-39779Y-115521D01*
X-39856Y-115438D01*
X-39945Y-115378D01*
X-40045Y-115342D01*
X-40157Y-115330D01*
X-37795D01*
X-37907Y-115342D01*
D02*
G37*
G36*
X-30591Y-112874D02*
X-30560Y-112960D01*
X-30510Y-113034D01*
X-30439Y-113100D01*
X-30348Y-113154D01*
X-30236Y-113199D01*
X-30105Y-113234D01*
X-29953Y-113259D01*
X-29781Y-113275D01*
X-29589Y-113279D01*
Y-114279D01*
X-29781Y-114285D01*
X-29953Y-114299D01*
X-30105Y-114324D01*
X-30236Y-114359D01*
X-30348Y-114404D01*
X-30439Y-114460D01*
X-30510Y-114524D01*
X-30560Y-114600D01*
X-30591Y-114684D01*
X-30601Y-114779D01*
Y-112779D01*
X-30591Y-112874D01*
D02*
G37*
G36*
X-77929Y108071D02*
X-77941Y108183D01*
X-77977Y108283D01*
X-78036Y108372D01*
X-78120Y108449D01*
X-78227Y108514D01*
X-78358Y108567D01*
X-78513Y108608D01*
X-78692Y108638D01*
X-78838Y108651D01*
X-78984Y108638D01*
X-79163Y108608D01*
X-79317Y108567D01*
X-79449Y108514D01*
X-79556Y108449D01*
X-79640Y108372D01*
X-79700Y108283D01*
X-79736Y108183D01*
X-79748Y108071D01*
X-79736Y110421D01*
X-79725Y110311D01*
X-79689Y110213D01*
X-79630Y110126D01*
X-79547Y110051D01*
X-79441Y109987D01*
X-79311Y109935D01*
X-79158Y109895D01*
X-78980Y109866D01*
X-78838Y109853D01*
X-78692Y109866D01*
X-78513Y109896D01*
X-78358Y109937D01*
X-78227Y109990D01*
X-78120Y110055D01*
X-78036Y110132D01*
X-77977Y110221D01*
X-77941Y110321D01*
X-77929Y110433D01*
Y108071D01*
D02*
G37*
G36*
X-31486Y-115592D02*
X-31571Y-115622D01*
X-31646Y-115672D01*
X-31711Y-115742D01*
X-31766Y-115832D01*
X-31811Y-115942D01*
X-31846Y-116072D01*
X-31871Y-116222D01*
X-31886Y-116392D01*
X-31891Y-116582D01*
X-32891D01*
X-32896Y-116392D01*
X-32911Y-116222D01*
X-32936Y-116072D01*
X-32971Y-115942D01*
X-33016Y-115832D01*
X-33071Y-115742D01*
X-33136Y-115672D01*
X-33211Y-115622D01*
X-33296Y-115592D01*
X-33391Y-115582D01*
X-31391D01*
X-31486Y-115592D01*
D02*
G37*
G36*
X-24292Y-118687D02*
X-24377Y-118717D01*
X-24452Y-118768D01*
X-24517Y-118839D01*
X-24572Y-118930D01*
X-24617Y-119041D01*
X-24652Y-119173D01*
X-24677Y-119325D01*
X-24692Y-119497D01*
X-24697Y-119689D01*
X-25697D01*
X-25702Y-119497D01*
X-25717Y-119325D01*
X-25742Y-119173D01*
X-25777Y-119041D01*
X-25822Y-118930D01*
X-25877Y-118839D01*
X-25942Y-118768D01*
X-26017Y-118717D01*
X-26102Y-118687D01*
X-26197Y-118677D01*
X-24197D01*
X-24292Y-118687D01*
D02*
G37*
G36*
X-37907Y-122035D02*
X-38008Y-122071D01*
X-38096Y-122131D01*
X-38173Y-122214D01*
X-38238Y-122321D01*
X-38291Y-122453D01*
X-38333Y-122608D01*
X-38362Y-122787D01*
X-38380Y-122990D01*
X-38386Y-123216D01*
X-39567D01*
X-39573Y-122990D01*
X-39591Y-122787D01*
X-39620Y-122608D01*
X-39661Y-122453D01*
X-39715Y-122321D01*
X-39779Y-122214D01*
X-39856Y-122131D01*
X-39945Y-122071D01*
X-40045Y-122035D01*
X-40157Y-122023D01*
X-37795D01*
X-37907Y-122035D01*
D02*
G37*
G36*
X-31886Y-117315D02*
X-31871Y-117487D01*
X-31846Y-117638D01*
X-31811Y-117770D01*
X-31766Y-117881D01*
X-31711Y-117972D01*
X-31646Y-118043D01*
X-31571Y-118094D01*
X-31486Y-118124D01*
X-31391Y-118134D01*
X-33391D01*
X-33296Y-118124D01*
X-33211Y-118094D01*
X-33136Y-118043D01*
X-33071Y-117972D01*
X-33016Y-117881D01*
X-32971Y-117770D01*
X-32936Y-117638D01*
X-32911Y-117487D01*
X-32896Y-117315D01*
X-32891Y-117122D01*
X-31891D01*
X-31886Y-117315D01*
D02*
G37*
G36*
X-38380Y-117168D02*
X-38362Y-117371D01*
X-38333Y-117550D01*
X-38291Y-117705D01*
X-38238Y-117836D01*
X-38173Y-117943D01*
X-38096Y-118027D01*
X-38008Y-118087D01*
X-37907Y-118122D01*
X-37795Y-118134D01*
X-40157D01*
X-40045Y-118122D01*
X-39945Y-118087D01*
X-39856Y-118027D01*
X-39779Y-117943D01*
X-39715Y-117836D01*
X-39661Y-117705D01*
X-39620Y-117550D01*
X-39591Y-117371D01*
X-39573Y-117168D01*
X-39567Y-116941D01*
X-38386D01*
X-38380Y-117168D01*
D02*
G37*
G36*
X-49991Y-65042D02*
X-49416Y-65543D01*
X-49144Y-65747D01*
X-48882Y-65919D01*
X-48629Y-66060D01*
X-48387Y-66170D01*
X-48155Y-66248D01*
X-47932Y-66295D01*
X-47720Y-66311D01*
Y-67311D01*
X-47932Y-67327D01*
X-48155Y-67374D01*
X-48387Y-67452D01*
X-48629Y-67562D01*
X-48882Y-67703D01*
X-49144Y-67875D01*
X-49416Y-68079D01*
X-49991Y-68580D01*
X-50293Y-68878D01*
Y-64744D01*
X-49991Y-65042D01*
D02*
G37*
G36*
X99791Y71541D02*
X99827Y71441D01*
X99887Y71352D01*
X99970Y71276D01*
X100077Y71211D01*
X100209Y71157D01*
X100364Y71116D01*
X100543Y71087D01*
X100746Y71069D01*
X100972Y71063D01*
Y69882D01*
X100746Y69876D01*
X100543Y69858D01*
X100364Y69829D01*
X100209Y69787D01*
X100077Y69734D01*
X99970Y69669D01*
X99887Y69592D01*
X99827Y69504D01*
X99791Y69403D01*
X99779Y69291D01*
Y71653D01*
X99791Y71541D01*
D02*
G37*
G36*
X102386Y69291D02*
X102374Y69403D01*
X102339Y69504D01*
X102279Y69592D01*
X102195Y69669D01*
X102088Y69734D01*
X101957Y69787D01*
X101802Y69829D01*
X101623Y69858D01*
X101420Y69876D01*
X101193Y69882D01*
Y71063D01*
X101420Y71069D01*
X101623Y71087D01*
X101802Y71116D01*
X101957Y71157D01*
X102088Y71211D01*
X102195Y71276D01*
X102279Y71352D01*
X102339Y71441D01*
X102374Y71541D01*
X102386Y71653D01*
Y69291D01*
D02*
G37*
G36*
X106287Y71541D02*
X106323Y71441D01*
X106383Y71352D01*
X106466Y71276D01*
X106573Y71211D01*
X106705Y71157D01*
X106860Y71116D01*
X107039Y71087D01*
X107242Y71069D01*
X107468Y71063D01*
Y69882D01*
X107242Y69876D01*
X107039Y69858D01*
X106860Y69829D01*
X106705Y69787D01*
X106573Y69734D01*
X106466Y69669D01*
X106383Y69592D01*
X106323Y69504D01*
X106287Y69403D01*
X106275Y69291D01*
Y71653D01*
X106287Y71541D01*
D02*
G37*
G36*
X-11996Y2150D02*
X-12006Y2245D01*
X-12036Y2330D01*
X-12086Y2405D01*
X-12156Y2470D01*
X-12246Y2525D01*
X-12356Y2570D01*
X-12486Y2605D01*
X-12636Y2630D01*
X-12806Y2645D01*
X-12996Y2650D01*
Y3650D01*
X-12806Y3655D01*
X-12636Y3670D01*
X-12486Y3695D01*
X-12356Y3730D01*
X-12246Y3775D01*
X-12156Y3830D01*
X-12086Y3895D01*
X-12036Y3970D01*
X-12006Y4055D01*
X-11996Y4150D01*
Y2150D01*
D02*
G37*
G36*
X-19969Y4928D02*
X-19403Y4423D01*
X-19134Y4218D01*
X-18874Y4044D01*
X-18624Y3902D01*
X-18382Y3792D01*
X-18150Y3713D01*
X-17927Y3665D01*
X-17713Y3650D01*
X-17727Y2650D01*
X-17938Y2634D01*
X-18159Y2587D01*
X-18392Y2510D01*
X-18635Y2401D01*
X-18889Y2261D01*
X-19154Y2090D01*
X-19430Y1887D01*
X-20013Y1390D01*
X-20321Y1094D01*
X-20266Y5228D01*
X-19969Y4928D01*
D02*
G37*
G36*
X-130777Y70443D02*
X-130806Y70351D01*
Y70245D01*
X-130777Y70125D01*
X-130721Y69990D01*
X-130636Y69842D01*
X-130523Y69679D01*
X-130381Y69503D01*
X-130014Y69107D01*
X-130721Y68399D01*
X-130926Y68597D01*
X-131293Y68909D01*
X-131456Y69022D01*
X-131605Y69107D01*
X-131739Y69163D01*
X-131859Y69191D01*
X-131965D01*
X-132057Y69163D01*
X-132135Y69107D01*
X-130721Y70521D01*
X-130777Y70443D01*
D02*
G37*
G36*
X99801Y77873D02*
X99831Y77789D01*
X99881Y77714D01*
X99951Y77649D01*
X100041Y77593D01*
X100151Y77548D01*
X100281Y77513D01*
X100431Y77488D01*
X100601Y77473D01*
X100791Y77469D01*
Y76468D01*
X100601Y76464D01*
X100431Y76449D01*
X100281Y76424D01*
X100151Y76389D01*
X100041Y76344D01*
X99951Y76288D01*
X99881Y76223D01*
X99831Y76148D01*
X99801Y76064D01*
X99791Y75968D01*
Y77969D01*
X99801Y77873D01*
D02*
G37*
G36*
X102386Y75968D02*
X102376Y76064D01*
X102346Y76148D01*
X102295Y76223D01*
X102224Y76288D01*
X102133Y76344D01*
X102022Y76389D01*
X101890Y76424D01*
X101739Y76449D01*
X101567Y76464D01*
X101374Y76468D01*
Y77469D01*
X101567Y77473D01*
X101739Y77488D01*
X101890Y77513D01*
X102022Y77548D01*
X102133Y77593D01*
X102224Y77649D01*
X102295Y77714D01*
X102346Y77789D01*
X102376Y77873D01*
X102386Y77969D01*
Y75968D01*
D02*
G37*
G36*
X108292D02*
X108282Y76064D01*
X108251Y76148D01*
X108201Y76223D01*
X108130Y76288D01*
X108039Y76344D01*
X107927Y76389D01*
X107796Y76424D01*
X107644Y76449D01*
X107472Y76464D01*
X107283Y76468D01*
X107095Y76464D01*
X106923Y76449D01*
X106771Y76424D01*
X106640Y76389D01*
X106528Y76344D01*
X106437Y76288D01*
X106366Y76223D01*
X106316Y76148D01*
X106285Y76064D01*
X106275Y75968D01*
Y77969D01*
X106285Y77873D01*
X106316Y77789D01*
X106366Y77714D01*
X106437Y77649D01*
X106528Y77593D01*
X106640Y77548D01*
X106771Y77513D01*
X106923Y77488D01*
X107095Y77473D01*
X107283Y77469D01*
X107472Y77473D01*
X107644Y77488D01*
X107796Y77513D01*
X107927Y77548D01*
X108039Y77593D01*
X108130Y77649D01*
X108201Y77714D01*
X108251Y77789D01*
X108282Y77873D01*
X108292Y77969D01*
Y75968D01*
D02*
G37*
G36*
X99410Y69882D02*
X99299Y69881D01*
X99034Y69861D01*
X98969Y69849D01*
X98914Y69835D01*
X98871Y69819D01*
X98840Y69799D01*
X98819Y69777D01*
X98810Y69752D01*
X98070Y70837D01*
X99213Y71063D01*
X99410Y69882D01*
D02*
G37*
G36*
X90993Y74827D02*
X90916Y74883D01*
X90825Y74910D01*
X90720Y74908D01*
X90600Y74879D01*
X90466Y74821D01*
X90317Y74735D01*
X90154Y74621D01*
X89977Y74478D01*
X89579Y74108D01*
X88872Y74815D01*
X89071Y75021D01*
X89385Y75390D01*
X89499Y75553D01*
X89585Y75702D01*
X89643Y75836D01*
X89672Y75956D01*
X89673Y76062D01*
X89646Y76153D01*
X89591Y76229D01*
X90993Y74827D01*
D02*
G37*
G36*
X129832Y75603D02*
X129731Y75661D01*
X129616Y75687D01*
X129486Y75682D01*
X129341Y75646D01*
X129181Y75578D01*
X129007Y75479D01*
X128817Y75348D01*
X128614Y75186D01*
X128395Y74992D01*
X128162Y74767D01*
X127130Y75406D01*
X127372Y75657D01*
X127752Y76103D01*
X127888Y76298D01*
X127989Y76474D01*
X128055Y76632D01*
X128086Y76771D01*
X128081Y76891D01*
X128041Y76993D01*
X127965Y77076D01*
X129832Y75603D01*
D02*
G37*
G36*
X-48737Y16146D02*
X-48877Y15985D01*
X-49001Y15794D01*
X-49110Y15574D01*
X-49203Y15326D01*
X-49282Y15047D01*
X-49346Y14740D01*
X-49394Y14403D01*
X-49446Y13643D01*
X-49449Y13218D01*
X-52372Y16142D01*
X-51948Y16145D01*
X-51187Y16196D01*
X-50850Y16245D01*
X-50543Y16308D01*
X-50265Y16387D01*
X-50016Y16481D01*
X-49796Y16590D01*
X-49606Y16714D01*
X-49445Y16853D01*
X-48737Y16146D01*
D02*
G37*
G36*
X157487Y60137D02*
X157185Y60434D01*
X156611Y60936D01*
X156339Y61140D01*
X156076Y61312D01*
X155824Y61453D01*
X155582Y61563D01*
X155349Y61641D01*
X155127Y61688D01*
X154914Y61704D01*
Y62704D01*
X155127Y62719D01*
X155349Y62766D01*
X155582Y62845D01*
X155824Y62954D01*
X156076Y63095D01*
X156339Y63268D01*
X156611Y63471D01*
X157185Y63973D01*
X157487Y64271D01*
Y60137D01*
D02*
G37*
G36*
X-27890Y67563D02*
X-27922Y67515D01*
X-27951Y67460D01*
X-27975Y67398D01*
X-27996Y67328D01*
X-28013Y67251D01*
X-28026Y67166D01*
X-28036Y67074D01*
X-28043Y66869D01*
X-29043D01*
X-29045Y66975D01*
X-29060Y67166D01*
X-29074Y67251D01*
X-29091Y67328D01*
X-29111Y67398D01*
X-29136Y67460D01*
X-29164Y67515D01*
X-29196Y67563D01*
X-29232Y67604D01*
X-27854D01*
X-27890Y67563D01*
D02*
G37*
G36*
X-20077Y45050D02*
X-19855Y44866D01*
X-19627Y44704D01*
X-19392Y44563D01*
X-19151Y44444D01*
X-18903Y44346D01*
X-18648Y44271D01*
X-18387Y44216D01*
X-18196Y44193D01*
X-17978Y44213D01*
X-17681Y44262D01*
X-17424Y44331D01*
X-17206Y44419D01*
X-17028Y44528D01*
X-16889Y44655D01*
X-16789Y44803D01*
X-16729Y44971D01*
X-16708Y45158D01*
X-16720Y43122D01*
X-16740Y42948D01*
X-16799Y42792D01*
X-16897Y42654D01*
X-17035Y42535D01*
X-17212Y42434D01*
X-17429Y42351D01*
X-17685Y42287D01*
X-17846Y42262D01*
Y42205D01*
X-18120Y42194D01*
X-18387Y42161D01*
X-18648Y42107D01*
X-18903Y42031D01*
X-19151Y41934D01*
X-19392Y41815D01*
X-19627Y41674D01*
X-19855Y41512D01*
X-20077Y41328D01*
X-20293Y41122D01*
Y45256D01*
X-20077Y45050D01*
D02*
G37*
G36*
X-55330Y52189D02*
X-55340Y52284D01*
X-55371Y52369D01*
X-55421Y52444D01*
X-55492Y52509D01*
X-55583Y52564D01*
X-55695Y52609D01*
X-55826Y52644D01*
X-55978Y52669D01*
X-56150Y52684D01*
X-56342Y52689D01*
Y53689D01*
X-56150Y53694D01*
X-55978Y53709D01*
X-55826Y53734D01*
X-55695Y53769D01*
X-55583Y53814D01*
X-55492Y53869D01*
X-55421Y53934D01*
X-55371Y54009D01*
X-55340Y54094D01*
X-55330Y54189D01*
Y52189D01*
D02*
G37*
G36*
X-20077Y55050D02*
X-19855Y54866D01*
X-19627Y54704D01*
X-19392Y54563D01*
X-19151Y54444D01*
X-18903Y54347D01*
X-18648Y54271D01*
X-18387Y54216D01*
X-18120Y54184D01*
X-17846Y54173D01*
Y53814D01*
X-16720Y53334D01*
X-16708Y51221D01*
X-16729Y51407D01*
X-16789Y51575D01*
X-16889Y51723D01*
X-17028Y51850D01*
X-17206Y51959D01*
X-17424Y52047D01*
X-17681Y52116D01*
X-17978Y52165D01*
X-18196Y52185D01*
X-18387Y52161D01*
X-18648Y52107D01*
X-18903Y52031D01*
X-19151Y51934D01*
X-19392Y51815D01*
X-19627Y51674D01*
X-19855Y51512D01*
X-20077Y51328D01*
X-20293Y51122D01*
Y55256D01*
X-20077Y55050D01*
D02*
G37*
G36*
X-10027Y43319D02*
X-10047Y43466D01*
X-10106Y43598D01*
X-10204Y43714D01*
X-10342Y43815D01*
X-10520Y43901D01*
X-10736Y43970D01*
X-10992Y44025D01*
X-11287Y44063D01*
X-11382Y44070D01*
X-11547Y44056D01*
X-11843Y44007D01*
X-12099Y43939D01*
X-12315Y43851D01*
X-12492Y43745D01*
X-12630Y43618D01*
X-12729Y43472D01*
X-12788Y43307D01*
X-12807Y43122D01*
Y47035D01*
X-12788Y46850D01*
X-12729Y46685D01*
X-12630Y46539D01*
X-12492Y46413D01*
X-12315Y46306D01*
X-12099Y46218D01*
X-11843Y46150D01*
X-11547Y46102D01*
X-11419Y46091D01*
X-11287Y46102D01*
X-10992Y46152D01*
X-10736Y46220D01*
X-10520Y46309D01*
X-10342Y46417D01*
X-10204Y46545D01*
X-10106Y46693D01*
X-10047Y46860D01*
X-10027Y47047D01*
Y43319D01*
D02*
G37*
G36*
X-53547Y30468D02*
X-54040Y30673D01*
X-56504Y31536D01*
X-56628Y31547D01*
X-57055Y32547D01*
X-56817Y32565D01*
X-56588Y32616D01*
X-56371Y32703D01*
X-56164Y32825D01*
X-55967Y32980D01*
X-55782Y33171D01*
X-55607Y33396D01*
X-55442Y33656D01*
X-55288Y33951D01*
X-55146Y34280D01*
X-53547Y30468D01*
D02*
G37*
G36*
X-131251Y33816D02*
X-130676Y33315D01*
X-130404Y33111D01*
X-130141Y32939D01*
X-129889Y32798D01*
X-129647Y32688D01*
X-129414Y32610D01*
X-129192Y32563D01*
X-128980Y32547D01*
Y31547D01*
X-129192Y31532D01*
X-129414Y31485D01*
X-129647Y31406D01*
X-129889Y31297D01*
X-130141Y31155D01*
X-130404Y30983D01*
X-130676Y30779D01*
X-131251Y30278D01*
X-131553Y29980D01*
Y34114D01*
X-131251Y33816D01*
D02*
G37*
G36*
X-48737Y26146D02*
X-48877Y25985D01*
X-49001Y25794D01*
X-49110Y25574D01*
X-49203Y25326D01*
X-49282Y25047D01*
X-49346Y24740D01*
X-49394Y24404D01*
X-49446Y23643D01*
X-49449Y23219D01*
X-52372Y26142D01*
X-51948Y26145D01*
X-51187Y26196D01*
X-50850Y26245D01*
X-50543Y26309D01*
X-50265Y26387D01*
X-50016Y26481D01*
X-49796Y26590D01*
X-49606Y26714D01*
X-49445Y26853D01*
X-48737Y26146D01*
D02*
G37*
G36*
X-54510Y41122D02*
X-54813Y41420D01*
X-55387Y41921D01*
X-55659Y42125D01*
X-55922Y42297D01*
X-56174Y42438D01*
X-56416Y42548D01*
X-56648Y42626D01*
X-56871Y42673D01*
X-57083Y42689D01*
Y43689D01*
X-56871Y43705D01*
X-56648Y43752D01*
X-56416Y43830D01*
X-56174Y43940D01*
X-55922Y44081D01*
X-55659Y44253D01*
X-55387Y44457D01*
X-54813Y44958D01*
X-54510Y45256D01*
Y41122D01*
D02*
G37*
G36*
X-132023Y44564D02*
X-129559Y43700D01*
X-129436Y43689D01*
X-129008Y42689D01*
X-129246Y42672D01*
X-129475Y42620D01*
X-129692Y42533D01*
X-129899Y42412D01*
X-130096Y42256D01*
X-130281Y42065D01*
X-130456Y41840D01*
X-130621Y41580D01*
X-130774Y41286D01*
X-130918Y40957D01*
X-132516Y44769D01*
X-132023Y44564D01*
D02*
G37*
G36*
X-19991Y34958D02*
X-19416Y34457D01*
X-19144Y34253D01*
X-18882Y34081D01*
X-18629Y33940D01*
X-18387Y33830D01*
X-18155Y33752D01*
X-17932Y33705D01*
X-17720Y33689D01*
Y32689D01*
X-17932Y32673D01*
X-18155Y32626D01*
X-18387Y32548D01*
X-18629Y32438D01*
X-18882Y32297D01*
X-19144Y32125D01*
X-19416Y31921D01*
X-19991Y31420D01*
X-20293Y31122D01*
Y35256D01*
X-19991Y34958D01*
D02*
G37*
G36*
X-80685Y93980D02*
X-80695Y94075D01*
X-80725Y94160D01*
X-80776Y94235D01*
X-80847Y94300D01*
X-80938Y94355D01*
X-81049Y94400D01*
X-81181Y94435D01*
X-81332Y94460D01*
X-81504Y94475D01*
X-81697Y94480D01*
Y95480D01*
X-81504Y95485D01*
X-81332Y95500D01*
X-81181Y95525D01*
X-81049Y95560D01*
X-80938Y95605D01*
X-80847Y95660D01*
X-80776Y95725D01*
X-80725Y95800D01*
X-80695Y95885D01*
X-80685Y95980D01*
Y93980D01*
D02*
G37*
G36*
X-108047Y94472D02*
X-108057Y94567D01*
X-108087Y94652D01*
X-108138Y94727D01*
X-108209Y94792D01*
X-108300Y94848D01*
X-108411Y94892D01*
X-108543Y94927D01*
X-108695Y94952D01*
X-108867Y94967D01*
X-109059Y94972D01*
Y95973D01*
X-108867Y95977D01*
X-108695Y95992D01*
X-108543Y96017D01*
X-108411Y96052D01*
X-108300Y96097D01*
X-108209Y96152D01*
X-108138Y96217D01*
X-108087Y96292D01*
X-108057Y96377D01*
X-108047Y96473D01*
Y94472D01*
D02*
G37*
G36*
X-104148Y96377D02*
X-104117Y96292D01*
X-104067Y96217D01*
X-103996Y96152D01*
X-103905Y96097D01*
X-103794Y96052D01*
X-103662Y96017D01*
X-103510Y95992D01*
X-103338Y95977D01*
X-103146Y95973D01*
Y94972D01*
X-103338Y94967D01*
X-103510Y94952D01*
X-103662Y94927D01*
X-103794Y94892D01*
X-103905Y94848D01*
X-103996Y94792D01*
X-104067Y94727D01*
X-104117Y94652D01*
X-104148Y94567D01*
X-104158Y94472D01*
Y96473D01*
X-104148Y96377D01*
D02*
G37*
G36*
X-75282Y89184D02*
X-75267Y89014D01*
X-75242Y88864D01*
X-75207Y88734D01*
X-75162Y88624D01*
X-75107Y88534D01*
X-75042Y88464D01*
X-74967Y88414D01*
X-74882Y88384D01*
X-74787Y88374D01*
X-76787D01*
X-76692Y88384D01*
X-76607Y88414D01*
X-76532Y88464D01*
X-76467Y88534D01*
X-76412Y88624D01*
X-76367Y88734D01*
X-76332Y88864D01*
X-76307Y89014D01*
X-76292Y89184D01*
X-76287Y89374D01*
X-75287D01*
X-75282Y89184D01*
D02*
G37*
G36*
X98543Y90750D02*
X98458Y90720D01*
X98383Y90670D01*
X98318Y90600D01*
X98263Y90510D01*
X98218Y90400D01*
X98183Y90270D01*
X98158Y90120D01*
X98143Y89950D01*
X98138Y89760D01*
X97138D01*
X97133Y89950D01*
X97118Y90120D01*
X97093Y90270D01*
X97058Y90400D01*
X97013Y90510D01*
X96958Y90600D01*
X96893Y90670D01*
X96818Y90720D01*
X96733Y90750D01*
X96638Y90760D01*
X98638D01*
X98543Y90750D01*
D02*
G37*
G36*
X-85644Y95885D02*
X-85614Y95800D01*
X-85563Y95725D01*
X-85492Y95660D01*
X-85401Y95605D01*
X-85290Y95560D01*
X-85158Y95525D01*
X-85006Y95500D01*
X-84834Y95485D01*
X-84642Y95480D01*
Y94480D01*
X-84834Y94475D01*
X-85006Y94460D01*
X-85158Y94435D01*
X-85290Y94400D01*
X-85401Y94355D01*
X-85492Y94300D01*
X-85563Y94235D01*
X-85614Y94160D01*
X-85644Y94075D01*
X-85654Y93980D01*
Y95980D01*
X-85644Y95885D01*
D02*
G37*
G36*
X-67796Y101743D02*
X-67823Y101652D01*
X-67822Y101547D01*
X-67792Y101427D01*
X-67734Y101293D01*
X-67649Y101144D01*
X-67534Y100981D01*
X-67392Y100804D01*
X-67021Y100406D01*
X-67729Y99699D01*
X-67935Y99898D01*
X-68304Y100211D01*
X-68467Y100326D01*
X-68615Y100412D01*
X-68750Y100470D01*
X-68870Y100499D01*
X-68975Y100500D01*
X-69066Y100473D01*
X-69143Y100418D01*
X-67740Y101820D01*
X-67796Y101743D01*
D02*
G37*
G36*
X-83637Y101165D02*
X-83648Y101260D01*
X-83678Y101345D01*
X-83728Y101420D01*
X-83799Y101485D01*
X-83890Y101540D01*
X-84002Y101585D01*
X-84133Y101620D01*
X-84285Y101645D01*
X-84457Y101660D01*
X-84646Y101665D01*
X-84834Y101660D01*
X-85006Y101645D01*
X-85158Y101620D01*
X-85290Y101585D01*
X-85401Y101540D01*
X-85492Y101485D01*
X-85563Y101420D01*
X-85614Y101345D01*
X-85644Y101260D01*
X-85654Y101165D01*
Y103165D01*
X-85644Y103070D01*
X-85614Y102985D01*
X-85563Y102910D01*
X-85492Y102845D01*
X-85401Y102790D01*
X-85290Y102745D01*
X-85158Y102710D01*
X-85006Y102685D01*
X-84834Y102670D01*
X-84646Y102665D01*
X-84457Y102670D01*
X-84285Y102685D01*
X-84133Y102710D01*
X-84002Y102745D01*
X-83890Y102790D01*
X-83799Y102845D01*
X-83728Y102910D01*
X-83678Y102985D01*
X-83648Y103070D01*
X-83637Y103165D01*
Y101165D01*
D02*
G37*
G36*
X-45460Y-67811D02*
X-45470Y-67716D01*
X-45500Y-67631D01*
X-45550Y-67556D01*
X-45620Y-67491D01*
X-45710Y-67436D01*
X-45820Y-67391D01*
X-45950Y-67356D01*
X-46100Y-67331D01*
X-46270Y-67316D01*
X-46460Y-67311D01*
Y-66311D01*
X-46270Y-66306D01*
X-46100Y-66291D01*
X-45950Y-66266D01*
X-45820Y-66231D01*
X-45710Y-66186D01*
X-45620Y-66131D01*
X-45550Y-66066D01*
X-45500Y-65991D01*
X-45470Y-65906D01*
X-45460Y-65811D01*
Y-67811D01*
D02*
G37*
G36*
X-101563Y94472D02*
X-101573Y94567D01*
X-101603Y94652D01*
X-101653Y94727D01*
X-101723Y94792D01*
X-101813Y94848D01*
X-101923Y94892D01*
X-102053Y94927D01*
X-102203Y94952D01*
X-102373Y94967D01*
X-102563Y94972D01*
Y95973D01*
X-102373Y95977D01*
X-102203Y95992D01*
X-102053Y96017D01*
X-101923Y96052D01*
X-101813Y96097D01*
X-101723Y96152D01*
X-101653Y96217D01*
X-101603Y96292D01*
X-101573Y96377D01*
X-101563Y96473D01*
Y94472D01*
D02*
G37*
G36*
X-89543Y93980D02*
X-89553Y94075D01*
X-89583Y94160D01*
X-89634Y94235D01*
X-89705Y94300D01*
X-89796Y94355D01*
X-89907Y94400D01*
X-90039Y94435D01*
X-90191Y94460D01*
X-90363Y94475D01*
X-90453Y94478D01*
X-90543Y94475D01*
X-90715Y94460D01*
X-90867Y94435D01*
X-90998Y94400D01*
X-91110Y94355D01*
X-91201Y94300D01*
X-91272Y94235D01*
X-91322Y94160D01*
X-91352Y94075D01*
X-91363Y93980D01*
Y95980D01*
X-91352Y95885D01*
X-91322Y95800D01*
X-91272Y95725D01*
X-91201Y95660D01*
X-91110Y95605D01*
X-90998Y95560D01*
X-90867Y95525D01*
X-90715Y95500D01*
X-90543Y95485D01*
X-90453Y95483D01*
X-90363Y95485D01*
X-90191Y95500D01*
X-90039Y95525D01*
X-89907Y95560D01*
X-89796Y95605D01*
X-89705Y95660D01*
X-89634Y95725D01*
X-89583Y95800D01*
X-89553Y95885D01*
X-89543Y95980D01*
Y93980D01*
D02*
G37*
G36*
X-74882Y100408D02*
X-74967Y100377D01*
X-75042Y100327D01*
X-75107Y100256D01*
X-75162Y100165D01*
X-75207Y100053D01*
X-75242Y99922D01*
X-75267Y99770D01*
X-75282Y99598D01*
X-75287Y99406D01*
X-76287D01*
X-76292Y99598D01*
X-76307Y99770D01*
X-76332Y99922D01*
X-76367Y100053D01*
X-76412Y100165D01*
X-76467Y100256D01*
X-76532Y100327D01*
X-76607Y100377D01*
X-76692Y100408D01*
X-76787Y100418D01*
X-74787D01*
X-74882Y100408D01*
D02*
G37*
G36*
X127977Y83055D02*
X127967Y83150D01*
X127936Y83235D01*
X127886Y83310D01*
X127815Y83375D01*
X127724Y83430D01*
X127612Y83475D01*
X127481Y83510D01*
X127329Y83535D01*
X127157Y83550D01*
X126965Y83555D01*
Y84555D01*
X127157Y84560D01*
X127329Y84575D01*
X127481Y84600D01*
X127612Y84635D01*
X127724Y84680D01*
X127815Y84735D01*
X127886Y84800D01*
X127936Y84875D01*
X127967Y84960D01*
X127977Y85055D01*
Y83055D01*
D02*
G37*
G36*
X98143Y79536D02*
X98158Y79364D01*
X98183Y79212D01*
X98218Y79080D01*
X98263Y78969D01*
X98318Y78878D01*
X98383Y78807D01*
X98458Y78757D01*
X98543Y78726D01*
X98638Y78716D01*
X96638D01*
X96733Y78726D01*
X96818Y78757D01*
X96893Y78807D01*
X96958Y78878D01*
X97013Y78969D01*
X97058Y79080D01*
X97093Y79212D01*
X97118Y79364D01*
X97133Y79536D01*
X97138Y79728D01*
X98138D01*
X98143Y79536D01*
D02*
G37*
G36*
X131812Y83444D02*
X131777Y83359D01*
X131772Y83258D01*
X131798Y83140D01*
X131853Y83007D01*
X131939Y82858D01*
X132055Y82692D01*
X132201Y82510D01*
X132585Y82099D01*
X131681Y81588D01*
X131485Y81778D01*
X131129Y82077D01*
X130969Y82187D01*
X130822Y82271D01*
X130686Y82328D01*
X130563Y82360D01*
X130452Y82365D01*
X130353Y82343D01*
X130267Y82296D01*
X131878Y83513D01*
X131812Y83444D01*
D02*
G37*
G36*
X102545Y84960D02*
X102576Y84875D01*
X102626Y84800D01*
X102697Y84735D01*
X102788Y84680D01*
X102899Y84635D01*
X103031Y84600D01*
X103183Y84575D01*
X103355Y84560D01*
X103547Y84555D01*
Y83555D01*
X103355Y83550D01*
X103183Y83535D01*
X103031Y83510D01*
X102899Y83475D01*
X102788Y83430D01*
X102697Y83375D01*
X102626Y83310D01*
X102576Y83235D01*
X102545Y83150D01*
X102535Y83055D01*
Y85055D01*
X102545Y84960D01*
D02*
G37*
G36*
X-25197Y-3286D02*
X-25007Y-3410D01*
X-24787Y-3519D01*
X-24538Y-3613D01*
X-24260Y-3692D01*
X-23953Y-3755D01*
X-23616Y-3804D01*
X-22855Y-3855D01*
X-22431Y-3858D01*
X-25354Y-6781D01*
X-25357Y-6357D01*
X-25409Y-5596D01*
X-25458Y-5260D01*
X-25521Y-4953D01*
X-25600Y-4674D01*
X-25694Y-4426D01*
X-25802Y-4206D01*
X-25927Y-4015D01*
X-26066Y-3854D01*
X-25359Y-3147D01*
X-25197Y-3286D01*
D02*
G37*
G36*
X-49446Y-7265D02*
X-49394Y-8026D01*
X-49346Y-8362D01*
X-49282Y-8669D01*
X-49203Y-8948D01*
X-49110Y-9196D01*
X-49001Y-9416D01*
X-48877Y-9607D01*
X-48737Y-9768D01*
X-49445Y-10475D01*
X-49606Y-10336D01*
X-49796Y-10212D01*
X-50016Y-10103D01*
X-50265Y-10009D01*
X-50543Y-9930D01*
X-50850Y-9867D01*
X-51187Y-9818D01*
X-51948Y-9767D01*
X-52372Y-9764D01*
X-49449Y-6841D01*
X-49446Y-7265D01*
D02*
G37*
G36*
X-77997Y79590D02*
X-77949Y79558D01*
X-77893Y79530D01*
X-77831Y79505D01*
X-77761Y79484D01*
X-77684Y79467D01*
X-77599Y79454D01*
X-77507Y79445D01*
X-77302Y79437D01*
Y78437D01*
X-77408Y78435D01*
X-77599Y78420D01*
X-77684Y78407D01*
X-77761Y78390D01*
X-77831Y78369D01*
X-77893Y78344D01*
X-77949Y78316D01*
X-77997Y78284D01*
X-78037Y78248D01*
Y79626D01*
X-77997Y79590D01*
D02*
G37*
G36*
X-19991Y-25042D02*
X-19416Y-25543D01*
X-19144Y-25747D01*
X-18882Y-25919D01*
X-18629Y-26060D01*
X-18387Y-26170D01*
X-18155Y-26248D01*
X-17932Y-26295D01*
X-17720Y-26311D01*
Y-27311D01*
X-17932Y-27327D01*
X-18155Y-27374D01*
X-18387Y-27452D01*
X-18629Y-27562D01*
X-18882Y-27703D01*
X-19144Y-27875D01*
X-19416Y-28079D01*
X-19991Y-28580D01*
X-20293Y-28878D01*
Y-24744D01*
X-19991Y-25042D01*
D02*
G37*
G36*
X114985Y83055D02*
X114974Y83150D01*
X114944Y83235D01*
X114894Y83310D01*
X114823Y83375D01*
X114732Y83430D01*
X114620Y83475D01*
X114489Y83510D01*
X114337Y83535D01*
X114165Y83550D01*
X113973Y83555D01*
Y84555D01*
X114165Y84560D01*
X114337Y84575D01*
X114489Y84600D01*
X114620Y84635D01*
X114732Y84680D01*
X114823Y84735D01*
X114894Y84800D01*
X114944Y84875D01*
X114974Y84960D01*
X114985Y85055D01*
Y83055D01*
D02*
G37*
G36*
X125195Y84960D02*
X125225Y84875D01*
X125275Y84800D01*
X125345Y84735D01*
X125435Y84680D01*
X125545Y84635D01*
X125675Y84600D01*
X125825Y84575D01*
X125995Y84560D01*
X126185Y84555D01*
Y83555D01*
X125995Y83550D01*
X125825Y83535D01*
X125675Y83510D01*
X125545Y83475D01*
X125435Y83430D01*
X125345Y83375D01*
X125275Y83310D01*
X125225Y83235D01*
X125195Y83150D01*
X125185Y83055D01*
Y85055D01*
X125195Y84960D01*
D02*
G37*
G36*
X108292Y83055D02*
X108282Y83150D01*
X108251Y83235D01*
X108201Y83310D01*
X108130Y83375D01*
X108039Y83430D01*
X107927Y83475D01*
X107796Y83510D01*
X107644Y83535D01*
X107472Y83550D01*
X107280Y83555D01*
Y84555D01*
X107472Y84560D01*
X107644Y84575D01*
X107796Y84600D01*
X107927Y84635D01*
X108039Y84680D01*
X108130Y84735D01*
X108201Y84800D01*
X108251Y84875D01*
X108282Y84960D01*
X108292Y85055D01*
Y83055D01*
D02*
G37*
G36*
X112191Y84960D02*
X112221Y84875D01*
X112272Y84800D01*
X112343Y84735D01*
X112434Y84680D01*
X112545Y84635D01*
X112677Y84600D01*
X112828Y84575D01*
X113001Y84560D01*
X113193Y84555D01*
Y83555D01*
X113001Y83550D01*
X112828Y83535D01*
X112677Y83510D01*
X112545Y83475D01*
X112434Y83430D01*
X112343Y83375D01*
X112272Y83310D01*
X112221Y83235D01*
X112191Y83150D01*
X112181Y83055D01*
Y85055D01*
X112191Y84960D01*
D02*
G37*
G36*
X-11984Y-27811D02*
X-11994Y-27716D01*
X-12024Y-27631D01*
X-12075Y-27556D01*
X-12146Y-27491D01*
X-12237Y-27436D01*
X-12348Y-27391D01*
X-12480Y-27356D01*
X-12632Y-27331D01*
X-12804Y-27316D01*
X-12996Y-27311D01*
Y-26311D01*
X-12804Y-26306D01*
X-12632Y-26291D01*
X-12480Y-26266D01*
X-12348Y-26231D01*
X-12237Y-26186D01*
X-12146Y-26131D01*
X-12075Y-26066D01*
X-12024Y-25991D01*
X-11994Y-25906D01*
X-11984Y-25811D01*
Y-27811D01*
D02*
G37*
D12*
X170669Y0D02*
D03*
X163976D02*
D03*
X-170669D02*
D03*
X-163976D02*
D03*
X-1575Y45276D02*
D03*
X-8268D02*
D03*
X-32283Y-120079D02*
D03*
X-38976Y-120079D02*
D03*
X-31890Y-125984D02*
D03*
X-25197D02*
D03*
X-31890Y-144882D02*
D03*
X-25197Y-144882D02*
D03*
D15*
X0Y171063D02*
D03*
Y164370D02*
D03*
X-197Y-171457D02*
D03*
Y-164764D02*
D03*
X-106102Y95473D02*
D03*
Y102165D02*
D03*
X104331Y77165D02*
D03*
Y70472D02*
D03*
X129921Y77362D02*
D03*
X129921Y84055D02*
D03*
X110236Y77362D02*
D03*
Y84055D02*
D03*
X-81693Y101969D02*
D03*
Y108661D02*
D03*
X-87598Y101772D02*
D03*
Y95079D02*
D03*
D16*
X-3740Y3150D02*
D03*
X-10039D02*
D03*
X97835Y70079D02*
D03*
X91535D02*
D03*
X91535Y76772D02*
D03*
X97835D02*
D03*
X116929Y84055D02*
D03*
X123228D02*
D03*
X-10039Y-26772D02*
D03*
X-3740D02*
D03*
X-37205Y-66929D02*
D03*
X-43504D02*
D03*
X-75984Y109252D02*
D03*
X-69685D02*
D03*
X-69685Y102362D02*
D03*
X-75984D02*
D03*
X-93307Y95472D02*
D03*
X-99606D02*
D03*
D18*
X-14764Y45079D02*
D03*
Y51378D02*
D03*
X-39370Y-113386D02*
D03*
Y-107087D02*
D03*
X-32545Y-107326D02*
D03*
Y-113626D02*
D03*
X-25197Y-132283D02*
D03*
Y-138583D02*
D03*
D23*
X-14764Y45079D02*
X-7874D01*
X-22402Y43189D02*
X-16654D01*
X-14764Y45079D01*
X-22402Y53189D02*
X-16575D01*
X-14764Y51378D01*
D24*
X-106102Y95473D02*
X-99606D01*
X-121664D02*
X-106102D01*
X-133524Y107333D02*
X-121664Y95473D01*
X-26269Y-169360D02*
X-25197Y-168288D01*
Y-144882D01*
X151773Y62204D02*
X159596D01*
X129921Y84055D02*
X151773Y62204D01*
X47953Y33189D02*
X91535Y76772D01*
X-25197Y-132283D02*
Y-117815D01*
X-92815Y94980D02*
X-79528D01*
X-32391Y-125483D02*
Y-113779D01*
X-87205Y102165D02*
X-75787D01*
X97638Y76968D02*
X109843D01*
X-47949Y56613D02*
X-46457Y55121D01*
X-47949Y56613D02*
Y56763D01*
X-70123Y78937D02*
X-47949Y56763D01*
X-78740Y78937D02*
X-70123D01*
X-46457Y29134D02*
Y55121D01*
X-52402Y23189D02*
X-46457Y29134D01*
X-28543Y-669D02*
Y68307D01*
Y-669D02*
X-22402Y-6811D01*
X-114803Y53189D02*
X-52402D01*
X-133661Y72047D02*
X-114803Y53189D01*
X-133661Y42047D02*
X-132520Y43189D01*
X-52402D01*
X-53543Y32047D02*
X-52402Y33189D01*
X-133661Y32047D02*
X-53543D01*
X-22402Y33189D02*
X47953D01*
X-52402Y13189D02*
X-42126Y23465D01*
Y74803D01*
X-69685Y102362D02*
X-42126Y74803D01*
X-52402Y-6811D02*
X-29331Y-29882D01*
Y-104112D02*
Y-29882D01*
X-32545Y-107326D02*
X-29331Y-104112D01*
X-43622Y-66811D02*
X-43504Y-66929D01*
X-52402Y-66811D02*
X-43622D01*
X-22402Y-26811D02*
X-10079D01*
X-22362Y3150D02*
X-10039D01*
X-32391Y-113779D02*
X-16043D01*
X-25197Y-144882D02*
Y-138583D01*
X-75787Y86122D02*
Y102165D01*
X97638Y76968D02*
Y93012D01*
X101476Y84055D02*
X110236D01*
X116929D01*
X123228D02*
X129921D01*
D25*
X-99016Y109252D02*
X-75984D01*
X-38976Y-120079D02*
Y-113779D01*
Y-137795D02*
Y-120079D01*
Y-137795D02*
X-31890Y-144882D01*
X-106102Y102165D02*
X-99016Y109252D01*
X98228Y70472D02*
X104331D01*
X123031D01*
X129921Y77362D01*
D26*
X-18853Y-170336D02*
D03*
D27*
X-26269Y-169360D02*
D03*
X159596Y62204D02*
D03*
X-133524Y107333D02*
D03*
X71772Y113779D02*
D03*
X-133661Y62047D02*
D03*
Y52047D02*
D03*
Y42047D02*
D03*
Y32047D02*
D03*
Y22047D02*
D03*
X-52402Y43189D02*
D03*
Y33189D02*
D03*
Y23189D02*
D03*
Y13189D02*
D03*
Y3189D02*
D03*
Y-6811D02*
D03*
Y-16811D02*
D03*
Y-26811D02*
D03*
Y-36811D02*
D03*
Y-46811D02*
D03*
Y-56811D02*
D03*
Y-66811D02*
D03*
Y-76811D02*
D03*
X-22402Y53189D02*
D03*
Y43189D02*
D03*
Y33189D02*
D03*
Y23189D02*
D03*
Y13189D02*
D03*
Y3189D02*
D03*
Y-6811D02*
D03*
Y-16811D02*
D03*
Y-26811D02*
D03*
Y-36811D02*
D03*
Y-46811D02*
D03*
Y-56811D02*
D03*
Y-66811D02*
D03*
Y-76811D02*
D03*
X72244Y71693D02*
D03*
X-134843Y-36535D02*
D03*
Y-46535D02*
D03*
Y-56535D02*
D03*
D28*
X156734Y69115D02*
D03*
D29*
X-138077Y101398D02*
D03*
D30*
X51772Y113779D02*
D03*
X-52402Y53189D02*
D03*
D31*
X61772Y113779D02*
D03*
D32*
X-133661Y72047D02*
D03*
X72244Y81693D02*
D03*
X-134843Y-66535D02*
D03*
D33*
X-84055Y-22284D02*
D03*
Y-41496D02*
D03*
D34*
X-33268Y59252D02*
D03*
D35*
X-14764Y51378D02*
D03*
X-197Y-171457D02*
D03*
X-120476Y-120476D02*
D03*
X-170669Y0D02*
D03*
X-120476Y120476D02*
D03*
X0Y170669D02*
D03*
X120476Y120476D02*
D03*
X170669Y0D02*
D03*
X120280Y-120280D02*
D03*
X-78740Y78937D02*
D03*
X-28543Y68307D02*
D03*
X-75984Y109252D02*
D03*
X-39370Y-113583D02*
D03*
X97835Y69882D02*
D03*
X-7874Y45079D02*
D03*
D36*
X115547Y-115547D02*
D03*
X120280Y-120280D02*
D03*
X-115941Y115941D02*
D03*
X-120673Y120673D02*
D03*
D37*
X115744Y115744D02*
D03*
X120476Y120476D02*
D03*
X-120476Y-120476D02*
D03*
X-115744Y-115744D02*
D03*
D38*
X101378Y84153D02*
D03*
X93898D02*
D03*
X97638Y93012D02*
D03*
X-79528Y94980D02*
D03*
X-72047D02*
D03*
X-75787Y86122D02*
D03*
D39*
X-24902Y-117520D02*
D03*
Y-110039D02*
D03*
X-16043Y-113779D02*
D03*
M02*
