G04 Layer_Color=32896*
%FSLAX25Y25*%
%MOIN*%
G70*
G01*
G75*
%ADD24C,0.01000*%
%ADD40C,0.00984*%
%ADD41C,0.00787*%
D24*
X-313637Y-323535D02*
G03*
X-313637Y-323535I-11811J0D01*
G01*
X116243Y-118470D02*
X117357Y-119584D01*
X118470Y-116243D02*
X119584Y-117357D01*
X118667Y116440D02*
X119781Y117553D01*
X116440Y118667D02*
X117553Y119781D01*
X-117750Y119977D02*
X-116637Y118864D01*
X-119977Y117750D02*
X-118864Y116637D01*
X166535Y1575D02*
X168110D01*
X166535Y-1575D02*
X168110D01*
X-1575Y166929D02*
Y168504D01*
X1575Y166929D02*
Y168504D01*
X-168110Y-1575D02*
X-166535D01*
X-168110Y1575D02*
X-166535D01*
X-117553Y-119781D02*
X-116440Y-118667D01*
X-119781Y-117553D02*
X-118667Y-116440D01*
X1378Y-168898D02*
Y-167323D01*
X-1772Y-168898D02*
Y-167323D01*
X-104527Y98032D02*
Y99606D01*
X-107677Y98032D02*
Y99606D01*
X-5709Y46850D02*
X-4134D01*
X-5709Y43701D02*
X-4134D01*
X103543Y87795D02*
Y91339D01*
X100394D02*
X103543D01*
X91732Y87795D02*
Y91339D01*
X94882D01*
X102756Y73032D02*
Y74606D01*
X105905Y73032D02*
Y74606D01*
X131496Y79921D02*
Y81496D01*
X128347Y79921D02*
Y81496D01*
X111811Y79921D02*
Y81496D01*
X108661Y79921D02*
Y81496D01*
X-81693Y87795D02*
Y91339D01*
Y87795D02*
X-78543D01*
X-69882D02*
Y91339D01*
X-73032Y87795D02*
X-69882D01*
X-36417Y-118504D02*
X-34843D01*
X-36417Y-121653D02*
X-34843Y-121653D01*
X-80118Y104528D02*
Y106102D01*
X-83268Y104528D02*
Y106102D01*
X-29331Y-127559D02*
X-27756D01*
X-29331Y-124409D02*
X-27756D01*
X-89173Y97638D02*
Y99213D01*
X-86024Y97638D02*
Y99213D01*
X-29331Y-146457D02*
X-27756D01*
X-29331Y-143307D02*
X-27756Y-143307D01*
X-21260Y-119685D02*
X-17717D01*
Y-116535D01*
X-21260Y-107874D02*
X-17717D01*
Y-111024D02*
Y-107874D01*
D40*
X105217Y84153D02*
G03*
X105217Y84153I-492J0D01*
G01*
X-82382Y94980D02*
G03*
X-82382Y94980I-492J0D01*
G01*
X-24409Y-120866D02*
G03*
X-24409Y-120866I-492J0D01*
G01*
D41*
X-103543Y107283D02*
Y110432D01*
X-105118D01*
X-105642Y109907D01*
Y108858D01*
X-105118Y108333D01*
X-103543D01*
X-104593D02*
X-105642Y107283D01*
X-106692Y107808D02*
X-107217Y107283D01*
X-108266D01*
X-108791Y107808D01*
Y109907D01*
X-108266Y110432D01*
X-107217D01*
X-106692Y109907D01*
Y109382D01*
X-107217Y108858D01*
X-108791D01*
X13189Y42913D02*
Y46062D01*
X11615D01*
X11090Y45537D01*
Y44488D01*
X11615Y43963D01*
X13189D01*
X12139D02*
X11090Y42913D01*
X7941D02*
X10040D01*
X7941Y45013D01*
Y45537D01*
X8466Y46062D01*
X9516D01*
X10040Y45537D01*
X5317Y42913D02*
Y46062D01*
X6892Y44488D01*
X4793D01*
X93964Y65025D02*
X94489Y65550D01*
X95538D01*
X96063Y65025D01*
Y62926D01*
X95538Y62402D01*
X94489D01*
X93964Y62926D01*
X92914Y62402D02*
X91865D01*
X92390D01*
Y65550D01*
X92914Y65025D01*
X84515Y77427D02*
X85040Y77952D01*
X86089D01*
X86614Y77427D01*
Y75328D01*
X86089Y74803D01*
X85040D01*
X84515Y75328D01*
X81366Y77952D02*
X82416Y77427D01*
X83466Y76377D01*
Y75328D01*
X82941Y74803D01*
X81891D01*
X81366Y75328D01*
Y75853D01*
X81891Y76377D01*
X83466D01*
X120539Y79002D02*
X121063Y79527D01*
X122113D01*
X122638Y79002D01*
Y76903D01*
X122113Y76378D01*
X121063D01*
X120539Y76903D01*
X119489D02*
X118964Y76378D01*
X117915D01*
X117390Y76903D01*
Y79002D01*
X117915Y79527D01*
X118964D01*
X119489Y79002D01*
Y78477D01*
X118964Y77952D01*
X117390D01*
X-18634Y62270D02*
X-18110Y62794D01*
X-17060D01*
X-16535Y62270D01*
Y60170D01*
X-17060Y59646D01*
X-18110D01*
X-18634Y60170D01*
X-19684Y59646D02*
X-20733D01*
X-20209D01*
Y62794D01*
X-19684Y62270D01*
X-23882Y59646D02*
Y62794D01*
X-22308Y61220D01*
X-24407D01*
X-5249Y9514D02*
X-4724Y10038D01*
X-3674D01*
X-3150Y9514D01*
Y7414D01*
X-3674Y6890D01*
X-4724D01*
X-5249Y7414D01*
X-6298Y6890D02*
X-7348D01*
X-6823D01*
Y10038D01*
X-6298Y9514D01*
X-8922D02*
X-9447Y10038D01*
X-10496D01*
X-11021Y9514D01*
Y8989D01*
X-10496Y8464D01*
X-11021Y7939D01*
Y7414D01*
X-10496Y6890D01*
X-9447D01*
X-8922Y7414D01*
Y7939D01*
X-9447Y8464D01*
X-8922Y8989D01*
Y9514D01*
X-9447Y8464D02*
X-10496D01*
X-3460Y-18237D02*
X-2935Y-17712D01*
X-1885D01*
X-1361Y-18237D01*
Y-20336D01*
X-1885Y-20861D01*
X-2935D01*
X-3460Y-20336D01*
X-6608Y-20861D02*
X-4509D01*
X-6608Y-18762D01*
Y-18237D01*
X-6084Y-17712D01*
X-5034D01*
X-4509Y-18237D01*
X-7658D02*
X-8183Y-17712D01*
X-9232D01*
X-9757Y-18237D01*
Y-20336D01*
X-9232Y-20861D01*
X-8183D01*
X-7658Y-20336D01*
Y-18237D01*
X-30642Y-72179D02*
X-30118Y-71655D01*
X-29068D01*
X-28543Y-72179D01*
Y-74278D01*
X-29068Y-74803D01*
X-30118D01*
X-30642Y-74278D01*
X-33791Y-74803D02*
X-31692D01*
X-33791Y-72704D01*
Y-72179D01*
X-33266Y-71655D01*
X-32217D01*
X-31692Y-72179D01*
X-34841Y-74803D02*
X-35890D01*
X-35365D01*
Y-71655D01*
X-34841Y-72179D01*
X91208Y93635D02*
Y95734D01*
X91733Y96259D01*
X92782D01*
X93307Y95734D01*
Y93635D01*
X92782Y93110D01*
X91733D01*
X92258Y94160D02*
X91208Y93110D01*
X91733D02*
X91208Y93635D01*
X90158Y93110D02*
X89109D01*
X89634D01*
Y96259D01*
X90158Y95734D01*
X107087Y63386D02*
Y66534D01*
X105512D01*
X104988Y66010D01*
Y64960D01*
X105512Y64435D01*
X107087D01*
X106037D02*
X104988Y63386D01*
X103938Y66010D02*
X103413Y66534D01*
X102364D01*
X101839Y66010D01*
Y65485D01*
X102364Y64960D01*
X102889D01*
X102364D01*
X101839Y64435D01*
Y63911D01*
X102364Y63386D01*
X103413D01*
X103938Y63911D01*
X132087Y88779D02*
Y91928D01*
X130512D01*
X129988Y91403D01*
Y90354D01*
X130512Y89829D01*
X132087D01*
X131037D02*
X129988Y88779D01*
X128938Y91403D02*
X128413Y91928D01*
X127364D01*
X126839Y91403D01*
Y90879D01*
X127364Y90354D01*
X126839Y89829D01*
Y89304D01*
X127364Y88779D01*
X128413D01*
X128938Y89304D01*
Y89829D01*
X128413Y90354D01*
X128938Y90879D01*
Y91403D01*
X128413Y90354D02*
X127364D01*
X113976Y88386D02*
Y91534D01*
X112402D01*
X111877Y91010D01*
Y89960D01*
X112402Y89435D01*
X113976D01*
X112927D02*
X111877Y88386D01*
X110828D02*
X109778D01*
X110303D01*
Y91534D01*
X110828Y91010D01*
X108204D02*
X107679Y91534D01*
X106630D01*
X106105Y91010D01*
Y90485D01*
X106630Y89960D01*
X107154D01*
X106630D01*
X106105Y89435D01*
Y88911D01*
X106630Y88386D01*
X107679D01*
X108204Y88911D01*
X-42650Y-99148D02*
X-42125Y-98623D01*
X-41076D01*
X-40551Y-99148D01*
Y-101247D01*
X-41076Y-101772D01*
X-42125D01*
X-42650Y-101247D01*
X-43700Y-99148D02*
X-44225Y-98623D01*
X-45274D01*
X-45799Y-99148D01*
Y-99673D01*
X-45274Y-100197D01*
X-44749D01*
X-45274D01*
X-45799Y-100722D01*
Y-101247D01*
X-45274Y-101772D01*
X-44225D01*
X-43700Y-101247D01*
X-61548Y109907D02*
X-61023Y110432D01*
X-59974D01*
X-59449Y109907D01*
Y107808D01*
X-59974Y107283D01*
X-61023D01*
X-61548Y107808D01*
X-64697Y107283D02*
X-62597D01*
X-64697Y109382D01*
Y109907D01*
X-64172Y110432D01*
X-63122D01*
X-62597Y109907D01*
X-32020Y-98951D02*
X-31496Y-98426D01*
X-30446D01*
X-29921Y-98951D01*
Y-101050D01*
X-30446Y-101575D01*
X-31496D01*
X-32020Y-101050D01*
X-33070Y-98951D02*
X-33595Y-98426D01*
X-34644D01*
X-35169Y-98951D01*
Y-99476D01*
X-34644Y-100001D01*
X-35169Y-100525D01*
Y-101050D01*
X-34644Y-101575D01*
X-33595D01*
X-33070Y-101050D01*
Y-100525D01*
X-33595Y-100001D01*
X-33070Y-99476D01*
Y-98951D01*
X-33595Y-100001D02*
X-34644D01*
X-61154Y103017D02*
X-60629Y103542D01*
X-59580D01*
X-59055Y103017D01*
Y100918D01*
X-59580Y100394D01*
X-60629D01*
X-61154Y100918D01*
X-62204Y103542D02*
X-64303D01*
Y103017D01*
X-62204Y100918D01*
Y100394D01*
X-31233Y-137534D02*
X-30708Y-137009D01*
X-29659D01*
X-29134Y-137534D01*
Y-139633D01*
X-29659Y-140157D01*
X-30708D01*
X-31233Y-139633D01*
X-32283Y-140157D02*
X-33332D01*
X-32807D01*
Y-137009D01*
X-32283Y-137534D01*
X-34906Y-140157D02*
X-35956D01*
X-35431D01*
Y-137009D01*
X-34906Y-137534D01*
X-92847Y102427D02*
X-92322Y102952D01*
X-91273D01*
X-90748Y102427D01*
Y100328D01*
X-91273Y99803D01*
X-92322D01*
X-92847Y100328D01*
X-93897Y99803D02*
X-94946D01*
X-94421D01*
Y102952D01*
X-93897Y102427D01*
X-96521D02*
X-97045Y102952D01*
X-98095D01*
X-98620Y102427D01*
Y100328D01*
X-98095Y99803D01*
X-97045D01*
X-96521Y100328D01*
Y102427D01*
X-20012Y-105184D02*
Y-103085D01*
X-19488Y-102560D01*
X-18438D01*
X-17913Y-103085D01*
Y-105184D01*
X-18438Y-105709D01*
X-19488D01*
X-18963Y-104659D02*
X-20012Y-105709D01*
X-19488D02*
X-20012Y-105184D01*
X-21062Y-103085D02*
X-21587Y-102560D01*
X-22636D01*
X-23161Y-103085D01*
Y-103610D01*
X-22636Y-104134D01*
X-22111D01*
X-22636D01*
X-23161Y-104659D01*
Y-105184D01*
X-22636Y-105709D01*
X-21587D01*
X-21062Y-105184D01*
X-62926Y89107D02*
Y91207D01*
X-62401Y91731D01*
X-61352D01*
X-60827Y91207D01*
Y89107D01*
X-61352Y88583D01*
X-62401D01*
X-61876Y89632D02*
X-62926Y88583D01*
X-62401D02*
X-62926Y89107D01*
X-66074Y88583D02*
X-63975D01*
X-66074Y90682D01*
Y91207D01*
X-65550Y91731D01*
X-64500D01*
X-63975Y91207D01*
X-45472Y-120473D02*
Y-117324D01*
X-47047D01*
X-47572Y-117849D01*
Y-118898D01*
X-47047Y-119423D01*
X-45472D01*
X-46522D02*
X-47572Y-120473D01*
X-50720Y-117324D02*
X-48621D01*
Y-118898D01*
X-49671Y-118373D01*
X-50195D01*
X-50720Y-118898D01*
Y-119948D01*
X-50195Y-120473D01*
X-49146D01*
X-48621Y-119948D01*
X-80118Y112598D02*
Y115747D01*
X-81692D01*
X-82217Y115222D01*
Y114173D01*
X-81692Y113648D01*
X-80118D01*
X-81168D02*
X-82217Y112598D01*
X-84841D02*
Y115747D01*
X-83267Y114173D01*
X-85366D01*
X-36024Y-147638D02*
Y-144489D01*
X-37598D01*
X-38123Y-145014D01*
Y-146063D01*
X-37598Y-146588D01*
X-36024D01*
X-37073D02*
X-38123Y-147638D01*
X-39172D02*
X-40222D01*
X-39697D01*
Y-144489D01*
X-39172Y-145014D01*
X-41796D02*
X-42321Y-144489D01*
X-43370D01*
X-43895Y-145014D01*
Y-147113D01*
X-43370Y-147638D01*
X-42321D01*
X-41796Y-147113D01*
Y-145014D01*
X-37008Y-128740D02*
Y-125592D01*
X-38582D01*
X-39107Y-126116D01*
Y-127166D01*
X-38582Y-127691D01*
X-37008D01*
X-38057D02*
X-39107Y-128740D01*
X-40156D02*
X-41206D01*
X-40681D01*
Y-125592D01*
X-40156Y-126116D01*
X-44879Y-125592D02*
X-42780D01*
Y-127166D01*
X-43830Y-126641D01*
X-44355D01*
X-44879Y-127166D01*
Y-128215D01*
X-44355Y-128740D01*
X-43305D01*
X-42780Y-128215D01*
X-86024Y106299D02*
Y109448D01*
X-87598D01*
X-88123Y108923D01*
Y107873D01*
X-87598Y107349D01*
X-86024D01*
X-87073D02*
X-88123Y106299D01*
X-89172D02*
X-90222D01*
X-89697D01*
Y109448D01*
X-89172Y108923D01*
X-93370Y106299D02*
Y109448D01*
X-91796Y107873D01*
X-93895D01*
M02*
