G04 Layer_Color=32768*
%FSLAX25Y25*%
%MOIN*%
G70*
G01*
G75*
%ADD71C,0.00394*%
%ADD72C,0.00197*%
D71*
X-6890Y1280D02*
Y5020D01*
X-8760Y3150D02*
X-5020D01*
X-12992Y6102D02*
X-787D01*
X-12992Y197D02*
X-787D01*
Y6102D01*
X-12992Y197D02*
Y6102D01*
X-6693Y1280D02*
Y5020D01*
X-8563Y3150D02*
X-4823D01*
X-12795Y6102D02*
X-591D01*
X-12795Y197D02*
X-591D01*
X-12795D02*
Y6102D01*
X-591Y197D02*
Y6102D01*
X111511Y-115686D02*
X115686Y-111510D01*
X120141Y-124316D02*
X124316Y-120141D01*
X111511Y-115686D02*
X120141Y-124316D01*
X115686Y-111510D02*
X124316Y-120141D01*
X116591Y-116591D02*
X119236Y-119236D01*
X116591D02*
X119236Y-116591D01*
X111707Y115883D02*
X115883Y111707D01*
X120337Y124513D02*
X124513Y120337D01*
X115883Y111707D02*
X124513Y120337D01*
X111707Y115883D02*
X120337Y124513D01*
X116788Y116788D02*
X119433Y119433D01*
X116788D02*
X119433Y116788D01*
X-116080Y111904D02*
X-111904Y116080D01*
X-124710Y120534D02*
X-120534Y124710D01*
X-111904Y116080D01*
X-124710Y120534D02*
X-116080Y111904D01*
X-119629Y119629D02*
X-116985Y116985D01*
X-119629D02*
X-116985Y119629D01*
X167323Y-1870D02*
Y1870D01*
X165453Y0D02*
X169193D01*
X161221Y2953D02*
X173425D01*
X161221Y-2953D02*
X173425D01*
Y2953D01*
X161221Y-2953D02*
Y2953D01*
X-1870Y167717D02*
X1870D01*
X0Y165847D02*
Y169587D01*
X-2953Y161614D02*
Y173819D01*
X2953Y161614D02*
Y173819D01*
X-2953D02*
X2953D01*
X-2953Y161614D02*
X2953D01*
X-167323Y-1870D02*
Y1870D01*
X-169193Y0D02*
X-165453D01*
X-173425Y-2953D02*
X-161221D01*
X-173425Y2953D02*
X-161221D01*
X-173425Y-2953D02*
Y2953D01*
X-161221Y-2953D02*
Y2953D01*
X-119433Y-116788D02*
X-116788Y-119433D01*
X-119433D02*
X-116788Y-116788D01*
X-120337Y-124513D02*
X-111707Y-115883D01*
X-124513Y-120337D02*
X-115883Y-111707D01*
X-124513Y-120337D02*
X-120337Y-124513D01*
X-115883Y-111707D02*
X-111707Y-115883D01*
X-2067Y-168110D02*
X1673D01*
X-197Y-169980D02*
Y-166240D01*
X2756Y-174213D02*
Y-162008D01*
X-3150Y-174213D02*
Y-162008D01*
Y-174213D02*
X2756D01*
X-3150Y-162008D02*
X2756D01*
X-16634Y48228D02*
X-12894D01*
X-14764Y46358D02*
Y50098D01*
X-11811Y42126D02*
Y54331D01*
X-17717Y42126D02*
Y54331D01*
Y42126D02*
X-11811D01*
X-17717Y54331D02*
X-11811D01*
X-107972Y98819D02*
X-104232D01*
X-106102Y96949D02*
Y100689D01*
X-103150Y92716D02*
Y104921D01*
X-109055Y92716D02*
Y104921D01*
Y92716D02*
X-103150D01*
X-109055Y104921D02*
X-103150D01*
X-4921Y43406D02*
Y47146D01*
X-6791Y45276D02*
X-3051D01*
X-11024Y48228D02*
X1181D01*
X-11024Y42323D02*
X1181D01*
Y48228D01*
X-11024Y42323D02*
Y48228D01*
X94685Y68209D02*
Y71949D01*
X92815Y70079D02*
X96555D01*
X88583Y73032D02*
X100787D01*
X88583Y67126D02*
X100787D01*
Y73032D01*
X88583D02*
X88583Y67126D01*
X94685Y78642D02*
X94685Y74902D01*
X92815Y76772D02*
X96555D01*
X88583Y73819D02*
X100787D01*
X88583Y79724D02*
X100787D01*
X88583D02*
X88583Y73819D01*
X100787D02*
Y79724D01*
X120079Y85925D02*
X120079Y82185D01*
X118209Y84055D02*
X121949D01*
X113976Y81102D02*
X126181D01*
X113976Y87008D02*
X126181D01*
X113976D02*
X113976Y81102D01*
X126181D02*
X126181Y87008D01*
X-6890Y-28642D02*
Y-24902D01*
X-8760Y-26772D02*
X-5020D01*
X-12992Y-29724D02*
X-787D01*
X-12992Y-23819D02*
X-787D01*
X-12992Y-29724D02*
Y-23819D01*
X-787Y-29724D02*
Y-23819D01*
X-40354Y-68799D02*
Y-65059D01*
X-42224Y-66929D02*
X-38484D01*
X-46457Y-63976D02*
X-34252D01*
X-46457Y-69882D02*
X-34252D01*
Y-63976D01*
X-46457Y-69882D02*
Y-63976D01*
X90748Y80905D02*
X104528D01*
X90748Y96260D02*
X104528Y96260D01*
Y80905D02*
Y96260D01*
X90748Y80905D02*
Y96260D01*
X97638Y86614D02*
Y90551D01*
X95669Y88583D02*
X99606D01*
X101378Y79921D02*
X107283D01*
X101378Y67716D02*
X107283Y67716D01*
X101378Y67716D02*
Y79921D01*
X107283Y67716D02*
Y79921D01*
X104331Y71949D02*
Y75689D01*
X102461Y73819D02*
X106201Y73819D01*
X126969Y74606D02*
X132874D01*
X126969Y86811D02*
X132874Y86811D01*
Y74606D02*
Y86811D01*
X126969Y74606D02*
Y86811D01*
X129921Y78839D02*
Y82579D01*
X128051Y80709D02*
X131791Y80709D01*
X107283Y74606D02*
X113189D01*
X107283Y86811D02*
X113189D01*
X113189Y74606D01*
X107283D02*
Y86811D01*
X110236Y78839D02*
Y82579D01*
X108366Y80709D02*
X112106D01*
X-41240Y-110236D02*
X-37500D01*
X-39370Y-112106D02*
X-39370Y-108366D01*
X-36417Y-116339D02*
X-36417Y-104134D01*
X-42323Y-116339D02*
Y-104134D01*
Y-116339D02*
X-36417Y-116339D01*
X-42323Y-104134D02*
X-36417D01*
X-72835Y107382D02*
Y111122D01*
X-74705Y109252D02*
X-70965D01*
X-78937Y106299D02*
X-66732D01*
X-78937Y112205D02*
X-66732D01*
X-78937Y106299D02*
Y112205D01*
X-66732Y106299D02*
Y112205D01*
X-34415Y-110476D02*
X-30675Y-110476D01*
X-32545Y-112346D02*
Y-108606D01*
X-35498Y-116578D02*
Y-104374D01*
X-29592Y-116578D02*
Y-104374D01*
X-35498Y-104374D02*
X-29592Y-104374D01*
X-35498Y-116578D02*
X-29592D01*
X-72835Y100492D02*
Y104232D01*
X-74705Y102362D02*
X-70965D01*
X-78937Y105315D02*
X-66732D01*
X-78937Y99410D02*
X-66732D01*
Y105315D01*
X-78937Y99410D02*
Y105315D01*
X-27067Y-135433D02*
X-23327Y-135433D01*
X-25197Y-137303D02*
X-25197Y-133563D01*
X-28150Y-141535D02*
Y-129331D01*
X-22244Y-141535D02*
Y-129331D01*
X-28150Y-129331D02*
X-22244Y-129331D01*
X-28150Y-141535D02*
X-22244D01*
X-96457Y93602D02*
Y97342D01*
X-98327Y95472D02*
X-94587D01*
X-102559Y98425D02*
X-90354D01*
X-102559Y92520D02*
X-90354D01*
Y98425D01*
X-102559Y92520D02*
Y98425D01*
X-82677Y98228D02*
X-68898D01*
X-82677Y82874D02*
X-68898Y82874D01*
X-82677Y82874D02*
Y98228D01*
X-68898Y82874D02*
Y98228D01*
X-75787Y88583D02*
Y92520D01*
X-77756Y90551D02*
X-73819D01*
X-29528Y-117126D02*
X-29528Y-123031D01*
X-41732Y-117126D02*
X-41732Y-123031D01*
X-41732Y-117126D02*
X-29528D01*
X-41732Y-123031D02*
X-29528D01*
X-37500Y-120079D02*
X-33760Y-120079D01*
X-35630Y-118209D02*
X-35630Y-121949D01*
X-84646Y99213D02*
X-78740D01*
X-84646Y111417D02*
X-78740D01*
Y99213D02*
Y111417D01*
X-84646Y99213D02*
Y111417D01*
X-81693Y103445D02*
Y107185D01*
X-83563Y105315D02*
X-79823D01*
X-34646Y-123031D02*
X-34646Y-128937D01*
X-22441D02*
X-22441Y-123031D01*
X-34646Y-128937D02*
X-22441D01*
X-34646Y-123031D02*
X-22441D01*
X-30413Y-125984D02*
X-26673D01*
X-28543Y-124114D02*
X-28543Y-127854D01*
X-90551Y104527D02*
X-84646D01*
X-90551Y92323D02*
X-84646D01*
X-90551D02*
Y104527D01*
X-84646Y92323D02*
Y104527D01*
X-87598Y96555D02*
Y100295D01*
X-89468Y98425D02*
X-85728D01*
X-34646Y-147835D02*
X-34646Y-141929D01*
X-22441Y-147835D02*
X-22441Y-141929D01*
X-34646Y-147835D02*
X-22441D01*
X-34646Y-141929D02*
X-22441D01*
X-30413Y-144882D02*
X-26673Y-144882D01*
X-28543Y-146752D02*
X-28543Y-143012D01*
X-28150Y-120669D02*
Y-106890D01*
X-12795D02*
X-12795Y-120669D01*
X-28150D02*
X-12795D01*
X-28150Y-106890D02*
X-12795D01*
X-22441Y-113779D02*
X-18504D01*
X-20472Y-115748D02*
Y-111811D01*
X-4528Y15846D02*
Y19587D01*
X-6398Y17717D02*
X-2657D01*
X-10630Y14764D02*
X1575D01*
X-10630Y20669D02*
X1575D01*
Y14764D02*
Y20669D01*
X-10630Y14764D02*
Y20669D01*
X42913Y64272D02*
Y68012D01*
X41043Y66142D02*
X44783D01*
X36811Y63189D02*
X49016D01*
X36811Y69095D02*
X49016D01*
Y63189D02*
Y69095D01*
X36811Y63189D02*
Y69095D01*
X17224Y93307D02*
X20965D01*
X19094Y91437D02*
Y95177D01*
X16142Y87205D02*
Y99409D01*
X22047Y87205D02*
Y99409D01*
X16142Y87205D02*
X22047D01*
X16142Y99409D02*
X22047D01*
X-39370Y-11811D02*
X-35433D01*
X-37402Y-13780D02*
Y-9843D01*
X-102165Y-24902D02*
Y-21161D01*
X-104035Y-23031D02*
X-100295D01*
X-108268Y-20079D02*
X-96063D01*
X-108268Y-25984D02*
X-96063D01*
X-108268D02*
Y-20079D01*
X-96063Y-25984D02*
Y-20079D01*
X-102165Y-42618D02*
Y-38878D01*
X-104035Y-40748D02*
X-100295D01*
X-108268Y-37795D02*
X-96063D01*
X-108268Y-43701D02*
X-96063D01*
X-108268D02*
Y-37795D01*
X-96063Y-43701D02*
Y-37795D01*
X20866Y77953D02*
X24803D01*
X22835Y75984D02*
Y79921D01*
X29724Y64272D02*
Y68012D01*
X27854Y66142D02*
X31594D01*
X23622Y69095D02*
X35827Y69095D01*
X23622Y63189D02*
X35827D01*
X23622D02*
Y69095D01*
X35827Y63189D02*
Y69095D01*
X29724Y87894D02*
Y91634D01*
X27854Y89764D02*
X31594D01*
X23622Y86811D02*
X35827D01*
X23622Y92716D02*
X35827D01*
Y86811D02*
Y92716D01*
X23622D02*
X23622Y86811D01*
X-84153Y62598D02*
X-80413D01*
X-82284Y60728D02*
Y64468D01*
X-79331Y56496D02*
Y68701D01*
X-85236Y56496D02*
Y68701D01*
X-79331D01*
X-85236Y56496D02*
X-79331D01*
X15945Y64272D02*
Y68012D01*
X14075Y66142D02*
X17815D01*
X9843Y63189D02*
X22047Y63189D01*
X9843Y69095D02*
X22047D01*
Y63189D02*
Y69095D01*
X9843Y63189D02*
Y69095D01*
X-9744Y62402D02*
X-6004D01*
X-7874Y60532D02*
Y64272D01*
X-10827Y56299D02*
Y68504D01*
X-4921Y56299D02*
Y68504D01*
X-10827Y56299D02*
X-4921D01*
X-10827Y68504D02*
X-4921D01*
X-9744Y48228D02*
X-6004D01*
X-7874Y46358D02*
Y50098D01*
X-4921Y42126D02*
Y54331D01*
X-10827Y42126D02*
Y54331D01*
X-4921D01*
X-10827Y42126D02*
X-4921D01*
X-102165Y-25787D02*
X-96260D01*
X-102165Y-37992D02*
X-96260D01*
Y-25787D01*
X-102165Y-37992D02*
Y-25787D01*
X-99213Y-33760D02*
Y-30020D01*
X-101083Y-31890D02*
X-97342D01*
X-65551Y49606D02*
Y55512D01*
X-77756Y49606D02*
Y55512D01*
Y49606D02*
X-65551D01*
X-77756Y55512D02*
X-65551D01*
X-73524Y52559D02*
X-69784D01*
X-71654Y50689D02*
Y54429D01*
X-70866Y29429D02*
Y33169D01*
X-72736Y31299D02*
X-68996D01*
X-76968Y34252D02*
X-64764D01*
X-76968Y28346D02*
X-64764D01*
X-76968D02*
Y34252D01*
X-64764Y28346D02*
Y34252D01*
X-76870Y62598D02*
X-73130D01*
X-75000Y60728D02*
Y64468D01*
X-72047Y56496D02*
Y68701D01*
X-77953Y56496D02*
Y68701D01*
X-72047D01*
X-77953Y56496D02*
X-72047D01*
D72*
X15748Y70079D02*
Y85827D01*
X29921Y70079D02*
Y85827D01*
X15748Y70079D02*
X29921Y70079D01*
X15748Y85827D02*
X29921D01*
M02*
