G04 Layer_Color=8421504*
%FSLAX25Y25*%
%MOIN*%
G70*
G01*
G75*
%ADD10R,0.04724X0.04724*%
%ADD11R,0.06299X0.05906*%
%ADD12R,0.03543X0.03937*%
%ADD13R,0.04724X0.02756*%
%ADD14R,0.04331X0.03937*%
%ADD15R,0.03937X0.03543*%
%ADD16R,0.03937X0.03937*%
%ADD17R,0.02559X0.04331*%
%ADD18R,0.03937X0.03937*%
G04:AMPARAMS|DCode=19|XSize=39.37mil|YSize=43.31mil|CornerRadius=0mil|HoleSize=0mil|Usage=FLASHONLY|Rotation=135.000|XOffset=0mil|YOffset=0mil|HoleType=Round|Shape=Rectangle|*
%AMROTATEDRECTD19*
4,1,4,0.02923,0.00139,-0.00139,-0.02923,-0.02923,-0.00139,0.00139,0.02923,0.02923,0.00139,0.0*
%
%ADD19ROTATEDRECTD19*%

%ADD20R,0.03937X0.04331*%
G04:AMPARAMS|DCode=21|XSize=39.37mil|YSize=43.31mil|CornerRadius=0mil|HoleSize=0mil|Usage=FLASHONLY|Rotation=225.000|XOffset=0mil|YOffset=0mil|HoleType=Round|Shape=Rectangle|*
%AMROTATEDRECTD21*
4,1,4,-0.00139,0.02923,0.02923,-0.00139,0.00139,-0.02923,-0.02923,0.00139,-0.00139,0.02923,0.0*
%
%ADD21ROTATEDRECTD21*%

%ADD22R,0.03937X0.03740*%
D10*
X8858Y1969D02*
D03*
X16732D02*
D03*
D11*
X12795Y15551D02*
D03*
D12*
X-10039Y3150D02*
D03*
X-3347D02*
D03*
X-1181Y17717D02*
D03*
X-7874D02*
D03*
X46260Y66142D02*
D03*
X39567D02*
D03*
X-68307Y52559D02*
D03*
X-75000D02*
D03*
X-74213Y31299D02*
D03*
X-67520D02*
D03*
D13*
X-82480Y43307D02*
D03*
X-106102D02*
D03*
Y31496D02*
D03*
X-82480D02*
D03*
D14*
X-7874Y23425D02*
D03*
X-1181D02*
D03*
X39370Y73032D02*
D03*
X46063D02*
D03*
X170669Y0D02*
D03*
X163976D02*
D03*
X-170669D02*
D03*
X-163976D02*
D03*
D15*
X19094Y89961D02*
D03*
Y96653D02*
D03*
X-99213Y-28543D02*
D03*
Y-35236D02*
D03*
X-75000Y65945D02*
D03*
Y59252D02*
D03*
D16*
X-105315Y-23031D02*
D03*
X-99016D02*
D03*
X-105315Y-40748D02*
D03*
X-99016D02*
D03*
X26575Y66142D02*
D03*
X32874D02*
D03*
X32874Y89764D02*
D03*
X26575D02*
D03*
X19094Y66142D02*
D03*
X12795D02*
D03*
D17*
X26575Y73228D02*
D03*
X19094D02*
D03*
Y82677D02*
D03*
X22835D02*
D03*
X26575Y82677D02*
D03*
D18*
X-82284Y65748D02*
D03*
Y59449D02*
D03*
X-7874Y59252D02*
D03*
Y65551D02*
D03*
X-7874Y51378D02*
D03*
Y45079D02*
D03*
D19*
X120476Y120476D02*
D03*
X115744Y115744D02*
D03*
X-120476Y-120476D02*
D03*
X-115744Y-115744D02*
D03*
D20*
X0Y170669D02*
D03*
Y163976D02*
D03*
X-197Y-171457D02*
D03*
Y-164764D02*
D03*
D21*
X-120476Y120476D02*
D03*
X-115744Y115744D02*
D03*
X120476Y-120476D02*
D03*
X115744Y-115744D02*
D03*
D22*
X-1673Y59252D02*
D03*
X-1673Y51772D02*
D03*
X7185Y55512D02*
D03*
M02*
