G04 Layer_Color=2752767*
%FSLAX25Y25*%
%MOIN*%
G70*
G01*
G75*
%ADD73C,0.00500*%
%ADD74C,0.00667*%
D73*
X-20853Y-172336D02*
Y-168336D01*
X-16853D01*
Y-172336D01*
X-20853D01*
X-28269Y-171360D02*
Y-167360D01*
X-24269D01*
Y-171360D01*
X-28269D01*
X154734Y67115D02*
Y71114D01*
X158734D01*
Y67115D01*
X154734D01*
X157596Y60204D02*
Y64204D01*
X161596D01*
Y60204D01*
X157596D01*
X-140077Y99398D02*
Y103398D01*
X-136077D01*
Y99398D01*
X-140077D01*
X-135524Y105333D02*
Y109333D01*
X-131524D01*
Y105333D01*
X-135524D01*
X49772Y111779D02*
Y115779D01*
X53772D01*
Y111779D01*
X49772D01*
X59772D02*
Y115779D01*
X63772D01*
Y111779D01*
X59772D01*
X69772D02*
Y115779D01*
X73772D01*
Y111779D01*
X69772D01*
X-135661Y70047D02*
Y74047D01*
X-131661D01*
Y70047D01*
X-135661D01*
Y60047D02*
Y64047D01*
X-131661D01*
Y60047D01*
X-135661D01*
Y50047D02*
Y54047D01*
X-131661D01*
Y50047D01*
X-135661D01*
Y40047D02*
Y44047D01*
X-131661D01*
Y40047D01*
X-135661D01*
Y30047D02*
Y34047D01*
X-131661D01*
Y30047D01*
X-135661D01*
Y20047D02*
Y24047D01*
X-131661D01*
Y20047D01*
X-135661D01*
X-54402Y51189D02*
Y55189D01*
X-50402D01*
Y51189D01*
X-54402D01*
Y41189D02*
Y45189D01*
X-50402D01*
Y41189D01*
X-54402D01*
Y31189D02*
Y35189D01*
X-50402D01*
Y31189D01*
X-54402D01*
Y21189D02*
Y25189D01*
X-50402D01*
Y21189D01*
X-54402D01*
Y11189D02*
Y15189D01*
X-50402D01*
Y11189D01*
X-54402D01*
Y1189D02*
Y5189D01*
X-50402D01*
Y1189D01*
X-54402D01*
Y-8811D02*
Y-4811D01*
X-50402D01*
Y-8811D01*
X-54402D01*
Y-18811D02*
Y-14811D01*
X-50402D01*
Y-18811D01*
X-54402D01*
Y-28811D02*
Y-24811D01*
X-50402D01*
Y-28811D01*
X-54402D01*
Y-38811D02*
Y-34811D01*
X-50402D01*
Y-38811D01*
X-54402D01*
Y-48811D02*
Y-44811D01*
X-50402D01*
Y-48811D01*
X-54402D01*
Y-58811D02*
Y-54811D01*
X-50402D01*
Y-58811D01*
X-54402D01*
Y-68811D02*
Y-64811D01*
X-50402D01*
Y-68811D01*
X-54402D01*
Y-78811D02*
Y-74811D01*
X-50402D01*
Y-78811D01*
X-54402D01*
X-24402Y51189D02*
Y55189D01*
X-20402D01*
Y51189D01*
X-24402D01*
Y41189D02*
Y45189D01*
X-20402D01*
Y41189D01*
X-24402D01*
Y31189D02*
Y35189D01*
X-20402D01*
Y31189D01*
X-24402D01*
Y21189D02*
Y25189D01*
X-20402D01*
Y21189D01*
X-24402D01*
Y11189D02*
Y15189D01*
X-20402D01*
Y11189D01*
X-24402D01*
Y1189D02*
Y5189D01*
X-20402D01*
Y1189D01*
X-24402D01*
Y-8811D02*
Y-4811D01*
X-20402D01*
Y-8811D01*
X-24402D01*
Y-18811D02*
Y-14811D01*
X-20402D01*
Y-18811D01*
X-24402D01*
Y-28811D02*
Y-24811D01*
X-20402D01*
Y-28811D01*
X-24402D01*
Y-38811D02*
Y-34811D01*
X-20402D01*
Y-38811D01*
X-24402D01*
Y-48811D02*
Y-44811D01*
X-20402D01*
Y-48811D01*
X-24402D01*
Y-58811D02*
Y-54811D01*
X-20402D01*
Y-58811D01*
X-24402D01*
Y-68811D02*
Y-64811D01*
X-20402D01*
Y-68811D01*
X-24402D01*
Y-78811D02*
Y-74811D01*
X-20402D01*
Y-78811D01*
X-24402D01*
X70244Y69693D02*
Y73693D01*
X74244D01*
Y69693D01*
X70244D01*
Y79693D02*
Y83693D01*
X74244D01*
Y79693D01*
X70244D01*
X-136843Y-38535D02*
Y-34535D01*
X-132843D01*
Y-38535D01*
X-136843D01*
Y-48535D02*
Y-44535D01*
X-132843D01*
Y-48535D01*
X-136843D01*
Y-58535D02*
Y-54535D01*
X-132843D01*
Y-58535D01*
X-136843D01*
Y-68535D02*
Y-64535D01*
X-132843D01*
Y-68535D01*
X-136843D01*
X-33268Y57252D02*
X-35268Y61252D01*
X-31268D01*
X-33268Y57252D01*
X-14764Y49378D02*
X-13764Y50378D01*
X-12764D01*
X-13764Y51378D01*
X-12764Y52378D01*
X-13764D01*
X-14764Y53378D01*
X-15764Y52378D01*
X-16764D01*
X-15764Y51378D01*
X-16764Y50378D01*
X-15764D01*
X-14764Y49378D01*
X-197Y-173457D02*
X803Y-172457D01*
X1803D01*
X803Y-171457D01*
X1803Y-170457D01*
X803D01*
X-197Y-169457D01*
X-1197Y-170457D01*
X-2197D01*
X-1197Y-171457D01*
X-2197Y-172457D01*
X-1197D01*
X-197Y-173457D01*
X-120476Y-122476D02*
X-119476Y-121476D01*
X-118476D01*
X-119476Y-120476D01*
X-118476Y-119476D01*
X-119476D01*
X-120476Y-118476D01*
X-121476Y-119476D01*
X-122476D01*
X-121476Y-120476D01*
X-122476Y-121476D01*
X-121476D01*
X-120476Y-122476D01*
X-170669Y-2000D02*
X-169669Y-1000D01*
X-168669D01*
X-169669Y0D01*
X-168669Y1000D01*
X-169669D01*
X-170669Y2000D01*
X-171669Y1000D01*
X-172669D01*
X-171669Y0D01*
X-172669Y-1000D01*
X-171669D01*
X-170669Y-2000D01*
X-120476Y118476D02*
X-119476Y119476D01*
X-118476D01*
X-119476Y120476D01*
X-118476Y121476D01*
X-119476D01*
X-120476Y122476D01*
X-121476Y121476D01*
X-122476D01*
X-121476Y120476D01*
X-122476Y119476D01*
X-121476D01*
X-120476Y118476D01*
X0Y168669D02*
X1000Y169669D01*
X2000D01*
X1000Y170669D01*
X2000Y171669D01*
X1000D01*
X0Y172669D01*
X-1000Y171669D01*
X-2000D01*
X-1000Y170669D01*
X-2000Y169669D01*
X-1000D01*
X0Y168669D01*
X120476Y118476D02*
X121476Y119476D01*
X122476D01*
X121476Y120476D01*
X122476Y121476D01*
X121476D01*
X120476Y122476D01*
X119476Y121476D01*
X118476D01*
X119476Y120476D01*
X118476Y119476D01*
X119476D01*
X120476Y118476D01*
X170669Y-2000D02*
X171669Y-1000D01*
X172669D01*
X171669Y0D01*
X172669Y1000D01*
X171669D01*
X170669Y2000D01*
X169669Y1000D01*
X168669D01*
X169669Y0D01*
X168669Y-1000D01*
X169669D01*
X170669Y-2000D01*
X120280Y-122280D02*
X121280Y-121280D01*
X122280D01*
X121280Y-120280D01*
X122280Y-119280D01*
X121280D01*
X120280Y-118280D01*
X119280Y-119280D01*
X118280D01*
X119280Y-120280D01*
X118280Y-121280D01*
X119280D01*
X120280Y-122280D01*
X-78740Y76937D02*
X-77740Y77937D01*
X-76740D01*
X-77740Y78937D01*
X-76740Y79937D01*
X-77740D01*
X-78740Y80937D01*
X-79740Y79937D01*
X-80740D01*
X-79740Y78937D01*
X-80740Y77937D01*
X-79740D01*
X-78740Y76937D01*
X-28543Y66307D02*
X-27543Y67307D01*
X-26543D01*
X-27543Y68307D01*
X-26543Y69307D01*
X-27543D01*
X-28543Y70307D01*
X-29543Y69307D01*
X-30543D01*
X-29543Y68307D01*
X-30543Y67307D01*
X-29543D01*
X-28543Y66307D01*
X-75984Y107252D02*
X-74984Y108252D01*
X-73984D01*
X-74984Y109252D01*
X-73984Y110252D01*
X-74984D01*
X-75984Y111252D01*
X-76984Y110252D01*
X-77984D01*
X-76984Y109252D01*
X-77984Y108252D01*
X-76984D01*
X-75984Y107252D01*
X-39370Y-115583D02*
X-38370Y-114583D01*
X-37370D01*
X-38370Y-113583D01*
X-37370Y-112583D01*
X-38370D01*
X-39370Y-111583D01*
X-40370Y-112583D01*
X-41370D01*
X-40370Y-113583D01*
X-41370Y-114583D01*
X-40370D01*
X-39370Y-115583D01*
X97835Y67882D02*
X98835Y68882D01*
X99835D01*
X98835Y69882D01*
X99835Y70882D01*
X98835D01*
X97835Y71882D01*
X96835Y70882D01*
X95835D01*
X96835Y69882D01*
X95835Y68882D01*
X96835D01*
X97835Y67882D01*
X-7874Y43079D02*
X-6874Y44079D01*
X-5874D01*
X-6874Y45079D01*
X-5874Y46079D01*
X-6874D01*
X-7874Y47079D01*
X-8874Y46079D01*
X-9874D01*
X-8874Y45079D01*
X-9874Y44079D01*
X-8874D01*
X-7874Y43079D01*
D74*
X-82055Y-22284D02*
G03*
X-82055Y-22284I-2000J0D01*
G01*
Y-41496D02*
G03*
X-82055Y-41496I-2000J0D01*
G01*
M02*
