G04 Layer_Color=8388736*
%FSLAX25Y25*%
%MOIN*%
G70*
G01*
G75*
%ADD44R,0.05524X0.05524*%
%ADD45R,0.07099X0.06706*%
%ADD46R,0.04343X0.04737*%
%ADD47R,0.05524X0.03556*%
%ADD48R,0.05131X0.04737*%
%ADD49R,0.04737X0.04343*%
%ADD50R,0.04737X0.04737*%
%ADD51R,0.03359X0.05131*%
%ADD52R,0.04737X0.04737*%
G04:AMPARAMS|DCode=53|XSize=47.37mil|YSize=51.31mil|CornerRadius=0mil|HoleSize=0mil|Usage=FLASHONLY|Rotation=135.000|XOffset=0mil|YOffset=0mil|HoleType=Round|Shape=Rectangle|*
%AMROTATEDRECTD53*
4,1,4,0.03489,0.00139,-0.00139,-0.03489,-0.03489,-0.00139,0.00139,0.03489,0.03489,0.00139,0.0*
%
%ADD53ROTATEDRECTD53*%

%ADD54R,0.04737X0.05131*%
G04:AMPARAMS|DCode=55|XSize=47.37mil|YSize=51.31mil|CornerRadius=0mil|HoleSize=0mil|Usage=FLASHONLY|Rotation=225.000|XOffset=0mil|YOffset=0mil|HoleType=Round|Shape=Rectangle|*
%AMROTATEDRECTD55*
4,1,4,-0.00139,0.03489,0.03489,-0.00139,0.00139,-0.03489,-0.03489,0.00139,-0.00139,0.03489,0.0*
%
%ADD55ROTATEDRECTD55*%

%ADD56R,0.04737X0.04540*%
%ADD57P,0.09483X4X217.5*%
%ADD58C,0.06706*%
%ADD59P,0.09483X4X337.5*%
%ADD60P,0.09483X4X97.5*%
%ADD61R,0.06706X0.06706*%
%ADD62O,0.06745X0.06706*%
%ADD63R,0.06706X0.06706*%
%ADD64C,0.05524*%
%ADD65C,0.03800*%
%ADD66C,0.02769*%
D44*
X8858Y1969D02*
D03*
X16732D02*
D03*
D45*
X12795Y15551D02*
D03*
D46*
X-10039Y3150D02*
D03*
X-3347D02*
D03*
X-1181Y17717D02*
D03*
X-7874D02*
D03*
X46260Y66142D02*
D03*
X39567D02*
D03*
X-68307Y52559D02*
D03*
X-75000D02*
D03*
X-74213Y31299D02*
D03*
X-67520D02*
D03*
D47*
X-82480Y43307D02*
D03*
X-106102D02*
D03*
Y31496D02*
D03*
X-82480D02*
D03*
D48*
X-7874Y23425D02*
D03*
X-1181D02*
D03*
X39370Y73032D02*
D03*
X46063D02*
D03*
X170669Y0D02*
D03*
X163976D02*
D03*
X-170669D02*
D03*
X-163976D02*
D03*
D49*
X19094Y89961D02*
D03*
Y96653D02*
D03*
X-99213Y-28543D02*
D03*
Y-35236D02*
D03*
X-75000Y65945D02*
D03*
Y59252D02*
D03*
D50*
X-105315Y-23031D02*
D03*
X-99016D02*
D03*
X-105315Y-40748D02*
D03*
X-99016D02*
D03*
X26575Y66142D02*
D03*
X32874D02*
D03*
X32874Y89764D02*
D03*
X26575D02*
D03*
X19094Y66142D02*
D03*
X12795D02*
D03*
D51*
X26575Y73228D02*
D03*
X19094D02*
D03*
Y82677D02*
D03*
X22835D02*
D03*
X26575Y82677D02*
D03*
D52*
X-82284Y65748D02*
D03*
Y59449D02*
D03*
X-7874Y59252D02*
D03*
Y65551D02*
D03*
X-7874Y51378D02*
D03*
Y45079D02*
D03*
D53*
X120476Y120476D02*
D03*
X115744Y115744D02*
D03*
X-120476Y-120476D02*
D03*
X-115744Y-115744D02*
D03*
D54*
X0Y170669D02*
D03*
Y163976D02*
D03*
X-197Y-171457D02*
D03*
Y-164764D02*
D03*
D55*
X-120476Y120476D02*
D03*
X-115744Y115744D02*
D03*
X120476Y-120476D02*
D03*
X115744Y-115744D02*
D03*
D56*
X-1673Y59252D02*
D03*
X-1673Y51772D02*
D03*
X7185Y55512D02*
D03*
D57*
X-18853Y-170336D02*
D03*
D58*
X-26269Y-169360D02*
D03*
X159596Y62204D02*
D03*
X-133524Y107333D02*
D03*
X71772Y113779D02*
D03*
X-133661Y62047D02*
D03*
Y52047D02*
D03*
Y42047D02*
D03*
Y32047D02*
D03*
Y22047D02*
D03*
X-52402Y43189D02*
D03*
Y33189D02*
D03*
Y23189D02*
D03*
Y13189D02*
D03*
Y3189D02*
D03*
Y-6811D02*
D03*
Y-16811D02*
D03*
Y-26811D02*
D03*
Y-36811D02*
D03*
Y-46811D02*
D03*
Y-56811D02*
D03*
Y-66811D02*
D03*
Y-76811D02*
D03*
X-22402Y53189D02*
D03*
Y43189D02*
D03*
Y33189D02*
D03*
Y23189D02*
D03*
Y13189D02*
D03*
Y3189D02*
D03*
Y-6811D02*
D03*
Y-16811D02*
D03*
Y-26811D02*
D03*
Y-36811D02*
D03*
Y-46811D02*
D03*
Y-56811D02*
D03*
Y-66811D02*
D03*
Y-76811D02*
D03*
X72244Y71693D02*
D03*
X-134843Y-36535D02*
D03*
Y-46535D02*
D03*
Y-56535D02*
D03*
D59*
X156734Y69115D02*
D03*
D60*
X-138077Y101398D02*
D03*
D61*
X51772Y113779D02*
D03*
X-52402Y53189D02*
D03*
D62*
X61772Y113779D02*
D03*
D63*
X-133661Y72047D02*
D03*
X72244Y81693D02*
D03*
X-134843Y-66535D02*
D03*
D64*
X-84055Y-22284D02*
D03*
Y-41496D02*
D03*
D65*
X-33268Y59252D02*
D03*
D66*
X-14764Y51378D02*
D03*
X-197Y-171457D02*
D03*
X-120476Y-120476D02*
D03*
X-170669Y0D02*
D03*
X-120476Y120476D02*
D03*
X0Y170669D02*
D03*
X120476Y120476D02*
D03*
X170669Y0D02*
D03*
X120280Y-120280D02*
D03*
X-78740Y78937D02*
D03*
X-28543Y68307D02*
D03*
X-75984Y109252D02*
D03*
X-39370Y-113583D02*
D03*
X97835Y69882D02*
D03*
X-7874Y45079D02*
D03*
M02*
