G04 Layer_Physical_Order=1*
G04 Layer_Color=255*
%FSLAX25Y25*%
%MOIN*%
G70*
G01*
G75*
%ADD10R,0.04724X0.04724*%
%ADD11R,0.06299X0.05906*%
%ADD12R,0.03543X0.03937*%
%ADD13R,0.04724X0.02756*%
%ADD14R,0.04331X0.03937*%
%ADD15R,0.03937X0.03543*%
%ADD16R,0.03937X0.03937*%
%ADD17R,0.02559X0.04331*%
%ADD18R,0.03937X0.03937*%
G04:AMPARAMS|DCode=19|XSize=39.37mil|YSize=43.31mil|CornerRadius=0mil|HoleSize=0mil|Usage=FLASHONLY|Rotation=135.000|XOffset=0mil|YOffset=0mil|HoleType=Round|Shape=Rectangle|*
%AMROTATEDRECTD19*
4,1,4,0.02923,0.00139,-0.00139,-0.02923,-0.02923,-0.00139,0.00139,0.02923,0.02923,0.00139,0.0*
%
%ADD19ROTATEDRECTD19*%

%ADD20R,0.03937X0.04331*%
G04:AMPARAMS|DCode=21|XSize=39.37mil|YSize=43.31mil|CornerRadius=0mil|HoleSize=0mil|Usage=FLASHONLY|Rotation=225.000|XOffset=0mil|YOffset=0mil|HoleType=Round|Shape=Rectangle|*
%AMROTATEDRECTD21*
4,1,4,-0.00139,0.02923,0.02923,-0.00139,0.00139,-0.02923,-0.02923,0.00139,-0.00139,0.02923,0.0*
%
%ADD21ROTATEDRECTD21*%

%ADD22R,0.03937X0.03740*%
%ADD23C,0.01969*%
%ADD24C,0.01000*%
%ADD25C,0.01181*%
%ADD26P,0.08352X4X217.5*%
%ADD27C,0.05906*%
%ADD28P,0.08352X4X337.5*%
%ADD29P,0.08352X4X97.5*%
%ADD30R,0.05906X0.05906*%
%ADD31O,0.05945X0.05906*%
%ADD32R,0.05906X0.05906*%
%ADD33C,0.04724*%
%ADD34C,0.03000*%
%ADD35C,0.01969*%
G36*
X8567Y185309D02*
X17117Y184716D01*
X25629Y183728D01*
X34087Y182349D01*
X42472Y180580D01*
X50766Y178426D01*
X58953Y175891D01*
X67013Y172980D01*
X74930Y169701D01*
X82688Y166059D01*
X90269Y162063D01*
X97657Y157721D01*
X104837Y153043D01*
X111793Y148038D01*
X118511Y142717D01*
X124976Y137092D01*
X131174Y131174D01*
X137092Y124976D01*
X142717Y118511D01*
X148038Y111793D01*
X153043Y104837D01*
X157721Y97657D01*
X162063Y90269D01*
X166059Y82688D01*
X169701Y74930D01*
X172980Y67013D01*
X175891Y58953D01*
X178426Y50766D01*
X180580Y42472D01*
X182349Y34087D01*
X183728Y25629D01*
X184716Y17117D01*
X185309Y8567D01*
X185507Y0D01*
X185309Y-8567D01*
X184716Y-17117D01*
X183728Y-25629D01*
X182349Y-34087D01*
X180580Y-42472D01*
X178426Y-50766D01*
X175891Y-58953D01*
X172980Y-67013D01*
X169701Y-74930D01*
X166059Y-82688D01*
X162063Y-90269D01*
X157721Y-97657D01*
X153043Y-104837D01*
X148038Y-111793D01*
X142717Y-118511D01*
X137092Y-124976D01*
X131174Y-131174D01*
X124976Y-137092D01*
X118511Y-142717D01*
X111793Y-148038D01*
X104837Y-153043D01*
X97657Y-157721D01*
X90269Y-162063D01*
X82688Y-166059D01*
X74930Y-169701D01*
X67013Y-172980D01*
X58953Y-175891D01*
X50766Y-178426D01*
X42472Y-180580D01*
X34087Y-182349D01*
X25629Y-183728D01*
X17117Y-184716D01*
X8567Y-185309D01*
X0Y-185507D01*
X-8567Y-185309D01*
X-17117Y-184716D01*
X-25629Y-183728D01*
X-34087Y-182349D01*
X-42472Y-180580D01*
X-50766Y-178426D01*
X-58953Y-175891D01*
X-67013Y-172980D01*
X-74930Y-169701D01*
X-82688Y-166059D01*
X-90269Y-162063D01*
X-97657Y-157721D01*
X-104837Y-153043D01*
X-111793Y-148038D01*
X-118511Y-142717D01*
X-124976Y-137092D01*
X-131174Y-131174D01*
X-137092Y-124976D01*
X-142717Y-118511D01*
X-148038Y-111793D01*
X-153043Y-104837D01*
X-157721Y-97657D01*
X-162063Y-90269D01*
X-166059Y-82688D01*
X-169701Y-74930D01*
X-172980Y-67013D01*
X-175891Y-58953D01*
X-178426Y-50766D01*
X-180580Y-42472D01*
X-182349Y-34087D01*
X-183728Y-25629D01*
X-184716Y-17117D01*
X-185309Y-8567D01*
X-185507Y0D01*
X-185309Y8567D01*
X-184716Y17117D01*
X-183728Y25629D01*
X-182349Y34087D01*
X-180580Y42472D01*
X-178426Y50766D01*
X-175891Y58953D01*
X-172980Y67013D01*
X-169701Y74930D01*
X-166059Y82688D01*
X-162063Y90269D01*
X-157721Y97657D01*
X-153043Y104837D01*
X-148038Y111793D01*
X-142717Y118511D01*
X-137092Y124976D01*
X-131174Y131174D01*
X-124976Y137092D01*
X-118511Y142717D01*
X-111793Y148038D01*
X-104837Y153043D01*
X-97657Y157721D01*
X-90269Y162063D01*
X-82688Y166059D01*
X-74930Y169701D01*
X-67013Y172980D01*
X-58953Y175891D01*
X-50766Y178426D01*
X-42472Y180580D01*
X-34087Y182349D01*
X-25629Y183728D01*
X-17117Y184716D01*
X-8567Y185309D01*
X0Y185507D01*
X8567Y185309D01*
D02*
G37*
%LPC*%
G36*
X-52402Y27176D02*
X-53434Y27040D01*
X-54395Y26642D01*
X-55221Y26008D01*
X-55854Y25182D01*
X-56253Y24221D01*
X-56388Y23189D01*
X-56253Y22157D01*
X-55854Y21196D01*
X-55221Y20370D01*
X-54395Y19736D01*
X-53434Y19338D01*
X-52402Y19202D01*
X-51370Y19338D01*
X-50408Y19736D01*
X-49582Y20370D01*
X-48949Y21196D01*
X-48551Y22157D01*
X-48415Y23189D01*
X-48551Y24221D01*
X-48949Y25182D01*
X-49582Y26008D01*
X-50408Y26642D01*
X-51370Y27040D01*
X-52402Y27176D01*
D02*
G37*
G36*
X-133661Y26034D02*
X-134693Y25898D01*
X-135655Y25500D01*
X-136481Y24866D01*
X-137114Y24041D01*
X-137512Y23079D01*
X-137648Y22047D01*
X-137512Y21015D01*
X-137114Y20054D01*
X-136481Y19228D01*
X-135655Y18595D01*
X-134693Y18196D01*
X-133661Y18060D01*
X-132630Y18196D01*
X-131668Y18595D01*
X-130842Y19228D01*
X-130209Y20054D01*
X-129810Y21015D01*
X-129675Y22047D01*
X-129810Y23079D01*
X-130209Y24041D01*
X-130842Y24866D01*
X-131668Y25500D01*
X-132630Y25898D01*
X-133661Y26034D01*
D02*
G37*
G36*
X-22402Y27176D02*
X-23433Y27040D01*
X-24395Y26642D01*
X-25221Y26008D01*
X-25854Y25182D01*
X-26253Y24221D01*
X-26388Y23189D01*
X-26253Y22157D01*
X-25854Y21196D01*
X-25221Y20370D01*
X-24395Y19736D01*
X-23433Y19338D01*
X-22402Y19202D01*
X-21370Y19338D01*
X-20408Y19736D01*
X-19582Y20370D01*
X-19517Y20455D01*
X-19297Y20672D01*
X-18775Y21128D01*
X-18558Y21290D01*
X-18352Y21425D01*
X-18169Y21527D01*
X-18013Y21598D01*
X-17886Y21641D01*
X-17798Y21660D01*
X-11039D01*
Y20457D01*
X-10999D01*
X-10646Y20103D01*
Y18216D01*
X-7874D01*
Y17217D01*
X-10646D01*
X-10646Y14748D01*
X-11133Y14718D01*
X-17798D01*
X-17886Y14737D01*
X-18013Y14780D01*
X-18170Y14851D01*
X-18352Y14953D01*
X-18558Y15088D01*
X-18775Y15250D01*
X-19297Y15706D01*
X-19517Y15923D01*
X-19582Y16008D01*
X-20408Y16642D01*
X-21370Y17040D01*
X-22402Y17176D01*
X-23433Y17040D01*
X-24395Y16642D01*
X-25221Y16008D01*
X-25854Y15182D01*
X-26253Y14221D01*
X-26388Y13189D01*
X-26253Y12157D01*
X-25854Y11196D01*
X-25221Y10370D01*
X-24395Y9736D01*
X-23433Y9338D01*
X-22402Y9202D01*
X-21370Y9338D01*
X-20408Y9736D01*
X-19582Y10370D01*
X-19517Y10455D01*
X-19297Y10672D01*
X-18775Y11128D01*
X-18558Y11290D01*
X-18352Y11425D01*
X-18169Y11527D01*
X-18013Y11598D01*
X-17886Y11641D01*
X-17798Y11660D01*
X8646D01*
Y11598D01*
X9613D01*
X9650Y11591D01*
X9690Y11598D01*
X16945D01*
Y19504D01*
X8646D01*
Y14718D01*
X2078D01*
X1591Y14748D01*
X1591Y15218D01*
Y20457D01*
X1984D01*
Y26394D01*
X-4209D01*
X-4346Y26394D01*
X-4709D01*
X-4846Y26394D01*
X-11039D01*
Y24718D01*
X-17798D01*
X-17886Y24737D01*
X-18013Y24780D01*
X-18170Y24851D01*
X-18352Y24953D01*
X-18558Y25088D01*
X-18775Y25250D01*
X-19297Y25706D01*
X-19517Y25923D01*
X-19582Y26008D01*
X-20408Y26642D01*
X-21370Y27040D01*
X-22402Y27176D01*
D02*
G37*
G36*
X-133661Y36034D02*
X-134693Y35898D01*
X-135655Y35500D01*
X-136481Y34866D01*
X-137114Y34041D01*
X-137512Y33079D01*
X-137648Y32047D01*
X-137512Y31015D01*
X-137114Y30054D01*
X-136481Y29228D01*
X-135655Y28594D01*
X-134693Y28196D01*
X-133661Y28060D01*
X-132630Y28196D01*
X-131668Y28594D01*
X-130842Y29228D01*
X-130209Y30054D01*
X-129810Y31015D01*
X-129675Y32047D01*
X-129810Y33079D01*
X-130209Y34041D01*
X-130842Y34866D01*
X-131668Y35500D01*
X-132630Y35898D01*
X-133661Y36034D01*
D02*
G37*
G36*
X-102740Y33874D02*
X-109465D01*
Y29118D01*
X-102740D01*
Y33874D01*
D02*
G37*
G36*
X-64748Y30799D02*
X-67020D01*
Y28331D01*
X-64748D01*
Y30799D01*
D02*
G37*
G36*
X-68020D02*
X-70291D01*
Y28331D01*
X-68020D01*
Y30799D01*
D02*
G37*
G36*
X-52402Y17176D02*
X-53434Y17040D01*
X-54395Y16642D01*
X-55221Y16008D01*
X-55854Y15182D01*
X-56253Y14221D01*
X-56388Y13189D01*
X-56253Y12157D01*
X-55854Y11196D01*
X-55221Y10370D01*
X-54395Y9736D01*
X-53434Y9338D01*
X-52402Y9202D01*
X-51370Y9338D01*
X-50408Y9736D01*
X-49582Y10370D01*
X-48949Y11196D01*
X-48551Y12157D01*
X-48415Y13189D01*
X-48551Y14221D01*
X-48949Y15182D01*
X-49582Y16008D01*
X-50408Y16642D01*
X-51370Y17040D01*
X-52402Y17176D01*
D02*
G37*
G36*
X16232Y1469D02*
X13370D01*
Y-1394D01*
X16232D01*
Y1469D01*
D02*
G37*
G36*
X-575Y6118D02*
X-6118D01*
Y181D01*
X-575D01*
Y1620D01*
X5496D01*
Y-1394D01*
X12220D01*
Y5331D01*
X5496D01*
Y4679D01*
X-575D01*
Y6118D01*
D02*
G37*
G36*
X167504Y2968D02*
X167142D01*
X167004Y2968D01*
X160811D01*
Y-969D01*
X160615Y-1199D01*
X116532Y-45282D01*
X-17798D01*
X-17886Y-45263D01*
X-18013Y-45220D01*
X-18170Y-45149D01*
X-18352Y-45047D01*
X-18558Y-44912D01*
X-18775Y-44750D01*
X-19297Y-44294D01*
X-19517Y-44077D01*
X-19582Y-43992D01*
X-20408Y-43358D01*
X-21370Y-42960D01*
X-22402Y-42824D01*
X-23433Y-42960D01*
X-24395Y-43358D01*
X-25221Y-43992D01*
X-25854Y-44818D01*
X-26253Y-45779D01*
X-26388Y-46811D01*
X-26253Y-47843D01*
X-25854Y-48805D01*
X-25221Y-49630D01*
X-24395Y-50264D01*
X-23433Y-50662D01*
X-22402Y-50798D01*
X-21370Y-50662D01*
X-20408Y-50264D01*
X-19582Y-49630D01*
X-19517Y-49545D01*
X-19297Y-49328D01*
X-18775Y-48872D01*
X-18558Y-48710D01*
X-18352Y-48575D01*
X-18169Y-48473D01*
X-18013Y-48402D01*
X-17886Y-48359D01*
X-17798Y-48340D01*
X117165D01*
X117751Y-48224D01*
X118247Y-47892D01*
X162918Y-3221D01*
X163068Y-3082D01*
X163185Y-2989D01*
X163214Y-2968D01*
X167004D01*
X167142Y-2968D01*
X167504D01*
X167642Y-2968D01*
X173835D01*
Y2968D01*
X167642D01*
X167504Y2968D01*
D02*
G37*
G36*
X20095Y1469D02*
X17232D01*
Y-1394D01*
X20095D01*
Y1469D01*
D02*
G37*
G36*
X-52402Y7176D02*
X-53434Y7040D01*
X-54395Y6642D01*
X-55221Y6008D01*
X-55286Y5923D01*
X-55506Y5706D01*
X-56028Y5250D01*
X-56245Y5088D01*
X-56451Y4953D01*
X-56634Y4851D01*
X-56790Y4780D01*
X-56918Y4737D01*
X-57005Y4718D01*
X-160787D01*
X-161373Y4602D01*
X-161869Y4270D01*
X-162918Y3221D01*
X-163068Y3082D01*
X-163185Y2989D01*
X-163214Y2968D01*
X-167004D01*
X-167142Y2968D01*
X-167504D01*
X-167642Y2968D01*
X-173835D01*
Y-2968D01*
X-167642D01*
X-167504Y-2968D01*
X-167142D01*
X-167004Y-2968D01*
X-160811D01*
Y969D01*
X-160615Y1199D01*
X-160154Y1660D01*
X-57005D01*
X-56918Y1641D01*
X-56790Y1598D01*
X-56634Y1527D01*
X-56451Y1425D01*
X-56245Y1290D01*
X-56028Y1128D01*
X-55506Y672D01*
X-55286Y455D01*
X-55221Y370D01*
X-54395Y-264D01*
X-53434Y-662D01*
X-52402Y-798D01*
X-51370Y-662D01*
X-50408Y-264D01*
X-49582Y370D01*
X-48949Y1196D01*
X-48551Y2157D01*
X-48415Y3189D01*
X-48551Y4221D01*
X-48949Y5182D01*
X-49582Y6008D01*
X-50408Y6642D01*
X-51370Y7040D01*
X-52402Y7176D01*
D02*
G37*
G36*
X20095Y5331D02*
X17232D01*
Y2468D01*
X20095D01*
Y5331D01*
D02*
G37*
G36*
X16232D02*
X13370D01*
Y2468D01*
X16232D01*
Y5331D01*
D02*
G37*
G36*
X-52402Y37176D02*
X-53434Y37040D01*
X-54395Y36642D01*
X-55221Y36008D01*
X-55854Y35182D01*
X-56253Y34221D01*
X-56388Y33189D01*
X-56253Y32157D01*
X-55854Y31196D01*
X-55221Y30370D01*
X-54395Y29736D01*
X-53434Y29338D01*
X-52402Y29202D01*
X-51370Y29338D01*
X-50408Y29736D01*
X-49582Y30370D01*
X-48949Y31196D01*
X-48551Y32157D01*
X-48415Y33189D01*
X-48551Y34221D01*
X-48949Y35182D01*
X-49582Y36008D01*
X-50408Y36642D01*
X-51370Y37040D01*
X-52402Y37176D01*
D02*
G37*
G36*
X-134161Y55968D02*
X-134693Y55898D01*
X-135655Y55500D01*
X-136481Y54866D01*
X-137114Y54041D01*
X-137512Y53079D01*
X-137582Y52547D01*
X-134161D01*
Y55968D01*
D02*
G37*
G36*
X-129740Y51547D02*
X-133161D01*
Y48126D01*
X-132630Y48196D01*
X-131668Y48594D01*
X-130842Y49228D01*
X-130209Y50054D01*
X-129810Y51015D01*
X-129740Y51547D01*
D02*
G37*
G36*
X-134161D02*
X-137582D01*
X-137512Y51015D01*
X-137114Y50054D01*
X-136481Y49228D01*
X-135655Y48594D01*
X-134693Y48196D01*
X-134161Y48126D01*
Y51547D01*
D02*
G37*
G36*
X-133161Y55968D02*
Y52547D01*
X-129740D01*
X-129810Y53079D01*
X-130209Y54041D01*
X-130842Y54866D01*
X-131668Y55500D01*
X-132630Y55898D01*
X-133161Y55968D01*
D02*
G37*
G36*
X-3630Y54649D02*
X-3668Y54642D01*
X-4642D01*
Y54642D01*
X-4905Y54347D01*
X-5877D01*
X-5914Y54354D01*
X-5953Y54347D01*
X-9717D01*
X-9723Y54348D01*
X-9743Y54347D01*
X-9792D01*
X-9831Y54354D01*
X-9869Y54347D01*
X-10842D01*
Y53495D01*
X-10862Y53487D01*
X-11009Y53448D01*
X-11218Y53413D01*
X-11360Y53401D01*
X-14764D01*
X-15538Y53247D01*
X-16194Y52808D01*
X-16633Y52152D01*
X-16787Y51378D01*
X-16633Y50604D01*
X-16194Y49947D01*
X-15538Y49509D01*
X-14764Y49355D01*
X-11360D01*
X-11218Y49343D01*
X-11009Y49308D01*
X-10862Y49269D01*
X-10842Y49261D01*
Y48547D01*
X-10842Y48410D01*
Y48047D01*
X-10842Y47909D01*
Y42110D01*
X-4905D01*
Y47909D01*
X-4905Y48047D01*
X-4905Y48511D01*
X-4642Y48902D01*
X-3668D01*
X-3630Y48894D01*
X-3592Y48902D01*
X-3516D01*
X-3510Y48901D01*
X-3508Y48902D01*
X1295D01*
Y54642D01*
X-3508D01*
X-3510Y54642D01*
X-3516Y54642D01*
X-3592D01*
X-3630Y54649D01*
D02*
G37*
G36*
X10153Y55012D02*
X7685D01*
Y52642D01*
X10153D01*
Y55012D01*
D02*
G37*
G36*
X6685D02*
X4216D01*
Y52642D01*
X6685D01*
Y55012D01*
D02*
G37*
G36*
X-102740Y45685D02*
X-109465D01*
Y40929D01*
X-102740D01*
Y45685D01*
D02*
G37*
G36*
X-64748Y34268D02*
X-67020D01*
Y31799D01*
X-64748D01*
Y34268D01*
D02*
G37*
G36*
X-68020D02*
X-70291D01*
Y31799D01*
X-68020D01*
Y34268D01*
D02*
G37*
G36*
X-22402Y37176D02*
X-23433Y37040D01*
X-24395Y36642D01*
X-25221Y36008D01*
X-25854Y35182D01*
X-26253Y34221D01*
X-26388Y33189D01*
X-26253Y32157D01*
X-25854Y31196D01*
X-25221Y30370D01*
X-24395Y29736D01*
X-23433Y29338D01*
X-22402Y29202D01*
X-21370Y29338D01*
X-20408Y29736D01*
X-19582Y30370D01*
X-18949Y31196D01*
X-18551Y32157D01*
X-18415Y33189D01*
X-18551Y34221D01*
X-18949Y35182D01*
X-19582Y36008D01*
X-20408Y36642D01*
X-21370Y37040D01*
X-22402Y37176D01*
D02*
G37*
G36*
X-71441Y34268D02*
X-76984D01*
Y33026D01*
X-79118D01*
Y33874D01*
X-85843D01*
Y29118D01*
X-79118D01*
Y29967D01*
X-76984D01*
Y28331D01*
X-71441D01*
Y34268D01*
D02*
G37*
G36*
X-22402Y47176D02*
X-23433Y47040D01*
X-24395Y46642D01*
X-25221Y46008D01*
X-25854Y45182D01*
X-26253Y44221D01*
X-26388Y43189D01*
X-26253Y42157D01*
X-25854Y41195D01*
X-25221Y40370D01*
X-24395Y39736D01*
X-23433Y39338D01*
X-22402Y39202D01*
X-21370Y39338D01*
X-20408Y39736D01*
X-19582Y40370D01*
X-18949Y41195D01*
X-18551Y42157D01*
X-18415Y43189D01*
X-18551Y44221D01*
X-18949Y45182D01*
X-19582Y46008D01*
X-20408Y46642D01*
X-21370Y47040D01*
X-22402Y47176D01*
D02*
G37*
G36*
X-52402D02*
X-53434Y47040D01*
X-54395Y46642D01*
X-55221Y46008D01*
X-55854Y45182D01*
X-56253Y44221D01*
X-56388Y43189D01*
X-56253Y42157D01*
X-55854Y41195D01*
X-55221Y40370D01*
X-54395Y39736D01*
X-53434Y39338D01*
X-52402Y39202D01*
X-51370Y39338D01*
X-50408Y39736D01*
X-49582Y40370D01*
X-48949Y41195D01*
X-48551Y42157D01*
X-48415Y43189D01*
X-48551Y44221D01*
X-48949Y45182D01*
X-49582Y46008D01*
X-50408Y46642D01*
X-51370Y47040D01*
X-52402Y47176D01*
D02*
G37*
G36*
X-133661Y46034D02*
X-134693Y45898D01*
X-135655Y45500D01*
X-136481Y44866D01*
X-137114Y44041D01*
X-137512Y43079D01*
X-137648Y42047D01*
X-137512Y41015D01*
X-137114Y40054D01*
X-136481Y39228D01*
X-135655Y38594D01*
X-134693Y38196D01*
X-133661Y38060D01*
X-132630Y38196D01*
X-131668Y38594D01*
X-130842Y39228D01*
X-130209Y40054D01*
X-129810Y41015D01*
X-129675Y42047D01*
X-129810Y43079D01*
X-130209Y44041D01*
X-130842Y44866D01*
X-131668Y45500D01*
X-132630Y45898D01*
X-133661Y46034D01*
D02*
G37*
G36*
X-130890Y-62583D02*
X-134343D01*
Y-66035D01*
X-130890D01*
Y-62583D01*
D02*
G37*
G36*
X-135343D02*
X-138795D01*
Y-66035D01*
X-135343D01*
Y-62583D01*
D02*
G37*
G36*
X-130890Y-67035D02*
X-134343D01*
Y-70488D01*
X-130890D01*
Y-67035D01*
D02*
G37*
G36*
X-134843Y-52549D02*
X-135874Y-52684D01*
X-136836Y-53083D01*
X-137662Y-53716D01*
X-138295Y-54542D01*
X-138693Y-55503D01*
X-138829Y-56535D01*
X-138693Y-57567D01*
X-138295Y-58529D01*
X-137662Y-59355D01*
X-136836Y-59988D01*
X-135874Y-60386D01*
X-134843Y-60522D01*
X-133811Y-60386D01*
X-132849Y-59988D01*
X-132374Y-59624D01*
X-132289Y-59578D01*
X-131959Y-59307D01*
X-131668Y-59083D01*
X-131117Y-58706D01*
X-130896Y-58577D01*
X-130692Y-58474D01*
X-130519Y-58402D01*
X-130381Y-58358D01*
X-130295Y-58340D01*
X-57005D01*
X-56918Y-58359D01*
X-56790Y-58402D01*
X-56634Y-58473D01*
X-56451Y-58575D01*
X-56245Y-58710D01*
X-56028Y-58872D01*
X-55506Y-59328D01*
X-55286Y-59545D01*
X-55221Y-59630D01*
X-54395Y-60264D01*
X-53434Y-60662D01*
X-52402Y-60798D01*
X-51370Y-60662D01*
X-50408Y-60264D01*
X-49582Y-59630D01*
X-48949Y-58804D01*
X-48551Y-57843D01*
X-48415Y-56811D01*
X-48551Y-55779D01*
X-48949Y-54818D01*
X-49582Y-53992D01*
X-50408Y-53358D01*
X-51370Y-52960D01*
X-52402Y-52824D01*
X-53434Y-52960D01*
X-54395Y-53358D01*
X-55221Y-53992D01*
X-55286Y-54077D01*
X-55506Y-54294D01*
X-56028Y-54750D01*
X-56245Y-54912D01*
X-56451Y-55047D01*
X-56634Y-55149D01*
X-56790Y-55220D01*
X-56918Y-55263D01*
X-57005Y-55282D01*
X-130208D01*
X-130294Y-55263D01*
X-130410Y-55222D01*
X-130549Y-55154D01*
X-130710Y-55055D01*
X-130891Y-54922D01*
X-131077Y-54763D01*
X-131533Y-54298D01*
X-131772Y-54015D01*
X-131828Y-53971D01*
X-132023Y-53716D01*
X-132849Y-53083D01*
X-133811Y-52684D01*
X-134843Y-52549D01*
D02*
G37*
G36*
X-22902Y-37311D02*
X-26323D01*
X-26253Y-37843D01*
X-25854Y-38805D01*
X-25221Y-39630D01*
X-24395Y-40264D01*
X-23433Y-40662D01*
X-22902Y-40732D01*
Y-37311D01*
D02*
G37*
G36*
X-96244Y-32465D02*
X-102181D01*
Y-37348D01*
X-102347Y-37780D01*
X-102681Y-37780D01*
X-104815D01*
Y-40748D01*
Y-43716D01*
X-102484D01*
X-102347Y-43716D01*
X-101984D01*
X-101847Y-43716D01*
X-96047D01*
Y-42277D01*
X-87738D01*
X-87699Y-42285D01*
X-87647Y-42303D01*
X-87592Y-42331D01*
X-87529Y-42375D01*
X-87456Y-42439D01*
X-87375Y-42528D01*
X-87285Y-42647D01*
X-87191Y-42796D01*
X-87080Y-43007D01*
X-87056Y-43036D01*
X-86992Y-43192D01*
X-86453Y-43894D01*
X-85751Y-44433D01*
X-85574Y-44506D01*
X-85674Y-45006D01*
X-130239D01*
X-130326Y-44987D01*
X-130454Y-44945D01*
X-130611Y-44874D01*
X-130793Y-44772D01*
X-130999Y-44636D01*
X-131216Y-44474D01*
X-131738Y-44018D01*
X-131958Y-43802D01*
X-132023Y-43716D01*
X-132849Y-43083D01*
X-133811Y-42684D01*
X-134843Y-42549D01*
X-135874Y-42684D01*
X-136836Y-43083D01*
X-137662Y-43716D01*
X-138295Y-44542D01*
X-138693Y-45504D01*
X-138829Y-46535D01*
X-138693Y-47567D01*
X-138295Y-48529D01*
X-137662Y-49355D01*
X-136836Y-49988D01*
X-135874Y-50386D01*
X-134843Y-50522D01*
X-133811Y-50386D01*
X-132849Y-49988D01*
X-132023Y-49355D01*
X-131958Y-49269D01*
X-131738Y-49053D01*
X-131216Y-48597D01*
X-130999Y-48435D01*
X-130793Y-48299D01*
X-130611Y-48197D01*
X-130454Y-48126D01*
X-130326Y-48083D01*
X-130239Y-48065D01*
X-57036D01*
X-56950Y-48083D01*
X-56834Y-48125D01*
X-56695Y-48192D01*
X-56534Y-48291D01*
X-56353Y-48424D01*
X-56167Y-48583D01*
X-55712Y-49048D01*
X-55472Y-49331D01*
X-55416Y-49376D01*
X-55221Y-49630D01*
X-54395Y-50264D01*
X-53434Y-50662D01*
X-52402Y-50798D01*
X-51370Y-50662D01*
X-50408Y-50264D01*
X-49582Y-49630D01*
X-48949Y-48805D01*
X-48551Y-47843D01*
X-48415Y-46811D01*
X-48551Y-45779D01*
X-48949Y-44818D01*
X-49582Y-43992D01*
X-50408Y-43358D01*
X-51370Y-42960D01*
X-52402Y-42824D01*
X-53434Y-42960D01*
X-54395Y-43358D01*
X-54870Y-43723D01*
X-54956Y-43769D01*
X-55285Y-44040D01*
X-55576Y-44263D01*
X-56127Y-44641D01*
X-56348Y-44769D01*
X-56552Y-44872D01*
X-56725Y-44944D01*
X-56863Y-44988D01*
X-56949Y-45006D01*
X-82437D01*
X-82536Y-44506D01*
X-82359Y-44433D01*
X-81657Y-43894D01*
X-81118Y-43192D01*
X-80779Y-42374D01*
X-80664Y-41496D01*
X-80672Y-41437D01*
X-80655Y-40937D01*
X-80633Y-40730D01*
X-80601Y-40539D01*
X-80562Y-40374D01*
X-80518Y-40238D01*
X-80472Y-40128D01*
X-80427Y-40044D01*
X-80397Y-40001D01*
X-78737Y-38340D01*
X-57005D01*
X-56918Y-38359D01*
X-56790Y-38402D01*
X-56634Y-38473D01*
X-56451Y-38575D01*
X-56245Y-38710D01*
X-56028Y-38872D01*
X-55506Y-39328D01*
X-55286Y-39545D01*
X-55221Y-39630D01*
X-54395Y-40264D01*
X-53434Y-40662D01*
X-52402Y-40798D01*
X-51370Y-40662D01*
X-50408Y-40264D01*
X-49582Y-39630D01*
X-48949Y-38805D01*
X-48551Y-37843D01*
X-48415Y-36811D01*
X-48551Y-35779D01*
X-48949Y-34818D01*
X-49582Y-33992D01*
X-50408Y-33358D01*
X-51370Y-32960D01*
X-52402Y-32824D01*
X-53434Y-32960D01*
X-54395Y-33358D01*
X-55221Y-33992D01*
X-55286Y-34077D01*
X-55506Y-34294D01*
X-56028Y-34750D01*
X-56245Y-34912D01*
X-56451Y-35047D01*
X-56634Y-35149D01*
X-56790Y-35220D01*
X-56918Y-35263D01*
X-57005Y-35282D01*
X-79370D01*
X-79955Y-35398D01*
X-80452Y-35730D01*
X-82560Y-37838D01*
X-82603Y-37868D01*
X-82687Y-37913D01*
X-82797Y-37959D01*
X-82933Y-38003D01*
X-83098Y-38042D01*
X-83276Y-38072D01*
X-83765Y-38111D01*
X-83987Y-38114D01*
X-84055Y-38105D01*
X-84933Y-38220D01*
X-85508Y-38459D01*
X-85580Y-38478D01*
X-85722Y-38548D01*
X-85751Y-38559D01*
X-85759Y-38565D01*
X-86188Y-38776D01*
X-86687Y-38993D01*
X-87095Y-39142D01*
X-87240Y-39184D01*
X-87361Y-39212D01*
X-87403Y-39219D01*
X-96047D01*
Y-37780D01*
X-96244D01*
Y-32465D01*
D02*
G37*
G36*
X-105815Y-41248D02*
X-108283D01*
Y-43716D01*
X-105815D01*
Y-41248D01*
D02*
G37*
G36*
X-135343Y-67035D02*
X-138795D01*
Y-70488D01*
X-135343D01*
Y-67035D01*
D02*
G37*
G36*
X-25749Y-165407D02*
X-26790D01*
X-27795Y-165677D01*
X-28696Y-166197D01*
X-29432Y-166933D01*
X-29953Y-167834D01*
X-30222Y-168840D01*
Y-169880D01*
X-29953Y-170886D01*
X-29432Y-171787D01*
X-28696Y-172523D01*
X-27795Y-173043D01*
X-26790Y-173313D01*
X-25749D01*
X-24744Y-173043D01*
X-23842Y-172523D01*
X-23600Y-172281D01*
X-23127Y-172514D01*
X-23288Y-173739D01*
X-19865Y-174190D01*
X-19349Y-170271D01*
X-18833Y-166352D01*
X-22256Y-165902D01*
X-22417Y-167127D01*
X-22935Y-167229D01*
X-23106Y-166933D01*
X-23842Y-166197D01*
X-24744Y-165677D01*
X-25749Y-165407D01*
D02*
G37*
G36*
X-22402Y-62824D02*
X-23433Y-62960D01*
X-24395Y-63358D01*
X-25221Y-63992D01*
X-25854Y-64818D01*
X-26253Y-65779D01*
X-26388Y-66811D01*
X-26253Y-67843D01*
X-25854Y-68804D01*
X-25221Y-69630D01*
X-24395Y-70264D01*
X-23433Y-70662D01*
X-22402Y-70798D01*
X-22295Y-70784D01*
X-21986Y-70786D01*
X-21294Y-70833D01*
X-21027Y-70872D01*
X-20786Y-70922D01*
X-20584Y-70978D01*
X-20423Y-71039D01*
X-20303Y-71099D01*
X-20228Y-71148D01*
X-1726Y-89649D01*
Y-161598D01*
X-3165D01*
Y-167791D01*
X-3165Y-167929D01*
Y-168291D01*
X-3165Y-168429D01*
Y-174622D01*
X2772D01*
Y-168429D01*
X2772Y-168291D01*
Y-167929D01*
X2772Y-167791D01*
Y-161598D01*
X1333D01*
Y-89016D01*
X1216Y-88431D01*
X885Y-87934D01*
X-18065Y-68985D01*
X-18114Y-68910D01*
X-18173Y-68789D01*
X-18234Y-68628D01*
X-18291Y-68427D01*
X-18341Y-68186D01*
X-18380Y-67918D01*
X-18427Y-67226D01*
X-18429Y-66918D01*
X-18415Y-66811D01*
X-18551Y-65779D01*
X-18949Y-64818D01*
X-19582Y-63992D01*
X-20408Y-63358D01*
X-21370Y-62960D01*
X-22402Y-62824D01*
D02*
G37*
G36*
X-18422Y-170897D02*
X-18873Y-174321D01*
X-15450Y-174771D01*
X-14999Y-171348D01*
X-18422Y-170897D01*
D02*
G37*
G36*
X-17841Y-166483D02*
X-18292Y-169906D01*
X-14869Y-170357D01*
X-14418Y-166933D01*
X-17841Y-166483D01*
D02*
G37*
G36*
X-22402Y-72824D02*
X-23433Y-72960D01*
X-24395Y-73358D01*
X-25221Y-73992D01*
X-25854Y-74818D01*
X-26253Y-75779D01*
X-26388Y-76811D01*
X-26253Y-77843D01*
X-25854Y-78804D01*
X-25221Y-79630D01*
X-24395Y-80264D01*
X-23433Y-80662D01*
X-22402Y-80798D01*
X-21370Y-80662D01*
X-20408Y-80264D01*
X-19582Y-79630D01*
X-18949Y-78804D01*
X-18551Y-77843D01*
X-18415Y-76811D01*
X-18551Y-75779D01*
X-18949Y-74818D01*
X-19582Y-73992D01*
X-20408Y-73358D01*
X-21370Y-72960D01*
X-22402Y-72824D01*
D02*
G37*
G36*
X-52402D02*
X-53434Y-72960D01*
X-54395Y-73358D01*
X-55221Y-73992D01*
X-55286Y-74077D01*
X-55506Y-74294D01*
X-56028Y-74750D01*
X-56245Y-74912D01*
X-56451Y-75047D01*
X-56634Y-75149D01*
X-56790Y-75220D01*
X-56918Y-75263D01*
X-57005Y-75282D01*
X-76811D01*
X-77396Y-75398D01*
X-77893Y-75730D01*
X-114587Y-112424D01*
X-115605Y-111407D01*
X-119984Y-115786D01*
X-120209Y-116011D01*
X-120435Y-116237D01*
X-124814Y-120616D01*
X-120616Y-124814D01*
X-116237Y-120435D01*
X-116011Y-120209D01*
X-115786Y-119984D01*
X-111407Y-115605D01*
X-112424Y-114587D01*
X-76178Y-78340D01*
X-57005D01*
X-56918Y-78359D01*
X-56790Y-78402D01*
X-56634Y-78473D01*
X-56451Y-78575D01*
X-56245Y-78710D01*
X-56028Y-78872D01*
X-55506Y-79328D01*
X-55286Y-79545D01*
X-55221Y-79630D01*
X-54395Y-80264D01*
X-53434Y-80662D01*
X-52402Y-80798D01*
X-51370Y-80662D01*
X-50408Y-80264D01*
X-49582Y-79630D01*
X-48949Y-78804D01*
X-48551Y-77843D01*
X-48415Y-76811D01*
X-48551Y-75779D01*
X-48949Y-74818D01*
X-49582Y-73992D01*
X-50408Y-73358D01*
X-51370Y-72960D01*
X-52402Y-72824D01*
D02*
G37*
G36*
X-22402Y-52824D02*
X-23433Y-52960D01*
X-24395Y-53358D01*
X-25221Y-53992D01*
X-25854Y-54818D01*
X-26253Y-55779D01*
X-26388Y-56811D01*
X-26253Y-57843D01*
X-25854Y-58804D01*
X-25221Y-59630D01*
X-24395Y-60264D01*
X-23433Y-60662D01*
X-22402Y-60798D01*
X-21370Y-60662D01*
X-20408Y-60264D01*
X-19582Y-59630D01*
X-19517Y-59545D01*
X-19297Y-59328D01*
X-18775Y-58872D01*
X-18558Y-58710D01*
X-18352Y-58575D01*
X-18169Y-58473D01*
X-18013Y-58402D01*
X-17886Y-58359D01*
X-17798Y-58340D01*
X56178D01*
X112424Y-114587D01*
X111407Y-115605D01*
X115786Y-119984D01*
X116011Y-120209D01*
X116237Y-120435D01*
X120616Y-124814D01*
X124814Y-120616D01*
X120435Y-116237D01*
X120209Y-116011D01*
X119984Y-115786D01*
X115605Y-111407D01*
X114587Y-112424D01*
X57893Y-55730D01*
X57396Y-55398D01*
X56811Y-55282D01*
X-17798D01*
X-17886Y-55263D01*
X-18013Y-55220D01*
X-18170Y-55149D01*
X-18352Y-55047D01*
X-18558Y-54912D01*
X-18775Y-54750D01*
X-19297Y-54294D01*
X-19517Y-54077D01*
X-19582Y-53992D01*
X-20408Y-53358D01*
X-21370Y-52960D01*
X-22402Y-52824D01*
D02*
G37*
G36*
X-18481Y-37311D02*
X-21902D01*
Y-40732D01*
X-21370Y-40662D01*
X-20408Y-40264D01*
X-19582Y-39630D01*
X-18949Y-38805D01*
X-18551Y-37843D01*
X-18481Y-37311D01*
D02*
G37*
G36*
X-52902Y-12890D02*
X-53434Y-12960D01*
X-54395Y-13358D01*
X-55221Y-13992D01*
X-55854Y-14818D01*
X-56253Y-15779D01*
X-56323Y-16311D01*
X-52902D01*
Y-12890D01*
D02*
G37*
G36*
X-48480Y-17311D02*
X-51902D01*
Y-20732D01*
X-51370Y-20662D01*
X-50408Y-20264D01*
X-49582Y-19630D01*
X-48949Y-18804D01*
X-48551Y-17843D01*
X-48480Y-17311D01*
D02*
G37*
G36*
X-52902D02*
X-56323D01*
X-56253Y-17843D01*
X-55854Y-18804D01*
X-55221Y-19630D01*
X-54395Y-20264D01*
X-53434Y-20662D01*
X-52902Y-20732D01*
Y-17311D01*
D02*
G37*
G36*
X-51902Y-12890D02*
Y-16311D01*
X-48480D01*
X-48551Y-15779D01*
X-48949Y-14818D01*
X-49582Y-13992D01*
X-50408Y-13358D01*
X-51370Y-12960D01*
X-51902Y-12890D01*
D02*
G37*
G36*
X-22402Y-2824D02*
X-23433Y-2960D01*
X-24395Y-3358D01*
X-25221Y-3992D01*
X-25854Y-4818D01*
X-26253Y-5779D01*
X-26388Y-6811D01*
X-26253Y-7843D01*
X-25854Y-8804D01*
X-25221Y-9630D01*
X-24395Y-10264D01*
X-23433Y-10662D01*
X-22402Y-10798D01*
X-21370Y-10662D01*
X-20408Y-10264D01*
X-19582Y-9630D01*
X-18949Y-8804D01*
X-18551Y-7843D01*
X-18415Y-6811D01*
X-18551Y-5779D01*
X-18949Y-4818D01*
X-19582Y-3992D01*
X-20408Y-3358D01*
X-21370Y-2960D01*
X-22402Y-2824D01*
D02*
G37*
G36*
X-52402D02*
X-53434Y-2960D01*
X-54395Y-3358D01*
X-55221Y-3992D01*
X-55854Y-4818D01*
X-56253Y-5779D01*
X-56388Y-6811D01*
X-56253Y-7843D01*
X-55854Y-8804D01*
X-55221Y-9630D01*
X-54395Y-10264D01*
X-53434Y-10662D01*
X-52402Y-10798D01*
X-51370Y-10662D01*
X-50408Y-10264D01*
X-49582Y-9630D01*
X-48949Y-8804D01*
X-48551Y-7843D01*
X-48415Y-6811D01*
X-48551Y-5779D01*
X-48949Y-4818D01*
X-49582Y-3992D01*
X-50408Y-3358D01*
X-51370Y-2960D01*
X-52402Y-2824D01*
D02*
G37*
G36*
X120616Y124814D02*
X116237Y120435D01*
X116011Y120209D01*
X115786Y119984D01*
X111407Y115605D01*
X114191Y112821D01*
X114215Y112520D01*
Y68149D01*
X30784Y-15282D01*
X-17798D01*
X-17886Y-15263D01*
X-18013Y-15220D01*
X-18170Y-15149D01*
X-18352Y-15047D01*
X-18558Y-14912D01*
X-18775Y-14750D01*
X-19297Y-14294D01*
X-19517Y-14077D01*
X-19582Y-13992D01*
X-20408Y-13358D01*
X-21370Y-12960D01*
X-22402Y-12824D01*
X-23433Y-12960D01*
X-24395Y-13358D01*
X-25221Y-13992D01*
X-25854Y-14818D01*
X-26253Y-15779D01*
X-26388Y-16811D01*
X-26253Y-17843D01*
X-25854Y-18804D01*
X-25221Y-19630D01*
X-24395Y-20264D01*
X-23433Y-20662D01*
X-22402Y-20798D01*
X-21370Y-20662D01*
X-20408Y-20264D01*
X-19582Y-19630D01*
X-19517Y-19545D01*
X-19297Y-19328D01*
X-18775Y-18872D01*
X-18558Y-18710D01*
X-18352Y-18575D01*
X-18169Y-18473D01*
X-18013Y-18402D01*
X-17886Y-18359D01*
X-17798Y-18340D01*
X31417D01*
X32003Y-18224D01*
X32499Y-17892D01*
X116825Y66434D01*
X117157Y66930D01*
X117273Y67516D01*
Y112718D01*
X117281Y112922D01*
X117298Y113071D01*
X117304Y113106D01*
X119984Y115786D01*
X120209Y116011D01*
X120435Y116237D01*
X124814Y120616D01*
X120616Y124814D01*
D02*
G37*
G36*
X-84055Y-18892D02*
X-84933Y-19008D01*
X-85751Y-19347D01*
X-86453Y-19885D01*
X-86992Y-20588D01*
X-87056Y-20743D01*
X-87080Y-20773D01*
X-87191Y-20983D01*
X-87285Y-21133D01*
X-87375Y-21251D01*
X-87457Y-21341D01*
X-87529Y-21405D01*
X-87592Y-21448D01*
X-87647Y-21476D01*
X-87699Y-21494D01*
X-87738Y-21502D01*
X-96047D01*
Y-20063D01*
X-101847D01*
X-101984Y-20063D01*
X-102347D01*
X-102484Y-20063D01*
X-104815D01*
Y-23031D01*
Y-26000D01*
X-102681D01*
X-102347Y-26000D01*
X-102181Y-26432D01*
Y-31315D01*
X-96244D01*
Y-26000D01*
X-96047D01*
Y-24561D01*
X-87403D01*
X-87376Y-24565D01*
X-87073Y-24645D01*
X-86922Y-24696D01*
X-85888Y-25147D01*
X-85766Y-25209D01*
X-85751Y-25220D01*
X-85704Y-25240D01*
X-85589Y-25298D01*
X-85588Y-25298D01*
X-85587Y-25298D01*
X-85515Y-25318D01*
X-84933Y-25559D01*
X-84055Y-25675D01*
X-83996Y-25667D01*
X-83496Y-25683D01*
X-83289Y-25706D01*
X-83098Y-25738D01*
X-82933Y-25777D01*
X-82797Y-25821D01*
X-82687Y-25867D01*
X-82603Y-25912D01*
X-82560Y-25942D01*
X-80609Y-27893D01*
X-80113Y-28224D01*
X-79528Y-28340D01*
X-57005D01*
X-56918Y-28359D01*
X-56790Y-28402D01*
X-56634Y-28473D01*
X-56451Y-28575D01*
X-56245Y-28710D01*
X-56028Y-28872D01*
X-55506Y-29328D01*
X-55286Y-29545D01*
X-55221Y-29630D01*
X-54395Y-30264D01*
X-53434Y-30662D01*
X-52402Y-30798D01*
X-51370Y-30662D01*
X-50408Y-30264D01*
X-49582Y-29630D01*
X-48949Y-28804D01*
X-48551Y-27843D01*
X-48415Y-26811D01*
X-48551Y-25779D01*
X-48949Y-24818D01*
X-49582Y-23992D01*
X-50408Y-23358D01*
X-51370Y-22960D01*
X-52402Y-22824D01*
X-53434Y-22960D01*
X-54395Y-23358D01*
X-55221Y-23992D01*
X-55286Y-24077D01*
X-55506Y-24294D01*
X-56028Y-24750D01*
X-56245Y-24912D01*
X-56451Y-25047D01*
X-56634Y-25149D01*
X-56790Y-25220D01*
X-56918Y-25263D01*
X-57005Y-25282D01*
X-78894D01*
X-80397Y-23779D01*
X-80427Y-23736D01*
X-80472Y-23652D01*
X-80518Y-23542D01*
X-80562Y-23405D01*
X-80601Y-23241D01*
X-80631Y-23063D01*
X-80670Y-22574D01*
X-80673Y-22352D01*
X-80664Y-22284D01*
X-80779Y-21406D01*
X-81118Y-20588D01*
X-81657Y-19885D01*
X-82359Y-19347D01*
X-83177Y-19008D01*
X-84055Y-18892D01*
D02*
G37*
G36*
X-22902Y-32890D02*
X-23433Y-32960D01*
X-24395Y-33358D01*
X-25221Y-33992D01*
X-25854Y-34818D01*
X-26253Y-35779D01*
X-26323Y-36311D01*
X-22902D01*
Y-32890D01*
D02*
G37*
G36*
X-105815Y-37780D02*
X-108283D01*
Y-40248D01*
X-105815D01*
Y-37780D01*
D02*
G37*
G36*
X-134843Y-32549D02*
X-135874Y-32684D01*
X-136836Y-33083D01*
X-137662Y-33716D01*
X-138295Y-34542D01*
X-138693Y-35504D01*
X-138829Y-36535D01*
X-138693Y-37567D01*
X-138295Y-38529D01*
X-137662Y-39355D01*
X-136836Y-39988D01*
X-135874Y-40386D01*
X-134843Y-40522D01*
X-133811Y-40386D01*
X-132849Y-39988D01*
X-132023Y-39355D01*
X-131390Y-38529D01*
X-130991Y-37567D01*
X-130856Y-36535D01*
X-130991Y-35504D01*
X-131390Y-34542D01*
X-132023Y-33716D01*
X-132849Y-33083D01*
X-133811Y-32684D01*
X-134843Y-32549D01*
D02*
G37*
G36*
X-21902Y-32890D02*
Y-36311D01*
X-18481D01*
X-18551Y-35779D01*
X-18949Y-34818D01*
X-19582Y-33992D01*
X-20408Y-33358D01*
X-21370Y-32960D01*
X-21902Y-32890D01*
D02*
G37*
G36*
X-105815Y-20063D02*
X-108283D01*
Y-22532D01*
X-105815D01*
Y-20063D01*
D02*
G37*
G36*
Y-23531D02*
X-108283D01*
Y-26000D01*
X-105815D01*
Y-23531D01*
D02*
G37*
G36*
X-22402Y-22824D02*
X-23433Y-22960D01*
X-24395Y-23358D01*
X-25221Y-23992D01*
X-25854Y-24818D01*
X-26253Y-25779D01*
X-26388Y-26811D01*
X-26253Y-27843D01*
X-25854Y-28804D01*
X-25221Y-29630D01*
X-24395Y-30264D01*
X-23433Y-30662D01*
X-22402Y-30798D01*
X-21370Y-30662D01*
X-20408Y-30264D01*
X-19582Y-29630D01*
X-18949Y-28804D01*
X-18551Y-27843D01*
X-18415Y-26811D01*
X-18551Y-25779D01*
X-18949Y-24818D01*
X-19582Y-23992D01*
X-20408Y-23358D01*
X-21370Y-22960D01*
X-22402Y-22824D01*
D02*
G37*
G36*
X39067Y69110D02*
X36795D01*
Y66642D01*
X39067D01*
Y69110D01*
D02*
G37*
G36*
X33374D02*
Y66642D01*
X35842D01*
Y69110D01*
X33374D01*
D02*
G37*
G36*
X42339D02*
X40067D01*
Y66642D01*
X42339D01*
Y69110D01*
D02*
G37*
G36*
X76165Y71193D02*
X72744D01*
Y67772D01*
X73276Y67842D01*
X74238Y68240D01*
X75063Y68874D01*
X75697Y69700D01*
X76095Y70661D01*
X76165Y71193D01*
D02*
G37*
G36*
X71744D02*
X68323D01*
X68393Y70661D01*
X68791Y69700D01*
X69425Y68874D01*
X70251Y68240D01*
X71212Y67842D01*
X71744Y67772D01*
Y71193D01*
D02*
G37*
G36*
X12295Y69110D02*
X9827D01*
Y66642D01*
X12295D01*
Y69110D01*
D02*
G37*
G36*
X42339Y65642D02*
X40067D01*
Y63173D01*
X42339D01*
Y65642D01*
D02*
G37*
G36*
X39067D02*
X36795D01*
Y63173D01*
X39067D01*
Y65642D01*
D02*
G37*
G36*
X-8374Y68520D02*
X-10842D01*
Y66051D01*
X-8374D01*
Y68520D01*
D02*
G37*
G36*
X2968Y173835D02*
X-2968D01*
Y167642D01*
X-2968Y167504D01*
Y167142D01*
X-2968Y167004D01*
Y163214D01*
X-2981Y163196D01*
X-3187Y162952D01*
X-29625Y136514D01*
X-29956Y136018D01*
X-30073Y135433D01*
Y69590D01*
X-30412Y69081D01*
X-30566Y68307D01*
X-30412Y67533D01*
X-29974Y66877D01*
X-29318Y66438D01*
X-28543Y66284D01*
X-27769Y66438D01*
X-27113Y66877D01*
X-26674Y67533D01*
X-26520Y68307D01*
X-26674Y69081D01*
X-27014Y69590D01*
Y134800D01*
X-1239Y160575D01*
X-1071Y160732D01*
X-972Y160811D01*
X2968D01*
Y167004D01*
X2968Y167142D01*
Y167504D01*
X2968Y167642D01*
Y173835D01*
D02*
G37*
G36*
X-4905Y68520D02*
X-7374D01*
Y66051D01*
X-4905D01*
Y68520D01*
D02*
G37*
G36*
X154759Y72575D02*
X151569Y71254D01*
X152890Y68064D01*
X156080Y69385D01*
X154759Y72575D01*
D02*
G37*
G36*
X71744Y75614D02*
X71212Y75544D01*
X70251Y75146D01*
X69425Y74512D01*
X68791Y73686D01*
X68393Y72725D01*
X68323Y72193D01*
X71744D01*
Y75614D01*
D02*
G37*
G36*
X158873Y74279D02*
X155683Y72958D01*
X157004Y69768D01*
X160194Y71089D01*
X158873Y74279D01*
D02*
G37*
G36*
X72744Y75614D02*
Y72193D01*
X76165D01*
X76095Y72725D01*
X75697Y73686D01*
X75063Y74512D01*
X74238Y75146D01*
X73276Y75544D01*
X72744Y75614D01*
D02*
G37*
G36*
X71772Y117766D02*
X70740Y117631D01*
X69778Y117232D01*
X68953Y116599D01*
X68319Y115773D01*
X67921Y114811D01*
X67785Y113779D01*
X67921Y112748D01*
X68319Y111786D01*
X68953Y110960D01*
X69030Y110901D01*
X69148Y110777D01*
X69286Y110612D01*
X69403Y110447D01*
X69502Y110282D01*
X69583Y110116D01*
X69649Y109948D01*
X69700Y109777D01*
X69737Y109600D01*
X69749Y109506D01*
Y86163D01*
X69736Y86017D01*
X69701Y85808D01*
X69661Y85660D01*
X69656Y85646D01*
X68291D01*
Y77740D01*
X76197D01*
Y85646D01*
X73888D01*
X73882Y85660D01*
X73842Y85808D01*
X73808Y86017D01*
X73795Y86163D01*
Y109506D01*
X73806Y109600D01*
X73843Y109777D01*
X73894Y109948D01*
X73960Y110116D01*
X74042Y110282D01*
X74141Y110447D01*
X74258Y110612D01*
X74395Y110777D01*
X74513Y110901D01*
X74591Y110960D01*
X75224Y111786D01*
X75623Y112748D01*
X75758Y113779D01*
X75623Y114811D01*
X75224Y115773D01*
X74591Y116599D01*
X73765Y117232D01*
X72803Y117631D01*
X71772Y117766D01*
D02*
G37*
G36*
X-120616Y124814D02*
X-124814Y120616D01*
X-120435Y116237D01*
X-120209Y116011D01*
X-119984Y115786D01*
X-115605Y111407D01*
X-114587Y112424D01*
X-80725Y78562D01*
X-80691Y78522D01*
X-80682Y78509D01*
X-80680Y78505D01*
X-80675Y78495D01*
X-80609Y78163D01*
X-80171Y77506D01*
X-79514Y77068D01*
X-78740Y76914D01*
X-77966Y77068D01*
X-77310Y77506D01*
X-76871Y78163D01*
X-76717Y78937D01*
X-76871Y79711D01*
X-77310Y80368D01*
X-77966Y80806D01*
X-78740Y80960D01*
X-78788Y80951D01*
X-112424Y114587D01*
X-111407Y115605D01*
X-115786Y119984D01*
X-115883Y120081D01*
X-116139Y120337D01*
X-116237Y120435D01*
X-120616Y124814D01*
D02*
G37*
G36*
X61791Y117766D02*
X61752D01*
X60720Y117631D01*
X59759Y117232D01*
X58933Y116599D01*
X58299Y115773D01*
X57901Y114811D01*
X57765Y113779D01*
X57901Y112748D01*
X58299Y111786D01*
X58933Y110960D01*
X59640Y110418D01*
X59643Y110409D01*
X59690Y110181D01*
X59749Y109566D01*
Y103161D01*
X41288Y84700D01*
X29372D01*
X29346Y84702D01*
X29250Y84728D01*
X28861Y84873D01*
X28854Y84901D01*
Y85843D01*
X28753D01*
X28603Y86336D01*
X28610Y86420D01*
X28645Y86628D01*
X28684Y86775D01*
X28692Y86795D01*
X29406D01*
X29543Y86795D01*
X29906D01*
X30043Y86795D01*
X32374D01*
Y89764D01*
Y92732D01*
X30043D01*
X29906Y92732D01*
X29543D01*
X29406Y92732D01*
X23606D01*
Y91293D01*
X22063D01*
Y92732D01*
X16126D01*
Y87189D01*
X17565D01*
Y85843D01*
X16815D01*
Y79512D01*
X22335D01*
Y82677D01*
X23335D01*
Y79512D01*
X24295D01*
Y79512D01*
X28854D01*
Y80561D01*
X28868Y80567D01*
X29016Y80607D01*
X29226Y80641D01*
X29372Y80654D01*
X42126D01*
X42900Y80808D01*
X43556Y81247D01*
X63202Y100892D01*
X63641Y101549D01*
X63795Y102323D01*
Y109622D01*
X63810Y109851D01*
X63850Y110165D01*
X63901Y110409D01*
X63903Y110418D01*
X64610Y110960D01*
X65244Y111786D01*
X65642Y112748D01*
X65778Y113779D01*
X65642Y114811D01*
X65244Y115773D01*
X64610Y116599D01*
X63785Y117232D01*
X62823Y117631D01*
X61791Y117766D01*
D02*
G37*
G36*
X22063Y96153D02*
X19594D01*
Y93882D01*
X22063D01*
Y96153D01*
D02*
G37*
G36*
X-137985Y100697D02*
X-140087Y97958D01*
X-137348Y95856D01*
X-135246Y98595D01*
X-137985Y100697D01*
D02*
G37*
G36*
X18595Y96153D02*
X16126D01*
Y93882D01*
X18595D01*
Y96153D01*
D02*
G37*
G36*
X35842Y89264D02*
X33374D01*
Y86795D01*
X35842D01*
Y89264D01*
D02*
G37*
G36*
X33374Y92732D02*
Y90264D01*
X35842D01*
Y92732D01*
X33374D01*
D02*
G37*
G36*
X55724Y113279D02*
X52272D01*
Y109827D01*
X55724D01*
Y113279D01*
D02*
G37*
G36*
Y117732D02*
X52272D01*
Y114279D01*
X55724D01*
Y117732D01*
D02*
G37*
G36*
X-141518Y103408D02*
X-143620Y100668D01*
X-140880Y98566D01*
X-138778Y101306D01*
X-141518Y103408D01*
D02*
G37*
G36*
X-134044Y111285D02*
X-135049Y111016D01*
X-135951Y110495D01*
X-136687Y109759D01*
X-137207Y108858D01*
X-137477Y107853D01*
X-137477Y106812D01*
X-137388Y106481D01*
X-137827Y106188D01*
X-138807Y106940D01*
X-140909Y104201D01*
X-137773Y101795D01*
X-134637Y99388D01*
X-132535Y102128D01*
X-133516Y102880D01*
X-133346Y103380D01*
X-133003D01*
X-131998Y103649D01*
X-131097Y104169D01*
X-130361Y104905D01*
X-129840Y105807D01*
X-129571Y106812D01*
X-129571Y107853D01*
X-129840Y108858D01*
X-130361Y109759D01*
X-131097Y110495D01*
X-131998Y111016D01*
X-133003Y111285D01*
X-134044Y111285D01*
D02*
G37*
G36*
X51272Y113279D02*
X47819D01*
Y109827D01*
X51272D01*
Y113279D01*
D02*
G37*
G36*
Y117732D02*
X47819D01*
Y114279D01*
X51272D01*
Y117732D01*
D02*
G37*
G36*
X-75984Y111275D02*
X-76758Y111121D01*
X-77415Y110682D01*
X-77853Y110026D01*
X-78007Y109252D01*
Y101969D01*
X-77853Y101194D01*
X-77415Y100538D01*
X-38614Y61737D01*
X-38805Y61275D01*
X-67469D01*
X-71284Y65090D01*
X-71622Y65453D01*
X-71863Y65752D01*
X-72031Y65993D01*
Y68717D01*
X-74968D01*
X-74970Y68717D01*
X-74977Y68717D01*
X-75406D01*
X-75484Y68770D01*
X-75786Y69024D01*
X-78381Y71619D01*
X-78907Y71971D01*
X-79528Y72094D01*
X-125236D01*
X-125857Y71971D01*
X-126383Y71619D01*
X-129247Y68755D01*
X-129709Y68947D01*
Y76000D01*
X-137614D01*
Y68094D01*
X-130561D01*
X-130370Y67633D01*
X-131589Y66413D01*
X-131672Y66357D01*
X-131798Y66290D01*
X-131957Y66226D01*
X-132151Y66166D01*
X-132379Y66113D01*
X-132628Y66073D01*
X-133276Y66023D01*
X-133556Y66020D01*
X-133661Y66034D01*
X-134693Y65898D01*
X-135655Y65500D01*
X-136481Y64866D01*
X-137114Y64041D01*
X-137512Y63079D01*
X-137648Y62047D01*
X-137512Y61015D01*
X-137114Y60054D01*
X-136481Y59228D01*
X-135655Y58595D01*
X-134693Y58196D01*
X-133661Y58060D01*
X-132630Y58196D01*
X-131668Y58595D01*
X-130842Y59228D01*
X-130209Y60054D01*
X-129810Y61015D01*
X-129675Y62047D01*
X-129687Y62140D01*
X-129667Y62784D01*
X-129638Y63068D01*
X-129595Y63330D01*
X-129543Y63558D01*
X-129483Y63752D01*
X-129418Y63911D01*
X-129351Y64037D01*
X-129295Y64120D01*
X-124565Y68851D01*
X-85696D01*
X-85252Y68717D01*
Y66248D01*
X-82284D01*
Y65248D01*
X-85252D01*
Y62780D01*
X-85252D01*
Y62417D01*
X-85252D01*
Y56480D01*
X-83813D01*
Y45685D01*
X-85843D01*
Y40929D01*
X-79118D01*
Y45685D01*
X-80754D01*
Y56480D01*
X-79315D01*
Y57723D01*
X-77969D01*
Y56480D01*
X-76529D01*
Y55528D01*
X-77772D01*
Y49591D01*
X-72228D01*
Y55528D01*
X-73471D01*
Y56480D01*
X-72031D01*
Y59462D01*
X-71570Y59653D01*
X-69738Y57821D01*
X-69081Y57383D01*
X-68307Y57229D01*
X-56818D01*
X-56354Y57142D01*
X-56354Y56729D01*
Y54088D01*
X-65535D01*
Y55528D01*
X-71079D01*
Y49591D01*
X-65535D01*
Y51030D01*
X-56354D01*
Y49236D01*
X-48449D01*
Y56729D01*
X-48449Y57142D01*
X-47985Y57229D01*
X-35291D01*
Y14055D01*
Y-45681D01*
X-35317Y-45913D01*
X-35371Y-46199D01*
X-35446Y-46472D01*
X-35543Y-46735D01*
X-35660Y-46989D01*
X-35800Y-47235D01*
X-35964Y-47476D01*
X-36110Y-47658D01*
X-50810Y-62358D01*
X-50885Y-62417D01*
X-51036Y-62516D01*
X-51193Y-62601D01*
X-51358Y-62673D01*
X-51533Y-62732D01*
X-51720Y-62779D01*
X-51920Y-62813D01*
X-52134Y-62833D01*
X-52304Y-62837D01*
X-52402Y-62824D01*
X-53434Y-62960D01*
X-54395Y-63358D01*
X-55221Y-63992D01*
X-55854Y-64818D01*
X-56253Y-65779D01*
X-56388Y-66811D01*
X-56253Y-67843D01*
X-55854Y-68804D01*
X-55221Y-69630D01*
X-54395Y-70264D01*
X-53434Y-70662D01*
X-52402Y-70798D01*
X-51370Y-70662D01*
X-50408Y-70264D01*
X-49582Y-69630D01*
X-48949Y-68804D01*
X-48551Y-67843D01*
X-48415Y-66811D01*
X-48428Y-66714D01*
X-48424Y-66543D01*
X-48404Y-66329D01*
X-48370Y-66129D01*
X-48323Y-65943D01*
X-48264Y-65768D01*
X-48192Y-65602D01*
X-48107Y-65445D01*
X-48008Y-65294D01*
X-47949Y-65219D01*
X-35753Y-53023D01*
X-35291Y-53215D01*
Y-106642D01*
X-40801Y-112152D01*
X-41239Y-112809D01*
X-41393Y-113583D01*
X-41239Y-114357D01*
X-40801Y-115013D01*
X-40144Y-115452D01*
X-39370Y-115606D01*
X-38596Y-115452D01*
X-37940Y-115013D01*
X-31837Y-108911D01*
X-31399Y-108255D01*
X-31245Y-107480D01*
Y-47677D01*
Y8518D01*
X-30783Y8709D01*
X-26854Y4781D01*
X-26796Y4706D01*
X-26697Y4555D01*
X-26612Y4398D01*
X-26540Y4232D01*
X-26480Y4057D01*
X-26433Y3870D01*
X-26400Y3671D01*
X-26380Y3457D01*
X-26376Y3286D01*
X-26388Y3189D01*
X-26253Y2157D01*
X-25854Y1196D01*
X-25221Y370D01*
X-24395Y-264D01*
X-23433Y-662D01*
X-22402Y-798D01*
X-21370Y-662D01*
X-20408Y-264D01*
X-19582Y370D01*
X-19523Y448D01*
X-19399Y566D01*
X-19234Y703D01*
X-19069Y820D01*
X-18904Y919D01*
X-18738Y1001D01*
X-18570Y1067D01*
X-18399Y1118D01*
X-18222Y1154D01*
X-18128Y1166D01*
X-13331D01*
X-13188Y1153D01*
X-12980Y1119D01*
X-12834Y1079D01*
X-12811Y1070D01*
Y181D01*
X-7268D01*
Y6118D01*
X-11682D01*
X-11687Y6120D01*
X-11702Y6118D01*
X-11761D01*
X-11799Y6126D01*
X-11837Y6118D01*
X-12811D01*
Y5298D01*
X-12819Y5295D01*
X-12970Y5257D01*
X-13181Y5223D01*
X-13317Y5212D01*
X-18128D01*
X-18222Y5224D01*
X-18399Y5260D01*
X-18570Y5311D01*
X-18738Y5377D01*
X-18904Y5459D01*
X-19069Y5558D01*
X-19234Y5675D01*
X-19399Y5812D01*
X-19523Y5930D01*
X-19582Y6008D01*
X-20408Y6642D01*
X-21370Y7040D01*
X-22402Y7176D01*
X-22499Y7163D01*
X-22670Y7167D01*
X-22884Y7187D01*
X-23083Y7221D01*
X-23270Y7267D01*
X-23445Y7327D01*
X-23610Y7399D01*
X-23767Y7484D01*
X-23918Y7583D01*
X-23993Y7642D01*
X-30426Y14074D01*
X-30572Y14257D01*
X-30735Y14497D01*
X-30875Y14743D01*
X-30993Y14998D01*
X-31089Y15260D01*
X-31164Y15533D01*
X-31219Y15819D01*
X-31245Y16051D01*
Y57229D01*
X-24284D01*
X-24185Y56729D01*
X-24395Y56642D01*
X-25221Y56008D01*
X-25854Y55182D01*
X-26253Y54221D01*
X-26388Y53189D01*
X-26253Y52157D01*
X-25854Y51196D01*
X-25221Y50370D01*
X-24395Y49736D01*
X-23433Y49338D01*
X-22402Y49202D01*
X-21370Y49338D01*
X-20408Y49736D01*
X-19582Y50370D01*
X-18949Y51196D01*
X-18551Y52157D01*
X-18415Y53189D01*
X-18551Y54221D01*
X-18949Y55182D01*
X-19582Y56008D01*
X-20408Y56642D01*
X-20618Y56729D01*
X-20519Y57229D01*
X-11360D01*
X-11218Y57217D01*
X-11009Y57182D01*
X-10862Y57143D01*
X-10842Y57135D01*
Y56283D01*
X-9869D01*
X-9831Y56276D01*
X-9792Y56283D01*
X-9743D01*
X-9723Y56282D01*
X-9717Y56283D01*
X-6032D01*
X-6026Y56282D01*
X-6005Y56283D01*
X-5956D01*
X-5917Y56276D01*
X-5879Y56283D01*
X-5101D01*
X-4905Y56283D01*
X-4905Y56283D01*
X-4642Y56382D01*
X-4642Y56382D01*
X-3668D01*
X-3630Y56374D01*
X-3592Y56382D01*
X-3516D01*
X-3510Y56381D01*
X-3508Y56382D01*
X249D01*
X268Y56378D01*
X288Y56382D01*
X1295D01*
Y57250D01*
X1311Y57256D01*
X1459Y57296D01*
X1668Y57330D01*
X1813Y57343D01*
X4216D01*
Y56012D01*
X10153D01*
Y57343D01*
X87319D01*
X88093Y57497D01*
X88749Y57936D01*
X99265Y68451D01*
X99704Y69108D01*
X99858Y69882D01*
X99704Y70656D01*
X99265Y71312D01*
X98609Y71751D01*
X97835Y71905D01*
X97060Y71751D01*
X96404Y71312D01*
X86481Y61389D01*
X25337D01*
X25145Y61851D01*
X25708Y62413D01*
X26064Y62744D01*
X26356Y62978D01*
X26611Y63155D01*
X26642Y63173D01*
X27364D01*
X27402Y63166D01*
X27440Y63173D01*
X29406D01*
X29543Y63173D01*
X29906D01*
X30043Y63173D01*
X32374D01*
Y66142D01*
Y69110D01*
X30043D01*
X29906Y69110D01*
X29543D01*
X29406Y69110D01*
X28701D01*
X28607Y69575D01*
X28753Y70063D01*
X28854D01*
Y71005D01*
X28861Y71032D01*
X28858Y71054D01*
X28862Y71075D01*
X28854Y71113D01*
Y71694D01*
X28933Y71699D01*
X36205D01*
Y70063D01*
X42398D01*
X42535Y70063D01*
X42898D01*
X43035Y70063D01*
X44534D01*
Y69110D01*
X43488D01*
Y63173D01*
X49031D01*
Y69110D01*
X47592D01*
Y70063D01*
X49228D01*
Y76000D01*
X43035D01*
X42898Y76000D01*
X42535D01*
X42398Y76000D01*
X36205D01*
Y74758D01*
X28854D01*
Y76394D01*
X24295D01*
Y71113D01*
X24288Y71075D01*
X24292Y71054D01*
X24289Y71032D01*
X24295Y71005D01*
Y70063D01*
X24397D01*
X24547Y69570D01*
X24539Y69485D01*
X24505Y69277D01*
X24466Y69130D01*
X24458Y69110D01*
X23606D01*
Y68136D01*
X23599Y68098D01*
X23606Y68060D01*
Y68011D01*
X23604Y67990D01*
X23606Y67984D01*
Y67007D01*
X23599Y66969D01*
X23606Y66931D01*
Y66209D01*
X23588Y66178D01*
X23419Y65934D01*
X22939Y65367D01*
X22525Y64953D01*
X22063Y65144D01*
Y69110D01*
X20624D01*
Y70063D01*
X21374D01*
Y76394D01*
X16815D01*
Y70063D01*
X17565D01*
Y69464D01*
X17211Y69110D01*
X16264D01*
X16126Y69110D01*
X15764D01*
X15626Y69110D01*
X13295D01*
Y66142D01*
Y63173D01*
X15626D01*
X15764Y63173D01*
X16126D01*
X16264Y63173D01*
X20092D01*
X20283Y62711D01*
X19780Y62208D01*
X19598Y62062D01*
X19357Y61899D01*
X19111Y61759D01*
X18857Y61641D01*
X18594Y61545D01*
X18321Y61470D01*
X18035Y61415D01*
X17803Y61389D01*
X1741D01*
X1643Y61396D01*
X1417Y61425D01*
X1295Y61450D01*
Y62122D01*
X324D01*
X287Y62130D01*
X248Y62122D01*
X-3508D01*
X-3510Y62123D01*
X-3516Y62122D01*
X-3592D01*
X-3630Y62130D01*
X-3668Y62122D01*
X-4446D01*
X-4905Y62513D01*
X-4905Y62721D01*
Y65051D01*
X-10842D01*
Y62721D01*
X-10842Y62583D01*
Y62221D01*
X-10842Y62083D01*
Y61369D01*
X-10862Y61361D01*
X-11009Y61322D01*
X-11218Y61287D01*
X-11360Y61275D01*
X-31796D01*
X-32292Y61607D01*
X-32868Y61721D01*
X-32941Y61787D01*
X-73961Y102806D01*
Y109252D01*
X-74115Y110026D01*
X-74554Y110682D01*
X-75210Y111121D01*
X-75984Y111275D01*
D02*
G37*
G36*
X22063Y99425D02*
X19594D01*
Y97154D01*
X22063D01*
Y99425D01*
D02*
G37*
G36*
X35842Y65642D02*
X33374D01*
Y63173D01*
X35842D01*
Y65642D01*
D02*
G37*
G36*
X12295D02*
X9827D01*
Y63173D01*
X12295D01*
Y65642D01*
D02*
G37*
G36*
X18595Y99425D02*
X16126D01*
Y97154D01*
X18595D01*
Y99425D01*
D02*
G37*
G36*
X160577Y70165D02*
X156925Y68652D01*
X153273Y67140D01*
X154594Y63950D01*
X155736Y64423D01*
X156084Y64026D01*
X155913Y63729D01*
X155643Y62724D01*
Y61683D01*
X155913Y60678D01*
X156433Y59777D01*
X157169Y59041D01*
X158071Y58520D01*
X159076Y58251D01*
X160117D01*
X161122Y58520D01*
X162023Y59041D01*
X162759Y59777D01*
X163280Y60678D01*
X163549Y61683D01*
Y62724D01*
X163280Y63729D01*
X162759Y64631D01*
X162023Y65367D01*
X161122Y65887D01*
X160791Y65976D01*
X160757Y66502D01*
X161898Y66975D01*
X160577Y70165D01*
D02*
G37*
%LPD*%
G36*
X-54510Y-28878D02*
X-54813Y-28580D01*
X-55387Y-28079D01*
X-55659Y-27875D01*
X-55922Y-27703D01*
X-56174Y-27562D01*
X-56416Y-27452D01*
X-56648Y-27374D01*
X-56871Y-27327D01*
X-57083Y-27311D01*
Y-26311D01*
X-56871Y-26295D01*
X-56648Y-26248D01*
X-56416Y-26170D01*
X-56174Y-26060D01*
X-55922Y-25919D01*
X-55659Y-25747D01*
X-55387Y-25543D01*
X-54813Y-25042D01*
X-54510Y-24744D01*
Y-28878D01*
D02*
G37*
G36*
X116642Y113958D02*
X116559Y113903D01*
X116485Y113821D01*
X116421Y113711D01*
X116367Y113574D01*
X116323Y113409D01*
X116288Y113217D01*
X116264Y112998D01*
X116244Y112477D01*
X115244Y112199D01*
X115239Y112498D01*
X115200Y112997D01*
X115165Y113197D01*
X115121Y113365D01*
X115067Y113499D01*
X115003Y113600D01*
X114929Y113669D01*
X114846Y113705D01*
X114752Y113707D01*
X116735Y113986D01*
X116642Y113958D01*
D02*
G37*
G36*
X-98111Y-37006D02*
X-98196Y-37036D01*
X-98271Y-37086D01*
X-98336Y-37156D01*
X-98391Y-37246D01*
X-98436Y-37356D01*
X-98471Y-37486D01*
X-98496Y-37636D01*
X-98511Y-37806D01*
X-98513Y-37894D01*
X-98511Y-37984D01*
X-98496Y-38156D01*
X-98471Y-38308D01*
X-98436Y-38439D01*
X-98391Y-38550D01*
X-98336Y-38642D01*
X-98271Y-38712D01*
X-98196Y-38763D01*
X-98111Y-38793D01*
X-98016Y-38803D01*
X-100016D01*
X-99921Y-38793D01*
X-99836Y-38763D01*
X-99761Y-38712D01*
X-99696Y-38642D01*
X-99641Y-38550D01*
X-99596Y-38439D01*
X-99561Y-38308D01*
X-99536Y-38156D01*
X-99521Y-37984D01*
X-99518Y-37894D01*
X-99521Y-37806D01*
X-99536Y-37636D01*
X-99561Y-37486D01*
X-99596Y-37356D01*
X-99641Y-37246D01*
X-99696Y-37156D01*
X-99761Y-37086D01*
X-99836Y-37036D01*
X-99921Y-37006D01*
X-100016Y-36996D01*
X-98016D01*
X-98111Y-37006D01*
D02*
G37*
G36*
X19999Y88191D02*
X19915Y88161D01*
X19839Y88111D01*
X19774Y88041D01*
X19719Y87951D01*
X19674Y87841D01*
X19639Y87711D01*
X19614Y87561D01*
X19600Y87391D01*
X19594Y87201D01*
X18595D01*
X18589Y87391D01*
X18575Y87561D01*
X18550Y87711D01*
X18515Y87841D01*
X18470Y87951D01*
X18415Y88041D01*
X18350Y88111D01*
X18274Y88161D01*
X18190Y88191D01*
X18094Y88201D01*
X20095D01*
X19999Y88191D01*
D02*
G37*
G36*
X308Y-161803D02*
X323Y-161975D01*
X348Y-162127D01*
X383Y-162258D01*
X428Y-162369D01*
X483Y-162460D01*
X548Y-162531D01*
X623Y-162582D01*
X708Y-162612D01*
X803Y-162622D01*
X-1197D01*
X-1102Y-162612D01*
X-1017Y-162582D01*
X-942Y-162531D01*
X-877Y-162460D01*
X-822Y-162369D01*
X-777Y-162258D01*
X-742Y-162127D01*
X-717Y-161975D01*
X-702Y-161803D01*
X-697Y-161610D01*
X303D01*
X308Y-161803D01*
D02*
G37*
G36*
X-54510Y-38878D02*
X-54813Y-38580D01*
X-55387Y-38079D01*
X-55659Y-37875D01*
X-55922Y-37703D01*
X-56174Y-37562D01*
X-56416Y-37452D01*
X-56648Y-37374D01*
X-56871Y-37327D01*
X-57083Y-37311D01*
Y-36311D01*
X-56871Y-36295D01*
X-56648Y-36248D01*
X-56416Y-36170D01*
X-56174Y-36060D01*
X-55922Y-35919D01*
X-55659Y-35747D01*
X-55387Y-35543D01*
X-54813Y-35042D01*
X-54510Y-34744D01*
Y-38878D01*
D02*
G37*
G36*
X-97061Y-22127D02*
X-97031Y-22211D01*
X-96980Y-22287D01*
X-96909Y-22352D01*
X-96818Y-22407D01*
X-96707Y-22452D01*
X-96575Y-22487D01*
X-96424Y-22512D01*
X-96251Y-22526D01*
X-96059Y-22532D01*
Y-23531D01*
X-96251Y-23537D01*
X-96424Y-23551D01*
X-96575Y-23576D01*
X-96707Y-23611D01*
X-96818Y-23656D01*
X-96909Y-23711D01*
X-96980Y-23776D01*
X-97031Y-23852D01*
X-97061Y-23936D01*
X-97071Y-24032D01*
Y-22031D01*
X-97061Y-22127D01*
D02*
G37*
G36*
X-739Y161835D02*
X-807Y161899D01*
X-891Y161933D01*
X-992Y161937D01*
X-1109Y161910D01*
X-1242Y161853D01*
X-1392Y161766D01*
X-1558Y161649D01*
X-1740Y161502D01*
X-2153Y161116D01*
X-2664Y162020D01*
X-2473Y162217D01*
X-2171Y162575D01*
X-2060Y162735D01*
X-1975Y162882D01*
X-1916Y163018D01*
X-1884Y163140D01*
X-1878Y163251D01*
X-1898Y163349D01*
X-1945Y163434D01*
X-739Y161835D01*
D02*
G37*
G36*
X72766Y86226D02*
X72795Y85889D01*
X72844Y85592D01*
X72913Y85335D01*
X73002Y85117D01*
X73110Y84939D01*
X73238Y84800D01*
X73386Y84701D01*
X73553Y84641D01*
X73740Y84622D01*
X69803D01*
X69990Y84641D01*
X70157Y84701D01*
X70305Y84800D01*
X70433Y84939D01*
X70541Y85117D01*
X70630Y85335D01*
X70699Y85592D01*
X70748Y85889D01*
X70778Y86226D01*
X70787Y86602D01*
X72756D01*
X72766Y86226D01*
D02*
G37*
G36*
X19600Y85638D02*
X19614Y85466D01*
X19639Y85314D01*
X19674Y85183D01*
X19719Y85071D01*
X19774Y84980D01*
X19839Y84910D01*
X19915Y84859D01*
X19999Y84829D01*
X20095Y84819D01*
X18094D01*
X18190Y84829D01*
X18274Y84859D01*
X18350Y84910D01*
X18415Y84980D01*
X18470Y85071D01*
X18515Y85183D01*
X18550Y85314D01*
X18575Y85466D01*
X18589Y85638D01*
X18595Y85830D01*
X19594D01*
X19600Y85638D01*
D02*
G37*
G36*
X-85132Y-24386D02*
X-85456Y-24224D01*
X-86553Y-23745D01*
X-86778Y-23668D01*
X-87168Y-23566D01*
X-87333Y-23540D01*
X-87478Y-23531D01*
X-87822Y-22532D01*
X-87622Y-22519D01*
X-87430Y-22480D01*
X-87246Y-22416D01*
X-87070Y-22326D01*
X-86902Y-22211D01*
X-86741Y-22070D01*
X-86589Y-21903D01*
X-86444Y-21711D01*
X-86308Y-21493D01*
X-86179Y-21249D01*
X-85132Y-24386D01*
D02*
G37*
G36*
X28347Y87788D02*
X28181Y87729D01*
X28035Y87630D01*
X27909Y87492D01*
X27802Y87315D01*
X27715Y87099D01*
X27647Y86843D01*
X27598Y86547D01*
X27572Y86254D01*
X27630Y85323D01*
X27661Y85145D01*
X27698Y85008D01*
X27740Y84909D01*
X27788Y84850D01*
X27842Y84830D01*
X25307D01*
X25361Y84850D01*
X25409Y84909D01*
X25452Y85008D01*
X25489Y85145D01*
X25520Y85323D01*
X25545Y85539D01*
X25579Y86090D01*
X25581Y86204D01*
X25581Y86213D01*
X25552Y86547D01*
X25503Y86843D01*
X25435Y87099D01*
X25348Y87315D01*
X25240Y87492D01*
X25114Y87630D01*
X24968Y87729D01*
X24803Y87788D01*
X24618Y87807D01*
X28531D01*
X28347Y87788D01*
D02*
G37*
G36*
X-98111Y-24986D02*
X-98196Y-25016D01*
X-98271Y-25067D01*
X-98336Y-25138D01*
X-98391Y-25229D01*
X-98436Y-25340D01*
X-98471Y-25472D01*
X-98496Y-25624D01*
X-98511Y-25796D01*
X-98513Y-25886D01*
X-98511Y-25976D01*
X-98496Y-26148D01*
X-98471Y-26300D01*
X-98436Y-26431D01*
X-98391Y-26543D01*
X-98336Y-26634D01*
X-98271Y-26705D01*
X-98196Y-26755D01*
X-98111Y-26786D01*
X-98016Y-26796D01*
X-100016D01*
X-99921Y-26786D01*
X-99836Y-26755D01*
X-99761Y-26705D01*
X-99696Y-26634D01*
X-99641Y-26543D01*
X-99596Y-26431D01*
X-99561Y-26300D01*
X-99536Y-26148D01*
X-99521Y-25976D01*
X-99518Y-25886D01*
X-99521Y-25796D01*
X-99536Y-25624D01*
X-99561Y-25472D01*
X-99596Y-25340D01*
X-99641Y-25229D01*
X-99696Y-25138D01*
X-99761Y-25067D01*
X-99836Y-25016D01*
X-99921Y-24986D01*
X-100016Y-24976D01*
X-98016D01*
X-98111Y-24986D01*
D02*
G37*
G36*
X-81690Y-22620D02*
X-81643Y-23189D01*
X-81601Y-23444D01*
X-81545Y-23679D01*
X-81475Y-23895D01*
X-81393Y-24092D01*
X-81297Y-24269D01*
X-81189Y-24426D01*
X-81067Y-24565D01*
X-81774Y-25272D01*
X-81912Y-25150D01*
X-82070Y-25041D01*
X-82247Y-24946D01*
X-82443Y-24863D01*
X-82660Y-24794D01*
X-82895Y-24738D01*
X-83150Y-24695D01*
X-83424Y-24665D01*
X-84031Y-24646D01*
X-81693Y-22307D01*
X-81690Y-22620D01*
D02*
G37*
G36*
X-113583Y114863D02*
X-113621Y114781D01*
X-113639Y114692D01*
X-113634Y114596D01*
X-113609Y114493D01*
X-113562Y114382D01*
X-113494Y114265D01*
X-113404Y114139D01*
X-113293Y114007D01*
X-113161Y113868D01*
X-113868Y113161D01*
X-114007Y113293D01*
X-114139Y113404D01*
X-114265Y113494D01*
X-114382Y113562D01*
X-114493Y113609D01*
X-114596Y113634D01*
X-114692Y113639D01*
X-114781Y113621D01*
X-114863Y113583D01*
X-114937Y113523D01*
X-113523Y114937D01*
X-113583Y114863D01*
D02*
G37*
G36*
X21049Y90669D02*
X21080Y90584D01*
X21130Y90509D01*
X21201Y90444D01*
X21292Y90389D01*
X21403Y90344D01*
X21535Y90309D01*
X21687Y90284D01*
X21859Y90269D01*
X22051Y90264D01*
Y89264D01*
X21859Y89259D01*
X21687Y89244D01*
X21535Y89219D01*
X21403Y89184D01*
X21292Y89139D01*
X21201Y89084D01*
X21130Y89019D01*
X21080Y88944D01*
X21049Y88859D01*
X21039Y88764D01*
Y90764D01*
X21049Y90669D01*
D02*
G37*
G36*
X-19991Y-45042D02*
X-19416Y-45543D01*
X-19144Y-45747D01*
X-18882Y-45919D01*
X-18629Y-46060D01*
X-18387Y-46170D01*
X-18155Y-46248D01*
X-17932Y-46295D01*
X-17720Y-46311D01*
Y-47311D01*
X-17932Y-47327D01*
X-18155Y-47374D01*
X-18387Y-47452D01*
X-18629Y-47562D01*
X-18882Y-47703D01*
X-19144Y-47875D01*
X-19416Y-48079D01*
X-19991Y-48580D01*
X-20293Y-48878D01*
Y-44744D01*
X-19991Y-45042D01*
D02*
G37*
G36*
X-19446Y-67265D02*
X-19394Y-68025D01*
X-19346Y-68362D01*
X-19282Y-68669D01*
X-19203Y-68948D01*
X-19110Y-69196D01*
X-19001Y-69416D01*
X-18877Y-69607D01*
X-18737Y-69768D01*
X-19445Y-70475D01*
X-19606Y-70336D01*
X-19796Y-70212D01*
X-20016Y-70103D01*
X-20265Y-70009D01*
X-20543Y-69930D01*
X-20851Y-69867D01*
X-21187Y-69818D01*
X-21948Y-69767D01*
X-22372Y-69764D01*
X-19449Y-66840D01*
X-19446Y-67265D01*
D02*
G37*
G36*
X-132432Y-44766D02*
X-131857Y-45268D01*
X-131585Y-45471D01*
X-131323Y-45644D01*
X-131070Y-45785D01*
X-130828Y-45894D01*
X-130596Y-45973D01*
X-130373Y-46020D01*
X-130161Y-46035D01*
Y-47035D01*
X-130373Y-47051D01*
X-130596Y-47098D01*
X-130828Y-47176D01*
X-131070Y-47286D01*
X-131323Y-47427D01*
X-131585Y-47600D01*
X-131857Y-47803D01*
X-132432Y-48305D01*
X-132734Y-48602D01*
Y-44469D01*
X-132432Y-44766D01*
D02*
G37*
G36*
X-54694Y-48672D02*
X-54957Y-48361D01*
X-55470Y-47837D01*
X-55720Y-47625D01*
X-55964Y-47445D01*
X-56204Y-47297D01*
X-56440Y-47183D01*
X-56670Y-47101D01*
X-56896Y-47052D01*
X-57117Y-47035D01*
X-57022Y-46035D01*
X-56822Y-46021D01*
X-56605Y-45976D01*
X-56373Y-45902D01*
X-56125Y-45799D01*
X-55861Y-45666D01*
X-55582Y-45503D01*
X-54976Y-45089D01*
X-54650Y-44837D01*
X-54308Y-44556D01*
X-54694Y-48672D01*
D02*
G37*
G36*
X-48484Y-64286D02*
X-48670Y-64487D01*
X-48836Y-64699D01*
X-48983Y-64922D01*
X-49109Y-65155D01*
X-49215Y-65400D01*
X-49302Y-65654D01*
X-49369Y-65920D01*
X-49415Y-66197D01*
X-49442Y-66484D01*
X-49449Y-66782D01*
X-52372Y-63858D01*
X-52074Y-63851D01*
X-51787Y-63825D01*
X-51511Y-63778D01*
X-51245Y-63711D01*
X-50990Y-63625D01*
X-50746Y-63518D01*
X-50512Y-63392D01*
X-50290Y-63246D01*
X-50078Y-63080D01*
X-49876Y-62894D01*
X-48484Y-64286D01*
D02*
G37*
G36*
X-19991Y-55042D02*
X-19416Y-55543D01*
X-19144Y-55747D01*
X-18882Y-55919D01*
X-18629Y-56060D01*
X-18387Y-56170D01*
X-18155Y-56248D01*
X-17932Y-56295D01*
X-17720Y-56311D01*
Y-57311D01*
X-17932Y-57327D01*
X-18155Y-57374D01*
X-18387Y-57452D01*
X-18629Y-57562D01*
X-18882Y-57703D01*
X-19144Y-57875D01*
X-19416Y-58079D01*
X-19991Y-58580D01*
X-20293Y-58878D01*
Y-54744D01*
X-19991Y-55042D01*
D02*
G37*
G36*
X-54510Y-58878D02*
X-54813Y-58580D01*
X-55387Y-58079D01*
X-55659Y-57875D01*
X-55922Y-57703D01*
X-56174Y-57562D01*
X-56416Y-57452D01*
X-56648Y-57374D01*
X-56871Y-57327D01*
X-57083Y-57311D01*
Y-56311D01*
X-56871Y-56295D01*
X-56648Y-56248D01*
X-56416Y-56170D01*
X-56174Y-56060D01*
X-55922Y-55919D01*
X-55659Y-55747D01*
X-55387Y-55543D01*
X-54813Y-55042D01*
X-54510Y-54744D01*
Y-58878D01*
D02*
G37*
G36*
X-32283Y-47677D02*
X-34252Y-52022D01*
X-34266Y-51662D01*
X-34308Y-51369D01*
X-34377Y-51143D01*
X-34475Y-50985D01*
X-34600Y-50893D01*
X-34753Y-50869D01*
X-34934Y-50913D01*
X-35143Y-51023D01*
X-35379Y-51200D01*
X-35644Y-51445D01*
Y-48661D01*
X-35379Y-48377D01*
X-35143Y-48082D01*
X-34934Y-47774D01*
X-34753Y-47456D01*
X-34600Y-47125D01*
X-34475Y-46784D01*
X-34377Y-46430D01*
X-34308Y-46065D01*
X-34266Y-45689D01*
X-34252Y-45301D01*
X-32283Y-47677D01*
D02*
G37*
G36*
X-132287Y-54985D02*
X-131774Y-55509D01*
X-131525Y-55722D01*
X-131280Y-55902D01*
X-131040Y-56049D01*
X-130805Y-56164D01*
X-130574Y-56246D01*
X-130348Y-56295D01*
X-130127Y-56311D01*
X-130222Y-57311D01*
X-130423Y-57326D01*
X-130639Y-57370D01*
X-130871Y-57444D01*
X-131119Y-57548D01*
X-131383Y-57681D01*
X-131662Y-57844D01*
X-132268Y-58258D01*
X-132594Y-58509D01*
X-132936Y-58790D01*
X-132550Y-54674D01*
X-132287Y-54985D01*
D02*
G37*
G36*
X-113161Y-113868D02*
X-113293Y-114007D01*
X-113404Y-114139D01*
X-113494Y-114265D01*
X-113562Y-114382D01*
X-113609Y-114493D01*
X-113634Y-114596D01*
X-113639Y-114692D01*
X-113621Y-114781D01*
X-113583Y-114863D01*
X-113523Y-114937D01*
X-114937Y-113523D01*
X-114863Y-113583D01*
X-114781Y-113621D01*
X-114692Y-113639D01*
X-114596Y-113634D01*
X-114493Y-113609D01*
X-114382Y-113562D01*
X-114265Y-113494D01*
X-114139Y-113404D01*
X-114007Y-113293D01*
X-113868Y-113161D01*
X-113161Y-113868D01*
D02*
G37*
G36*
X-81067Y-39215D02*
X-81189Y-39353D01*
X-81297Y-39511D01*
X-81393Y-39688D01*
X-81475Y-39884D01*
X-81545Y-40100D01*
X-81601Y-40336D01*
X-81643Y-40591D01*
X-81673Y-40865D01*
X-81693Y-41472D01*
X-84031Y-39134D01*
X-83718Y-39131D01*
X-83150Y-39084D01*
X-82895Y-39042D01*
X-82660Y-38985D01*
X-82443Y-38916D01*
X-82247Y-38834D01*
X-82070Y-38738D01*
X-81912Y-38630D01*
X-81774Y-38508D01*
X-81067Y-39215D01*
D02*
G37*
G36*
X24630Y90298D02*
X25606Y90360D01*
X25732Y90390D01*
X25823Y90423D01*
X25879Y90460D01*
Y89067D01*
X25823Y89105D01*
X25732Y89138D01*
X25606Y89168D01*
X25446Y89193D01*
X25021Y89232D01*
X24630Y89245D01*
Y88764D01*
X24620Y88859D01*
X24590Y88944D01*
X24539Y89019D01*
X24468Y89084D01*
X24377Y89139D01*
X24266Y89184D01*
X24134Y89219D01*
X23983Y89244D01*
X23811Y89259D01*
X23618Y89264D01*
Y90264D01*
X23811Y90269D01*
X23983Y90284D01*
X24134Y90309D01*
X24266Y90344D01*
X24377Y90389D01*
X24468Y90444D01*
X24539Y90509D01*
X24590Y90584D01*
X24620Y90669D01*
X24630Y90764D01*
Y90298D01*
D02*
G37*
G36*
X114007Y-113293D02*
X114139Y-113404D01*
X114265Y-113494D01*
X114382Y-113562D01*
X114493Y-113609D01*
X114596Y-113634D01*
X114692Y-113639D01*
X114781Y-113621D01*
X114863Y-113583D01*
X114937Y-113523D01*
X113523Y-114937D01*
X113583Y-114863D01*
X113621Y-114781D01*
X113639Y-114692D01*
X113634Y-114596D01*
X113609Y-114493D01*
X113562Y-114382D01*
X113494Y-114265D01*
X113404Y-114139D01*
X113293Y-114007D01*
X113161Y-113868D01*
X113868Y-113161D01*
X114007Y-113293D01*
D02*
G37*
G36*
X-97061Y-39843D02*
X-97031Y-39928D01*
X-96980Y-40003D01*
X-96909Y-40068D01*
X-96818Y-40123D01*
X-96707Y-40168D01*
X-96575Y-40203D01*
X-96424Y-40228D01*
X-96251Y-40243D01*
X-96059Y-40248D01*
Y-41248D01*
X-96251Y-41253D01*
X-96424Y-41268D01*
X-96575Y-41293D01*
X-96707Y-41328D01*
X-96818Y-41373D01*
X-96909Y-41428D01*
X-96980Y-41493D01*
X-97031Y-41568D01*
X-97061Y-41653D01*
X-97071Y-41748D01*
Y-39748D01*
X-97061Y-39843D01*
D02*
G37*
G36*
X-54510Y-78878D02*
X-54813Y-78580D01*
X-55387Y-78079D01*
X-55659Y-77875D01*
X-55922Y-77703D01*
X-56174Y-77562D01*
X-56416Y-77452D01*
X-56648Y-77374D01*
X-56871Y-77327D01*
X-57083Y-77311D01*
Y-76311D01*
X-56871Y-76295D01*
X-56648Y-76248D01*
X-56416Y-76170D01*
X-56174Y-76060D01*
X-55922Y-75919D01*
X-55659Y-75747D01*
X-55387Y-75543D01*
X-54813Y-75042D01*
X-54510Y-74744D01*
Y-78878D01*
D02*
G37*
G36*
X63547Y111558D02*
X63381Y111482D01*
X63235Y111354D01*
X63108Y111175D01*
X63000Y110945D01*
X62912Y110665D01*
X62844Y110333D01*
X62795Y109950D01*
X62766Y109516D01*
X62756Y109030D01*
X60787D01*
X60778Y109516D01*
X60699Y110333D01*
X60631Y110665D01*
X60543Y110945D01*
X60436Y111175D01*
X60309Y111354D01*
X60162Y111482D01*
X59996Y111558D01*
X59811Y111584D01*
X63732D01*
X63547Y111558D01*
D02*
G37*
G36*
X-86179Y-42530D02*
X-86308Y-42287D01*
X-86444Y-42069D01*
X-86589Y-41876D01*
X-86741Y-41710D01*
X-86902Y-41569D01*
X-87070Y-41453D01*
X-87246Y-41363D01*
X-87430Y-41299D01*
X-87622Y-41261D01*
X-87822Y-41248D01*
X-87478Y-40248D01*
X-87333Y-40240D01*
X-87168Y-40214D01*
X-86983Y-40171D01*
X-86778Y-40111D01*
X-86308Y-39940D01*
X-85760Y-39701D01*
X-85132Y-39393D01*
X-86179Y-42530D01*
D02*
G37*
G36*
X73633Y111455D02*
X73449Y111233D01*
X73286Y111005D01*
X73146Y110770D01*
X73027Y110529D01*
X72929Y110281D01*
X72853Y110026D01*
X72799Y109765D01*
X72767Y109498D01*
X72756Y109224D01*
X70787D01*
X70777Y109498D01*
X70744Y109765D01*
X70690Y110026D01*
X70614Y110281D01*
X70517Y110529D01*
X70398Y110770D01*
X70257Y111005D01*
X70095Y111233D01*
X69910Y111455D01*
X69705Y111671D01*
X73839D01*
X73633Y111455D01*
D02*
G37*
G36*
X-9831Y49422D02*
X-9850Y49606D01*
X-9909Y49771D01*
X-10008Y49917D01*
X-10146Y50044D01*
X-10323Y50151D01*
X-10539Y50238D01*
X-10795Y50306D01*
X-11090Y50355D01*
X-11425Y50384D01*
X-11799Y50394D01*
Y52362D01*
X-11425Y52372D01*
X-11090Y52401D01*
X-10795Y52450D01*
X-10539Y52518D01*
X-10323Y52605D01*
X-10146Y52712D01*
X-10008Y52839D01*
X-9909Y52984D01*
X-9850Y53150D01*
X-9831Y53334D01*
Y49422D01*
D02*
G37*
G36*
X-129945Y64928D02*
X-130094Y64758D01*
X-130227Y64563D01*
X-130343Y64342D01*
X-130444Y64095D01*
X-130528Y63823D01*
X-130597Y63525D01*
X-130649Y63202D01*
X-130685Y62852D01*
X-130709Y62077D01*
X-133632Y65000D01*
X-133231Y65004D01*
X-132507Y65060D01*
X-132183Y65112D01*
X-131885Y65180D01*
X-131613Y65265D01*
X-131367Y65365D01*
X-131146Y65482D01*
X-130950Y65614D01*
X-130780Y65763D01*
X-129945Y64928D01*
D02*
G37*
G36*
X-73175Y66629D02*
X-73236Y66456D01*
X-73239Y66252D01*
X-73186Y66019D01*
X-73074Y65756D01*
X-72905Y65462D01*
X-72678Y65139D01*
X-72394Y64785D01*
X-71652Y63988D01*
X-73240Y62793D01*
X-73636Y63175D01*
X-74350Y63779D01*
X-74667Y63999D01*
X-74959Y64167D01*
X-75224Y64280D01*
X-75463Y64340D01*
X-75676Y64346D01*
X-75863Y64299D01*
X-76024Y64197D01*
X-73055Y66772D01*
X-73175Y66629D01*
D02*
G37*
G36*
X23323Y61478D02*
X23145Y61241D01*
X23035Y61032D01*
X22991Y60852D01*
X23016Y60698D01*
X23107Y60573D01*
X23265Y60476D01*
X23491Y60406D01*
X23784Y60364D01*
X24144Y60350D01*
X19799Y58382D01*
X17423Y60350D01*
X17811Y60364D01*
X18187Y60406D01*
X18552Y60476D01*
X18906Y60573D01*
X19247Y60698D01*
X19578Y60852D01*
X19896Y61032D01*
X20204Y61241D01*
X20499Y61478D01*
X20784Y61742D01*
X23567D01*
X23323Y61478D01*
D02*
G37*
G36*
X-55330Y51559D02*
X-55340Y51654D01*
X-55371Y51739D01*
X-55421Y51814D01*
X-55492Y51879D01*
X-55583Y51934D01*
X-55695Y51979D01*
X-55826Y52014D01*
X-55978Y52039D01*
X-56150Y52054D01*
X-56342Y52059D01*
Y53059D01*
X-56150Y53064D01*
X-55978Y53079D01*
X-55826Y53104D01*
X-55695Y53139D01*
X-55583Y53184D01*
X-55492Y53239D01*
X-55421Y53304D01*
X-55371Y53379D01*
X-55340Y53464D01*
X-55330Y53559D01*
Y51559D01*
D02*
G37*
G36*
X-66549Y53464D02*
X-66519Y53379D01*
X-66468Y53304D01*
X-66398Y53239D01*
X-66306Y53184D01*
X-66195Y53139D01*
X-66064Y53104D01*
X-65912Y53079D01*
X-65740Y53064D01*
X-65548Y53059D01*
Y52059D01*
X-65740Y52054D01*
X-65912Y52039D01*
X-66064Y52014D01*
X-66195Y51979D01*
X-66306Y51934D01*
X-66398Y51879D01*
X-66468Y51814D01*
X-66519Y51739D01*
X-66549Y51654D01*
X-66559Y51559D01*
Y53559D01*
X-66549Y53464D01*
D02*
G37*
G36*
X-75972Y30496D02*
X-75982Y30591D01*
X-76012Y30676D01*
X-76062Y30751D01*
X-76132Y30816D01*
X-76222Y30871D01*
X-76332Y30916D01*
X-76462Y30951D01*
X-76612Y30976D01*
X-76782Y30991D01*
X-76972Y30996D01*
Y31996D01*
X-76782Y32001D01*
X-76612Y32016D01*
X-76462Y32041D01*
X-76332Y32076D01*
X-76222Y32121D01*
X-76132Y32176D01*
X-76062Y32241D01*
X-76012Y32316D01*
X-75982Y32401D01*
X-75972Y32496D01*
Y30496D01*
D02*
G37*
G36*
X-80132Y32401D02*
X-80102Y32316D01*
X-80051Y32241D01*
X-79980Y32176D01*
X-79889Y32121D01*
X-79778Y32076D01*
X-79646Y32041D01*
X-79494Y32016D01*
X-79322Y32001D01*
X-79130Y31996D01*
Y30996D01*
X-79322Y30991D01*
X-79494Y30976D01*
X-79646Y30951D01*
X-79778Y30916D01*
X-79889Y30871D01*
X-79980Y30816D01*
X-80051Y30751D01*
X-80102Y30676D01*
X-80132Y30591D01*
X-80142Y30496D01*
Y32496D01*
X-80132Y32401D01*
D02*
G37*
G36*
X-10015Y22189D02*
X-10025Y22284D01*
X-10056Y22369D01*
X-10106Y22444D01*
X-10177Y22509D01*
X-10268Y22564D01*
X-10380Y22609D01*
X-10511Y22644D01*
X-10663Y22669D01*
X-10835Y22684D01*
X-11027Y22689D01*
Y23689D01*
X-10835Y23694D01*
X-10663Y23709D01*
X-10511Y23734D01*
X-10380Y23769D01*
X-10268Y23814D01*
X-10177Y23869D01*
X-10106Y23934D01*
X-10056Y24009D01*
X-10025Y24094D01*
X-10015Y24189D01*
Y22189D01*
D02*
G37*
G36*
X-81779Y45483D02*
X-81763Y45313D01*
X-81739Y45163D01*
X-81704Y45033D01*
X-81659Y44923D01*
X-81603Y44833D01*
X-81538Y44763D01*
X-81463Y44713D01*
X-81379Y44683D01*
X-81283Y44673D01*
X-83284D01*
X-83188Y44683D01*
X-83104Y44713D01*
X-83029Y44763D01*
X-82964Y44833D01*
X-82908Y44923D01*
X-82863Y45033D01*
X-82828Y45163D01*
X-82803Y45313D01*
X-82788Y45483D01*
X-82784Y45673D01*
X-81783D01*
X-81779Y45483D01*
D02*
G37*
G36*
X27402Y64185D02*
X27249Y64297D01*
X27068Y64352D01*
X26859D01*
X26623Y64297D01*
X26358Y64185D01*
X26066Y64018D01*
X25746Y63796D01*
X25398Y63517D01*
X24618Y62793D01*
X23226Y64185D01*
X23616Y64589D01*
X24229Y65313D01*
X24451Y65633D01*
X24618Y65925D01*
X24730Y66190D01*
X24785Y66426D01*
Y66635D01*
X24730Y66816D01*
X24618Y66969D01*
X27402Y64185D01*
D02*
G37*
G36*
X-76526Y68315D02*
X-76104Y67959D01*
X-75915Y67828D01*
X-75740Y67729D01*
X-75581Y67661D01*
X-75436Y67625D01*
X-75305Y67620D01*
X-75190Y67647D01*
X-75089Y67704D01*
X-75500Y67381D01*
X-74999Y66929D01*
X-75984Y65944D01*
X-75998Y65987D01*
X-76040Y66053D01*
X-76109Y66145D01*
X-76330Y66402D01*
X-76507Y66586D01*
X-76956Y66231D01*
X-76881Y66314D01*
X-76841Y66416D01*
X-76836Y66536D01*
X-76866Y66675D01*
X-76932Y66833D01*
X-77033Y67009D01*
X-77170Y67204D01*
X-77342Y67418D01*
X-77792Y67901D01*
X-76760Y68540D01*
X-76526Y68315D01*
D02*
G37*
G36*
X-5898Y61024D02*
X-5839Y60859D01*
X-5740Y60713D01*
X-5603Y60586D01*
X-5425Y60479D01*
X-5209Y60392D01*
X-4953Y60324D01*
X-4755Y60291D01*
X-4594Y60315D01*
X-4338Y60376D01*
X-4122Y60455D01*
X-3945Y60551D01*
X-3807Y60664D01*
X-3709Y60795D01*
X-3649Y60944D01*
X-3630Y61110D01*
Y57394D01*
X-3649Y57560D01*
X-3709Y57709D01*
X-3807Y57840D01*
X-3945Y57953D01*
X-4122Y58049D01*
X-4338Y58128D01*
X-4594Y58189D01*
X-4755Y58213D01*
X-4953Y58180D01*
X-5209Y58112D01*
X-5425Y58025D01*
X-5603Y57918D01*
X-5740Y57791D01*
X-5839Y57645D01*
X-5898Y57480D01*
X-5917Y57296D01*
Y61208D01*
X-5898Y61024D01*
D02*
G37*
G36*
X-9831Y57296D02*
X-9850Y57480D01*
X-9909Y57645D01*
X-10008Y57791D01*
X-10146Y57918D01*
X-10323Y58025D01*
X-10539Y58112D01*
X-10795Y58180D01*
X-11090Y58229D01*
X-11425Y58258D01*
X-11799Y58268D01*
Y60236D01*
X-11425Y60246D01*
X-11090Y60275D01*
X-10795Y60324D01*
X-10539Y60392D01*
X-10323Y60479D01*
X-10146Y60586D01*
X-10008Y60713D01*
X-9909Y60859D01*
X-9850Y61024D01*
X-9831Y61208D01*
Y57296D01*
D02*
G37*
G36*
X-32230Y58160D02*
X-32241Y58122D01*
X-32251Y58067D01*
X-32260Y57996D01*
X-32278Y57683D01*
X-32283Y57220D01*
X-34252D01*
X-34253Y57391D01*
X-34294Y58122D01*
X-34305Y58160D01*
X-34318Y58181D01*
X-32218D01*
X-32230Y58160D01*
D02*
G37*
G36*
X-32175Y60290D02*
X-32137Y60278D01*
X-32083Y60268D01*
X-32012Y60260D01*
X-31699Y60242D01*
X-31236Y60236D01*
Y58268D01*
X-31407Y58267D01*
X-32137Y58226D01*
X-32175Y58214D01*
X-32197Y58202D01*
Y60302D01*
X-32175Y60290D01*
D02*
G37*
G36*
X-33887Y61264D02*
X-33341Y60777D01*
X-33307Y60758D01*
X-33283Y60752D01*
X-34339Y59696D01*
Y58202D01*
X-34360Y58214D01*
X-34398Y58226D01*
X-34453Y58236D01*
X-34524Y58244D01*
X-34837Y58262D01*
X-35300Y58268D01*
Y59889D01*
X-35401Y59993D01*
X-35300Y60094D01*
Y60236D01*
X-35157Y60237D01*
X-34008Y61385D01*
X-33887Y61264D01*
D02*
G37*
G36*
X303Y60966D02*
X362Y60837D01*
X460Y60723D01*
X598Y60624D01*
X775Y60540D01*
X992Y60472D01*
X1248Y60419D01*
X1543Y60381D01*
X1878Y60358D01*
X2252Y60350D01*
Y58382D01*
X1876Y58372D01*
X1540Y58342D01*
X1243Y58293D01*
X986Y58224D01*
X768Y58136D01*
X590Y58028D01*
X451Y57900D01*
X351Y57752D01*
X292Y57585D01*
X271Y57398D01*
X283Y61110D01*
X303Y60966D01*
D02*
G37*
G36*
X-3630Y49914D02*
X-3649Y50080D01*
X-3709Y50228D01*
X-3807Y50359D01*
X-3945Y50473D01*
X-4122Y50569D01*
X-4338Y50648D01*
X-4594Y50709D01*
X-4755Y50732D01*
X-4958Y50699D01*
X-5215Y50630D01*
X-5433Y50541D01*
X-5611Y50433D01*
X-5750Y50305D01*
X-5849Y50157D01*
X-5909Y49990D01*
X-5929Y49803D01*
X-5917Y53334D01*
X-5898Y53224D01*
X-5839Y53126D01*
X-5740Y53039D01*
X-5603Y52964D01*
X-5425Y52900D01*
X-5209Y52849D01*
X-4953Y52808D01*
X-4845Y52797D01*
X-4594Y52834D01*
X-4338Y52896D01*
X-4122Y52974D01*
X-3945Y53070D01*
X-3807Y53184D01*
X-3709Y53315D01*
X-3649Y53464D01*
X-3630Y53630D01*
Y49914D01*
D02*
G37*
G36*
X-80329Y60157D02*
X-80299Y60072D01*
X-80248Y59997D01*
X-80177Y59932D01*
X-80086Y59877D01*
X-79975Y59832D01*
X-79843Y59797D01*
X-79691Y59772D01*
X-79519Y59757D01*
X-79327Y59752D01*
Y58752D01*
X-79519Y58747D01*
X-79691Y58732D01*
X-79843Y58707D01*
X-79975Y58672D01*
X-80086Y58627D01*
X-80177Y58572D01*
X-80248Y58507D01*
X-80299Y58432D01*
X-80329Y58347D01*
X-80339Y58252D01*
Y60252D01*
X-80329Y60157D01*
D02*
G37*
G36*
X-76945Y58252D02*
X-76955Y58347D01*
X-76985Y58432D01*
X-77036Y58507D01*
X-77106Y58572D01*
X-77197Y58627D01*
X-77309Y58672D01*
X-77440Y58707D01*
X-77592Y58732D01*
X-77764Y58747D01*
X-77956Y58752D01*
Y59752D01*
X-77764Y59757D01*
X-77592Y59772D01*
X-77440Y59797D01*
X-77309Y59832D01*
X-77197Y59877D01*
X-77106Y59932D01*
X-77036Y59997D01*
X-76985Y60072D01*
X-76955Y60157D01*
X-76945Y60252D01*
Y58252D01*
D02*
G37*
G36*
X-74095Y57494D02*
X-74180Y57464D01*
X-74255Y57413D01*
X-74320Y57342D01*
X-74375Y57251D01*
X-74420Y57140D01*
X-74455Y57008D01*
X-74480Y56857D01*
X-74495Y56685D01*
X-74500Y56492D01*
X-75500D01*
X-75505Y56685D01*
X-75520Y56857D01*
X-75545Y57008D01*
X-75580Y57140D01*
X-75625Y57251D01*
X-75680Y57342D01*
X-75745Y57413D01*
X-75820Y57464D01*
X-75905Y57494D01*
X-76000Y57504D01*
X-74000D01*
X-74095Y57494D01*
D02*
G37*
G36*
X-81379D02*
X-81463Y57464D01*
X-81538Y57413D01*
X-81603Y57342D01*
X-81659Y57251D01*
X-81704Y57140D01*
X-81739Y57008D01*
X-81763Y56857D01*
X-81779Y56685D01*
X-81783Y56492D01*
X-82784D01*
X-82788Y56685D01*
X-82803Y56857D01*
X-82828Y57008D01*
X-82863Y57140D01*
X-82908Y57251D01*
X-82964Y57342D01*
X-83029Y57413D01*
X-83104Y57464D01*
X-83188Y57494D01*
X-83284Y57504D01*
X-81283D01*
X-81379Y57494D01*
D02*
G37*
G36*
X-74495Y55323D02*
X-74480Y55151D01*
X-74455Y54999D01*
X-74420Y54868D01*
X-74375Y54757D01*
X-74320Y54665D01*
X-74255Y54595D01*
X-74180Y54544D01*
X-74095Y54514D01*
X-74000Y54504D01*
X-76000D01*
X-75905Y54514D01*
X-75820Y54544D01*
X-75745Y54595D01*
X-75680Y54665D01*
X-75625Y54757D01*
X-75580Y54868D01*
X-75545Y54999D01*
X-75520Y55151D01*
X-75505Y55323D01*
X-75500Y55516D01*
X-74500D01*
X-74495Y55323D01*
D02*
G37*
G36*
X-54510Y1122D02*
X-54813Y1420D01*
X-55387Y1921D01*
X-55659Y2125D01*
X-55922Y2297D01*
X-56174Y2438D01*
X-56416Y2548D01*
X-56648Y2626D01*
X-56871Y2673D01*
X-57083Y2689D01*
Y3689D01*
X-56871Y3705D01*
X-56648Y3752D01*
X-56416Y3830D01*
X-56174Y3940D01*
X-55922Y4081D01*
X-55659Y4253D01*
X-55387Y4457D01*
X-54813Y4958D01*
X-54510Y5256D01*
Y1122D01*
D02*
G37*
G36*
X46968Y71077D02*
X46883Y71047D01*
X46808Y70996D01*
X46743Y70925D01*
X46688Y70834D01*
X46643Y70723D01*
X46608Y70591D01*
X46583Y70439D01*
X46568Y70267D01*
X46563Y70075D01*
X45563D01*
X45558Y70267D01*
X45543Y70439D01*
X45518Y70591D01*
X45483Y70723D01*
X45438Y70834D01*
X45383Y70925D01*
X45318Y70996D01*
X45243Y71047D01*
X45158Y71077D01*
X45063Y71087D01*
X47063D01*
X46968Y71077D01*
D02*
G37*
G36*
X19999Y71065D02*
X19915Y71035D01*
X19839Y70985D01*
X19774Y70915D01*
X19719Y70825D01*
X19674Y70715D01*
X19639Y70585D01*
X19614Y70435D01*
X19600Y70265D01*
X19594Y70075D01*
X18595D01*
X18589Y70265D01*
X18575Y70435D01*
X18550Y70585D01*
X18515Y70715D01*
X18470Y70825D01*
X18415Y70915D01*
X18350Y70985D01*
X18274Y71035D01*
X18190Y71065D01*
X18094Y71075D01*
X20095D01*
X19999Y71065D01*
D02*
G37*
G36*
X-161116Y2153D02*
X-161324Y1938D01*
X-161649Y1558D01*
X-161766Y1392D01*
X-161853Y1242D01*
X-161910Y1109D01*
X-161937Y992D01*
X-161933Y891D01*
X-161899Y807D01*
X-161835Y739D01*
X-163434Y1945D01*
X-163349Y1898D01*
X-163251Y1878D01*
X-163140Y1884D01*
X-163018Y1916D01*
X-162882Y1975D01*
X-162735Y2060D01*
X-162575Y2171D01*
X-162402Y2309D01*
X-162020Y2664D01*
X-161116Y2153D01*
D02*
G37*
G36*
X-11799Y1221D02*
X-11819Y1407D01*
X-11878Y1575D01*
X-11976Y1722D01*
X-12114Y1850D01*
X-12291Y1959D01*
X-12508Y2047D01*
X-12764Y2116D01*
X-13059Y2165D01*
X-13394Y2195D01*
X-13768Y2205D01*
Y4173D01*
X-13394Y4183D01*
X-13059Y4211D01*
X-12764Y4257D01*
X-12508Y4323D01*
X-12291Y4406D01*
X-12114Y4509D01*
X-11976Y4630D01*
X-11878Y4770D01*
X-11819Y4929D01*
X-11799Y5106D01*
Y1221D01*
D02*
G37*
G36*
X-20077Y5050D02*
X-19855Y4866D01*
X-19627Y4704D01*
X-19392Y4563D01*
X-19151Y4444D01*
X-18903Y4346D01*
X-18648Y4271D01*
X-18387Y4216D01*
X-18120Y4184D01*
X-17846Y4173D01*
Y2205D01*
X-18120Y2194D01*
X-18387Y2161D01*
X-18648Y2107D01*
X-18903Y2032D01*
X-19151Y1934D01*
X-19392Y1815D01*
X-19627Y1674D01*
X-19855Y1512D01*
X-20077Y1328D01*
X-20293Y1122D01*
Y5256D01*
X-20077Y5050D01*
D02*
G37*
G36*
X-19991Y-15042D02*
X-19416Y-15543D01*
X-19144Y-15747D01*
X-18882Y-15919D01*
X-18629Y-16060D01*
X-18387Y-16170D01*
X-18155Y-16248D01*
X-17932Y-16295D01*
X-17720Y-16311D01*
Y-17311D01*
X-17932Y-17327D01*
X-18155Y-17374D01*
X-18387Y-17452D01*
X-18629Y-17562D01*
X-18882Y-17703D01*
X-19144Y-17875D01*
X-19416Y-18079D01*
X-19991Y-18580D01*
X-20293Y-18878D01*
Y-14744D01*
X-19991Y-15042D01*
D02*
G37*
G36*
X-79474Y80184D02*
X-79327Y80063D01*
X-79258Y80015D01*
X-79190Y79976D01*
X-79125Y79945D01*
X-79063Y79924D01*
X-79003Y79910D01*
X-78945Y79906D01*
X-78889Y79910D01*
X-79716Y78808D01*
X-79726Y78856D01*
X-79743Y78907D01*
X-79767Y78961D01*
X-79798Y79019D01*
X-79837Y79080D01*
X-79883Y79144D01*
X-79997Y79281D01*
X-80064Y79355D01*
X-80139Y79432D01*
X-79550Y80257D01*
X-79474Y80184D01*
D02*
G37*
G36*
X27850Y84459D02*
X27909Y84291D01*
X28009Y84144D01*
X28147Y84016D01*
X28326Y83908D01*
X28543Y83819D01*
X28801Y83750D01*
X29098Y83701D01*
X29434Y83671D01*
X29811Y83661D01*
Y81693D01*
X29434Y81683D01*
X29098Y81653D01*
X28801Y81604D01*
X28543Y81535D01*
X28326Y81447D01*
X28147Y81339D01*
X28009Y81211D01*
X27909Y81063D01*
X27850Y80896D01*
X27830Y80709D01*
Y84646D01*
X27850Y84459D01*
D02*
G37*
G36*
X163434Y-1945D02*
X163349Y-1898D01*
X163251Y-1878D01*
X163140Y-1884D01*
X163018Y-1916D01*
X162882Y-1975D01*
X162735Y-2060D01*
X162575Y-2171D01*
X162402Y-2309D01*
X162020Y-2664D01*
X161116Y-2153D01*
X161324Y-1938D01*
X161649Y-1558D01*
X161766Y-1392D01*
X161853Y-1242D01*
X161910Y-1109D01*
X161937Y-992D01*
X161933Y-891D01*
X161899Y-807D01*
X161835Y-739D01*
X163434Y-1945D01*
D02*
G37*
G36*
X37229Y72228D02*
X37219Y72323D01*
X37188Y72408D01*
X37138Y72483D01*
X37067Y72548D01*
X36976Y72603D01*
X36864Y72648D01*
X36733Y72683D01*
X36581Y72708D01*
X36409Y72723D01*
X36217Y72728D01*
Y73728D01*
X36409Y73733D01*
X36581Y73748D01*
X36733Y73773D01*
X36864Y73808D01*
X36976Y73853D01*
X37067Y73908D01*
X37138Y73973D01*
X37188Y74048D01*
X37219Y74133D01*
X37229Y74228D01*
Y72228D01*
D02*
G37*
G36*
X27840Y74133D02*
X27871Y74048D01*
X27921Y73973D01*
X27992Y73908D01*
X28083Y73853D01*
X28195Y73808D01*
X28326Y73773D01*
X28478Y73748D01*
X28480Y73748D01*
X29024Y73730D01*
X29391Y73728D01*
Y72728D01*
X29024Y72726D01*
X28319Y72681D01*
X28195Y72648D01*
X28083Y72603D01*
X27992Y72548D01*
X27921Y72483D01*
X27871Y72408D01*
X27840Y72323D01*
X27830Y72228D01*
Y72650D01*
X27544Y72632D01*
X27418Y72603D01*
X27327Y72569D01*
X27270Y72532D01*
Y73925D01*
X27327Y73887D01*
X27418Y73854D01*
X27544Y73825D01*
X27704Y73799D01*
X27830Y73787D01*
Y74228D01*
X27840Y74133D01*
D02*
G37*
G36*
X-19991Y14958D02*
X-19416Y14457D01*
X-19144Y14253D01*
X-18882Y14081D01*
X-18629Y13940D01*
X-18387Y13830D01*
X-18155Y13752D01*
X-17932Y13705D01*
X-17720Y13689D01*
Y12689D01*
X-17932Y12673D01*
X-18155Y12626D01*
X-18387Y12548D01*
X-18629Y12438D01*
X-18882Y12297D01*
X-19144Y12125D01*
X-19416Y11921D01*
X-19991Y11420D01*
X-20293Y11122D01*
Y15256D01*
X-19991Y14958D01*
D02*
G37*
G36*
X-32269Y16043D02*
X-32228Y15667D01*
X-32158Y15302D01*
X-32061Y14949D01*
X-31936Y14607D01*
X-31782Y14277D01*
X-31601Y13958D01*
X-31393Y13651D01*
X-31156Y13355D01*
X-30891Y13071D01*
Y10287D01*
X-31156Y10532D01*
X-31393Y10709D01*
X-31601Y10820D01*
X-31782Y10863D01*
X-31936Y10839D01*
X-32061Y10748D01*
X-32158Y10589D01*
X-32228Y10363D01*
X-32269Y10070D01*
X-32283Y9710D01*
X-34252Y14055D01*
X-32283Y16431D01*
X-32269Y16043D01*
D02*
G37*
G36*
X19600Y68906D02*
X19614Y68734D01*
X19639Y68582D01*
X19674Y68450D01*
X19719Y68339D01*
X19774Y68248D01*
X19839Y68177D01*
X19915Y68127D01*
X19999Y68096D01*
X20095Y68086D01*
X18094D01*
X18190Y68096D01*
X18274Y68127D01*
X18350Y68177D01*
X18415Y68248D01*
X18470Y68339D01*
X18515Y68450D01*
X18550Y68582D01*
X18575Y68734D01*
X18589Y68906D01*
X18595Y69098D01*
X19594D01*
X19600Y68906D01*
D02*
G37*
G36*
X-19991Y24958D02*
X-19416Y24457D01*
X-19144Y24253D01*
X-18882Y24081D01*
X-18629Y23940D01*
X-18387Y23830D01*
X-18155Y23752D01*
X-17932Y23705D01*
X-17720Y23689D01*
Y22689D01*
X-17932Y22673D01*
X-18155Y22626D01*
X-18387Y22548D01*
X-18629Y22438D01*
X-18882Y22297D01*
X-19144Y22125D01*
X-19416Y21921D01*
X-19991Y21420D01*
X-20293Y21122D01*
Y25256D01*
X-19991Y24958D01*
D02*
G37*
G36*
X-276Y21471D02*
X-361Y21440D01*
X-436Y21390D01*
X-501Y21319D01*
X-556Y21228D01*
X-601Y21116D01*
X-636Y20985D01*
X-661Y20833D01*
X-676Y20661D01*
X-678Y20571D01*
X-676Y20481D01*
X-661Y20309D01*
X-636Y20157D01*
X-601Y20025D01*
X-556Y19914D01*
X-501Y19823D01*
X-436Y19752D01*
X-361Y19702D01*
X-276Y19671D01*
X-181Y19661D01*
X-2181D01*
X-2086Y19671D01*
X-2001Y19702D01*
X-1926Y19752D01*
X-1861Y19823D01*
X-1806Y19914D01*
X-1761Y20025D01*
X-1726Y20157D01*
X-1701Y20309D01*
X-1686Y20481D01*
X-1684Y20571D01*
X-1686Y20661D01*
X-1701Y20833D01*
X-1726Y20985D01*
X-1761Y21116D01*
X-1806Y21228D01*
X-1861Y21319D01*
X-1926Y21390D01*
X-2001Y21440D01*
X-2086Y21471D01*
X-2181Y21481D01*
X-181D01*
X-276Y21471D01*
D02*
G37*
G36*
X9658Y12610D02*
X9648Y12625D01*
X9618Y12639D01*
X9568Y12651D01*
X9498Y12661D01*
X9298Y12676D01*
X8658Y12689D01*
Y13689D01*
X8849Y13694D01*
X9021Y13709D01*
X9172Y13734D01*
X9303Y13769D01*
X9415Y13814D01*
X9506Y13869D01*
X9577Y13934D01*
X9628Y14009D01*
X9659Y14094D01*
X9670Y14189D01*
X9658Y12610D01*
D02*
G37*
G36*
X-28041Y69639D02*
X-28026Y69448D01*
X-28013Y69364D01*
X-27996Y69287D01*
X-27975Y69217D01*
X-27951Y69154D01*
X-27922Y69099D01*
X-27890Y69051D01*
X-27854Y69010D01*
X-29232D01*
X-29196Y69051D01*
X-29164Y69099D01*
X-29136Y69154D01*
X-29111Y69217D01*
X-29091Y69287D01*
X-29074Y69364D01*
X-29060Y69448D01*
X-29051Y69540D01*
X-29043Y69745D01*
X-28043D01*
X-28041Y69639D01*
D02*
G37*
G36*
X6520Y2150D02*
X6510Y2245D01*
X6480Y2330D01*
X6429Y2405D01*
X6358Y2470D01*
X6267Y2525D01*
X6156Y2570D01*
X6024Y2605D01*
X5872Y2630D01*
X5700Y2645D01*
X5508Y2650D01*
Y3650D01*
X5700Y3655D01*
X5872Y3670D01*
X6024Y3695D01*
X6156Y3730D01*
X6267Y3775D01*
X6358Y3830D01*
X6429Y3895D01*
X6480Y3970D01*
X6510Y4055D01*
X6520Y4150D01*
Y2150D01*
D02*
G37*
G36*
X-1589Y4055D02*
X-1558Y3970D01*
X-1508Y3895D01*
X-1437Y3830D01*
X-1346Y3775D01*
X-1235Y3730D01*
X-1103Y3695D01*
X-951Y3670D01*
X-779Y3655D01*
X-587Y3650D01*
Y2650D01*
X-779Y2645D01*
X-951Y2630D01*
X-1103Y2605D01*
X-1235Y2570D01*
X-1346Y2525D01*
X-1437Y2470D01*
X-1508Y2405D01*
X-1558Y2330D01*
X-1589Y2245D01*
X-1599Y2150D01*
Y4150D01*
X-1589Y4055D01*
D02*
G37*
G36*
X-24725Y6920D02*
X-24513Y6754D01*
X-24291Y6608D01*
X-24057Y6482D01*
X-23813Y6375D01*
X-23558Y6289D01*
X-23292Y6222D01*
X-23016Y6175D01*
X-22729Y6148D01*
X-22431Y6142D01*
X-25354Y3218D01*
X-25361Y3516D01*
X-25388Y3804D01*
X-25435Y4080D01*
X-25501Y4346D01*
X-25588Y4600D01*
X-25694Y4845D01*
X-25820Y5078D01*
X-25967Y5301D01*
X-26133Y5513D01*
X-26319Y5714D01*
X-24927Y7106D01*
X-24725Y6920D01*
D02*
G37*
G36*
X46568Y68906D02*
X46583Y68734D01*
X46608Y68582D01*
X46643Y68450D01*
X46688Y68339D01*
X46743Y68248D01*
X46808Y68177D01*
X46883Y68127D01*
X46968Y68096D01*
X47063Y68086D01*
X45063D01*
X45158Y68096D01*
X45243Y68127D01*
X45318Y68177D01*
X45383Y68248D01*
X45438Y68339D01*
X45483Y68450D01*
X45518Y68582D01*
X45543Y68734D01*
X45558Y68906D01*
X45563Y69098D01*
X46563D01*
X46568Y68906D01*
D02*
G37*
G36*
X27788Y71055D02*
X27740Y70996D01*
X27698Y70898D01*
X27661Y70760D01*
X27630Y70583D01*
X27604Y70366D01*
X27570Y69815D01*
X27569Y69701D01*
X27569Y69693D01*
X27598Y69358D01*
X27646Y69063D01*
X27715Y68807D01*
X27802Y68590D01*
X27909Y68413D01*
X28035Y68275D01*
X28181Y68177D01*
X28347Y68118D01*
X28531Y68098D01*
X24618D01*
X24803Y68118D01*
X24968Y68177D01*
X25114Y68275D01*
X25240Y68413D01*
X25348Y68590D01*
X25435Y68807D01*
X25503Y69063D01*
X25552Y69358D01*
X25577Y69651D01*
X25520Y70583D01*
X25489Y70760D01*
X25452Y70898D01*
X25409Y70996D01*
X25361Y71055D01*
X25307Y71075D01*
X27842D01*
X27788Y71055D01*
D02*
G37*
D10*
X8858Y1969D02*
D03*
X16732D02*
D03*
D11*
X12795Y15551D02*
D03*
D12*
X-10039Y3150D02*
D03*
X-3347D02*
D03*
X-1181Y17717D02*
D03*
X-7874D02*
D03*
X46260Y66142D02*
D03*
X39567D02*
D03*
X-68307Y52559D02*
D03*
X-75000D02*
D03*
X-74213Y31299D02*
D03*
X-67520D02*
D03*
D13*
X-82480Y43307D02*
D03*
X-106102D02*
D03*
Y31496D02*
D03*
X-82480D02*
D03*
D14*
X-7874Y23425D02*
D03*
X-1181D02*
D03*
X39370Y73032D02*
D03*
X46063D02*
D03*
X170669Y0D02*
D03*
X163976D02*
D03*
X-170669D02*
D03*
X-163976D02*
D03*
D15*
X19094Y89961D02*
D03*
Y96653D02*
D03*
X-99213Y-28543D02*
D03*
Y-35236D02*
D03*
X-75000Y65945D02*
D03*
Y59252D02*
D03*
D16*
X-105315Y-23031D02*
D03*
X-99016D02*
D03*
X-105315Y-40748D02*
D03*
X-99016D02*
D03*
X26575Y66142D02*
D03*
X32874D02*
D03*
X32874Y89764D02*
D03*
X26575D02*
D03*
X19094Y66142D02*
D03*
X12795D02*
D03*
D17*
X26575Y73228D02*
D03*
X19094D02*
D03*
Y82677D02*
D03*
X22835D02*
D03*
X26575Y82677D02*
D03*
D18*
X-82284Y65748D02*
D03*
Y59449D02*
D03*
X-7874Y59252D02*
D03*
Y65551D02*
D03*
X-7874Y51378D02*
D03*
Y45079D02*
D03*
D19*
X120476Y120476D02*
D03*
X115744Y115744D02*
D03*
X-120476Y-120476D02*
D03*
X-115744Y-115744D02*
D03*
D20*
X0Y170669D02*
D03*
Y163976D02*
D03*
X-197Y-171457D02*
D03*
Y-164764D02*
D03*
D21*
X-120476Y120476D02*
D03*
X-115744Y115744D02*
D03*
X120476Y-120476D02*
D03*
X115744Y-115744D02*
D03*
D22*
X-1673Y59252D02*
D03*
X-1673Y51772D02*
D03*
X7185Y55512D02*
D03*
D23*
X87319Y59366D02*
X97835Y69882D01*
X-75000Y65945D02*
X-68307Y59252D01*
X-33268D01*
X-22402Y3189D02*
X-10079D01*
X61772Y102323D02*
Y113779D01*
X42126Y82677D02*
X61772Y102323D01*
X26575Y82677D02*
X42126D01*
X26575Y82677D02*
Y89764D01*
X71772Y82165D02*
Y113779D01*
X-1673Y59366D02*
X19799D01*
X26575Y66142D01*
X-14764Y51378D02*
X-7874D01*
X-75984Y101969D02*
Y109252D01*
Y101969D02*
X-33268Y59252D01*
X-39370Y-113583D02*
X-33268Y-107480D01*
Y-47677D01*
X-52402Y-66811D02*
X-33268Y-47677D01*
Y14055D01*
X-22402Y3189D01*
X-33268Y14055D02*
Y59252D01*
X19799Y59366D02*
X87319D01*
X-1673Y59252D02*
Y59366D01*
X-33268Y59252D02*
X-7874D01*
X-7874Y59252D02*
X-1673D01*
X-7480Y51772D02*
X-1673D01*
X26575Y66142D02*
Y73228D01*
D24*
X-3347Y3150D02*
X8465D01*
X-22402Y13189D02*
X12795D01*
X19094Y82677D02*
Y89961D01*
X19291Y89764D02*
X26575D01*
X-53031Y52559D02*
X-52402Y53189D01*
X-68307Y52559D02*
X-53031D01*
X-78937Y78937D02*
X-78740D01*
X-115744Y115744D02*
X-78937Y78937D01*
X-28543Y135433D02*
X0Y163976D01*
X-28543Y68307D02*
Y135433D01*
X56811Y-56811D02*
X115744Y-115744D01*
X-22402Y-56811D02*
X56811D01*
X115744Y67516D02*
Y115744D01*
X31417Y-16811D02*
X115744Y67516D01*
X-22402Y-16811D02*
X31417D01*
X-163976Y0D02*
X-160787Y3189D01*
X-52402D01*
X117165Y-46811D02*
X163976Y0D01*
X-22402Y-46811D02*
X117165D01*
X-197Y-164764D02*
Y-89016D01*
X-22402Y-66811D02*
X-197Y-89016D01*
X-76811Y-76811D02*
X-52402D01*
X-115744Y-115744D02*
X-76811Y-76811D01*
X-134567Y-56811D02*
X-52402D01*
X-134843Y-46535D02*
X-52677D01*
X-1181Y17717D02*
Y23425D01*
X-22402Y23189D02*
X-8110D01*
X-99016Y-40748D02*
Y-35433D01*
X-99016Y-28346D02*
Y-23031D01*
X26575Y73228D02*
X39173D01*
X46063Y66339D02*
Y73032D01*
X-82480Y31496D02*
X-74410D01*
X-75000Y52559D02*
Y59252D01*
X-82087D02*
X-75000D01*
X-82284Y59449D02*
X-82087Y59252D01*
X-82480Y43307D02*
X-82284Y43504D01*
Y59449D01*
X19094Y66142D02*
Y73228D01*
X-84055Y-41496D02*
X-79370Y-36811D01*
X-99016Y-40748D02*
X-84803D01*
X-84055Y-22284D02*
X-79528Y-26811D01*
X-99016Y-23031D02*
X-84803D01*
X-79370Y-36811D02*
X-52402D01*
X-79528Y-26811D02*
X-52402D01*
D25*
X-79528Y70472D02*
X-75000Y65945D01*
X-125236Y70472D02*
X-79528D01*
X-133661Y62047D02*
X-125236Y70472D01*
X-7874Y45079D02*
X-7874Y45079D01*
X-84055Y-22284D02*
X-83071D01*
D26*
X-18853Y-170336D02*
D03*
D27*
X-26269Y-169360D02*
D03*
X159596Y62204D02*
D03*
X-133524Y107333D02*
D03*
X71772Y113779D02*
D03*
X-133661Y62047D02*
D03*
Y52047D02*
D03*
Y42047D02*
D03*
Y32047D02*
D03*
Y22047D02*
D03*
X-52402Y43189D02*
D03*
Y33189D02*
D03*
Y23189D02*
D03*
Y13189D02*
D03*
Y3189D02*
D03*
Y-6811D02*
D03*
Y-16811D02*
D03*
Y-26811D02*
D03*
Y-36811D02*
D03*
Y-46811D02*
D03*
Y-56811D02*
D03*
Y-66811D02*
D03*
Y-76811D02*
D03*
X-22402Y53189D02*
D03*
Y43189D02*
D03*
Y33189D02*
D03*
Y23189D02*
D03*
Y13189D02*
D03*
Y3189D02*
D03*
Y-6811D02*
D03*
Y-16811D02*
D03*
Y-26811D02*
D03*
Y-36811D02*
D03*
Y-46811D02*
D03*
Y-56811D02*
D03*
Y-66811D02*
D03*
Y-76811D02*
D03*
X72244Y71693D02*
D03*
X-134843Y-36535D02*
D03*
Y-46535D02*
D03*
Y-56535D02*
D03*
D28*
X156734Y69115D02*
D03*
D29*
X-138077Y101398D02*
D03*
D30*
X51772Y113779D02*
D03*
X-52402Y53189D02*
D03*
D31*
X61772Y113779D02*
D03*
D32*
X-133661Y72047D02*
D03*
X72244Y81693D02*
D03*
X-134843Y-66535D02*
D03*
D33*
X-84055Y-22284D02*
D03*
Y-41496D02*
D03*
D34*
X-33268Y59252D02*
D03*
D35*
X-14764Y51378D02*
D03*
X-197Y-171457D02*
D03*
X-120476Y-120476D02*
D03*
X-170669Y0D02*
D03*
X-120476Y120476D02*
D03*
X0Y170669D02*
D03*
X120476Y120476D02*
D03*
X170669Y0D02*
D03*
X120280Y-120280D02*
D03*
X-78740Y78937D02*
D03*
X-28543Y68307D02*
D03*
X-75984Y109252D02*
D03*
X-39370Y-113583D02*
D03*
X97835Y69882D02*
D03*
X-7874Y45079D02*
D03*
M02*
