M48
;Layer_Color=9474304
;FILE_FORMAT=2:5
INCH,LZ
;TYPE=PLATED
T1F00S00C0.01181
T2F00S00C0.01500
T3F00S00C0.02756
T4F00S00C0.03543
%
T01
X-0000197Y-0171457
X012028Y-012028
X-003937Y-0113583
X-0120476Y-0120476
X-0170669Y0
X-0120476Y0120476
X-0075984Y0109252
X-007874Y0078937
X-0028543Y0068307
X-0014764Y0051378
X-0007874Y0045079
X0097835Y0069882
X0120476Y0120476
X0170669Y0
X0Y0170669
T02
X-0033268Y0059252
T03
X-0084055Y-0041496
Y-0022284
T04
X-0026269Y-016936
X-0018853Y-0170336
X-0022402Y-0076811
Y-0066811
Y-0056811
Y-0046811
Y-0036811
Y-0026811
Y-0016811
Y-0006811
X-0052402
Y-0016811
Y-0026811
Y-0036811
Y-0046811
Y-0056811
Y-0066811
Y-0076811
X-0134843Y-0066535
Y-0056535
Y-0046535
Y-0036535
X-0133661Y0022047
Y0032047
Y0042047
Y0052047
Y0062047
Y0072047
X-0138077Y0101398
X-0133524Y0107333
X-0052402Y0053189
Y0043189
Y0033189
Y0023189
Y0013189
Y0003189
X-0022402
Y0013189
Y0023189
Y0033189
Y0043189
Y0053189
X0072244Y0071693
Y0081693
X0071772Y0113779
X0061772
X0051772
X0156734Y0069115
X0159596Y0062204
M30
